<svg xmlns="http://www.w3.org/2000/svg" xmlns:xlink="http://www.w3.org/1999/xlink" width="1440" height="900" viewBox="0 0 1440 900">
  <defs>
    <clipPath id="clip-path">
      <rect id="Rectangle_403" data-name="Rectangle 403" width="201.43" height="193.425" fill="none"/>
    </clipPath>
    <clipPath id="clip-path-3">
      <rect id="Rectangle_401" data-name="Rectangle 401" width="44.854" height="17.606" fill="none"/>
    </clipPath>
    <clipPath id="clip-path-4">
      <rect id="Rectangle_383" data-name="Rectangle 383" width="332.225" height="714.138" fill="none"/>
    </clipPath>
    <clipPath id="clip-path-5">
      <rect id="Rectangle_384" data-name="Rectangle 384" width="959.284" height="900" fill="none"/>
    </clipPath>
    <clipPath id="clip-path-6">
      <rect id="Rectangle_421" data-name="Rectangle 421" width="1552.096" height="900" fill="#f6fcf8"/>
    </clipPath>
    <clipPath id="clip-path-7">
      <rect id="Rectangle_397" data-name="Rectangle 397" width="73.305" height="246.054" fill="none"/>
    </clipPath>
    <clipPath id="clip-path-8">
      <rect id="Rectangle_387" data-name="Rectangle 387" width="242.448" height="228.266" fill="none"/>
    </clipPath>
    <clipPath id="clip-path-9">
      <rect id="Rectangle_388" data-name="Rectangle 388" width="257.793" height="223.48" fill="none"/>
    </clipPath>
    <clipPath id="clip-path-10">
      <rect id="Rectangle_392" data-name="Rectangle 392" width="260.147" height="291.47" fill="none"/>
    </clipPath>
    <clipPath id="clip-path-12">
      <rect id="Rectangle_389" data-name="Rectangle 389" width="24.188" height="44.673" fill="none"/>
    </clipPath>
    <clipPath id="clip-path-13">
      <rect id="Rectangle_390" data-name="Rectangle 390" width="24.186" height="44.673" fill="none"/>
    </clipPath>
    <clipPath id="clip-path-14">
      <rect id="Rectangle_394" data-name="Rectangle 394" width="56.098" height="234.863" fill="none"/>
    </clipPath>
    <clipPath id="clip-path-15">
      <rect id="Rectangle_395" data-name="Rectangle 395" width="37.822" height="259.357" fill="none"/>
    </clipPath>
    <clipPath id="clip-path-16">
      <rect id="Rectangle_398" data-name="Rectangle 398" width="325.912" height="206.554" fill="none"/>
    </clipPath>
    <clipPath id="clip-path-17">
      <rect id="Rectangle_420" data-name="Rectangle 420" width="53.549" height="209.929" fill="none"/>
    </clipPath>
    <clipPath id="clip-Web_1280_1">
      <rect width="1440" height="900"/>
    </clipPath>
  </defs>
  <g id="Web_1280_1" data-name="Web 1280 – 1" clip-path="url(#clip-Web_1280_1)">
    <rect width="1440" height="900" fill="#fff"/>
    <g id="Group_1171" data-name="Group 1171" transform="translate(-81 22)">
      <rect id="bkgd" width="1552.096" height="900" transform="translate(0 -22)" fill="#f6fcf8"/>
      <g id="hands" transform="translate(581.924 543.868) rotate(3)">
        <g id="Group_1064" data-name="Group 1064" clip-path="url(#clip-path)">
          <g id="Group_1063" data-name="Group 1063">
            <g id="Group_1062" data-name="Group 1062" clip-path="url(#clip-path)">
              <path id="Path_4055" data-name="Path 4055" d="M42.152,37.629V10.19H13.781l-2.329,3.583L0,13.659V0H53.143a1.226,1.226,0,0,1,1.225,1.225v36.4Z" transform="translate(102.5 0)" fill="#6ccc8d"/>
              <path id="Path_4056" data-name="Path 4056" d="M0,14.064V4.246A4.073,4.073,0,0,1,3.866,0H45.974A4.028,4.028,0,0,1,49.84,4.246v9.819a2.707,2.707,0,0,1-2.7,2.714H2.7A2.707,2.707,0,0,1,0,14.064" transform="translate(125.35 34.916)" fill="#01417f"/>
              <path id="Path_4057" data-name="Path 4057" d="M0,15v0Z" transform="translate(201.43 175.715)" fill="#232323"/>
              <path id="Path_4058" data-name="Path 4058" d="M0,30.8C0,22.836,4.633,11.726,10.834,6.755A30.767,30.767,0,0,1,30.134,0H72.167a30.756,30.756,0,0,1,21.5,8.7c4.983,4.841,8.638,14.914,8.638,21.875l.006,92.163H.007v21.71Z" transform="translate(99.119 46.266)" fill="#6ccc8d"/>
              <path id="Path_4059" data-name="Path 4059" d="M0,0V0Z" transform="translate(201.429 169.001)" fill="#232323"/>
              <path id="Path_4060" data-name="Path 4060" d="M102.3,0V21.713a2.708,2.708,0,0,1-2.7,2.711H2.7A2.708,2.708,0,0,1,0,21.713V0Z" transform="translate(99.126 169.001)" fill="#01417f"/>
              <path id="Path_4061" data-name="Path 4061" d="M51.149,0a2.707,2.707,0,0,1,2.7,2.714V53.176a2.707,2.707,0,0,1-2.7,2.714H0V0Z" transform="translate(99.126 95.652)" fill="#01417f"/>
              <rect id="Rectangle_399" data-name="Rectangle 399" width="33.941" height="8.142" transform="translate(99.126 111.198)" fill="#fff"/>
              <rect id="Rectangle_400" data-name="Rectangle 400" width="33.941" height="8.142" transform="translate(99.126 127.855)" fill="#fff"/>
              <path id="Path_4062" data-name="Path 4062" d="M3.34,99.461A3.346,3.346,0,0,1,0,96.26L0,40.93a3.363,3.363,0,0,1,1.157-2.706L35.1,8.909A25.546,25.546,0,0,1,53.443,2.667l26.18,1.5a15.826,15.826,0,0,1,13.2,22.949,81.636,81.636,0,0,0,36.6-18.2l6.5-5.612A13.565,13.565,0,0,1,155.1,4.743a13.7,13.7,0,0,1-1.438,19.249l-3.013,2.6A172.164,172.164,0,0,1,68.059,65.862L50.8,68.91A28.825,28.825,0,0,0,36.97,75.479L5.432,98.724a3.338,3.338,0,0,1-2.092.738" transform="translate(0 58.82)" fill="#ffd4c3"/>
              <path id="Path_4063" data-name="Path 4063" d="M13.489,37.173A13.526,13.526,0,0,1,0,23.64c0-6.4,9.093-19.7,10.913-22.3a3.144,3.144,0,0,1,5.153,0c1.819,2.6,10.907,15.893,10.907,22.3A13.524,13.524,0,0,1,13.489,37.173" transform="translate(95.056 20.498)" fill="#ffd4c3"/>
              <g id="Group_1061" data-name="Group 1061" transform="translate(55.737 83.774)" opacity="0.4" style="mix-blend-mode: multiply;isolation: isolate">
                <g id="Group_1060" data-name="Group 1060">
                  <g id="Group_1059" data-name="Group 1059" clip-path="url(#clip-path-3)">
                    <path id="Path_4064" data-name="Path 4064" d="M23,17.606A22.562,22.562,0,0,0,44.854,0c-2.563.812-5.135,1.6-7.772,2.159.008-.015.011-.034.019-.049a15.785,15.785,0,0,1-14.021,8.779L.353,9.715,0,16.425,21.891,17.58Z" transform="translate(0 0)" fill="#ffd4c3"/>
                  </g>
                </g>
              </g>
            </g>
          </g>
        </g>
      </g>
      <g id="shape-green" transform="translate(1220.12 163.389)">
        <g id="Group_1030" data-name="Group 1030" clip-path="url(#clip-path-4)">
          <path id="Path_4008" data-name="Path 4008" d="M332.225,0C30.789,102.525,359.862,399.486,160.655,469.383,7.091,532.313-19.532,615.963,11.335,714.138h320.89Z" transform="translate(0)" fill="#6ccc8d"/>
        </g>
      </g>
      <g id="shape-blue" transform="translate(0 -22)" clip-path="url(#clip-path-5)">
        <path id="Path_4009" data-name="Path 4009" d="M1087.4,0c121.43,408.746-586.374,458.5-300.784,900H0V0Z" transform="translate(-142.275)" fill="#01417f"/>
      </g>
      <g id="spoon" transform="translate(0 -22)" clip-path="url(#clip-path-6)">
        <g id="spoon-2" data-name="spoon" transform="translate(888.158 690.791) rotate(31)">
          <rect id="Rectangle_396" data-name="Rectangle 396" width="11.767" height="29.038" transform="translate(30.77 93.461)" fill="#6ccc8d"/>
          <g id="Group_1055" data-name="Group 1055">
            <g id="Group_1054" data-name="Group 1054" clip-path="url(#clip-path-7)">
              <path id="Path_4047" data-name="Path 4047" d="M36.654,97.281A36.7,36.7,0,0,1,0,60.626C0,40.407,15.846,0,36.654,0S73.306,40.407,73.306,60.626A36.7,36.7,0,0,1,36.654,97.281" transform="translate(0 0.001)" fill="#6ccc8d"/>
              <path id="Path_4048" data-name="Path 4048" d="M11.067,129.079A11.079,11.079,0,0,1,0,118.012V3.479A3.426,3.426,0,0,1,3.412.054L18.7,0a4.23,4.23,0,0,1,2.431,1,3.43,3.43,0,0,1,1.006,2.425V118.012a11.078,11.078,0,0,1-11.066,11.066" transform="translate(25.586 116.975)" fill="#01417f"/>
            </g>
          </g>
        </g>
      </g>
      <g id="veggies" transform="translate(1210.955 356.525) rotate(-9)">
        <g id="Group_1035" data-name="Group 1035" clip-path="url(#clip-path-8)">
          <path id="Path_4010" data-name="Path 4010" d="M40.058,44.21a3.13,3.13,0,0,1-2.74-1.7l-.01,0c-.023-.037-.052-.091-.087-.153-.163-.255-.319-.522-.475-.79C33.374,35.795,25.49,32.56,18.531,29.7c-4.249-1.743-8.265-3.391-11-5.536C3,20.616.262,15.923.017,11.286A11.011,11.011,0,0,1,3.33,2.662C10.426-4.21,18.238,3.84,22.91,8.65c.184.191,13.18,18.421,18.262,28.023.391.54.76,1.1,1.1,1.679l.56.952-.3.184a4.607,4.607,0,0,1,.589,2.639A3.2,3.2,0,0,1,40.4,44.194c-.118.009-.23.015-.338.015" transform="translate(174.158 8.745)" fill="#6ccc8d"/>
          <rect id="Rectangle_385" data-name="Rectangle 385" width="9.716" height="36.148" transform="translate(205.006 4.642)" fill="#01417f"/>
          <path id="Path_4011" data-name="Path 4011" d="M46.906,182.756c-.143,0-.61-.038-.754-.057h-.108A45.726,45.726,0,0,1,0,137.1L12.2,11.5a3.237,3.237,0,0,1,2.371-2.811L46.054.112A3.3,3.3,0,0,1,47.789.12L78.023,8.7a3.233,3.233,0,0,1,2.339,2.8L92.546,136.787a45.751,45.751,0,0,1-45.64,45.969" transform="translate(81.611 45.51)" fill="#01417f"/>
          <rect id="Rectangle_386" data-name="Rectangle 386" width="9.716" height="23.358" transform="translate(123.659)" fill="#01417f"/>
          <path id="Path_4012" data-name="Path 4012" d="M77.277,101.837a66.391,66.391,0,0,1-10.079-.8c-.485-.077-1.086-.127-1.747-.162a43.043,43.043,0,0,0-4.672,0c-.677.038-1.276.088-1.753.165-10.166,1.56-19.337.841-27.263-2.138A41.945,41.945,0,0,1,13.228,85.111,59.6,59.6,0,0,1,3.09,64.106,91.547,91.547,0,0,1,0,39.885,56.645,56.645,0,0,1,5.006,15.831C8.272,8.8,11.567,5.357,17.282.724A3.24,3.24,0,0,1,19.321,0h87.572a3.241,3.241,0,0,1,2.04.724c5.715,4.633,9.01,8.076,12.277,15.11a56.626,56.626,0,0,1,5.008,24.05,91.483,91.483,0,0,1-3.093,24.221,59.626,59.626,0,0,1-10.138,21.008A41.935,41.935,0,0,1,94.45,98.9a48.539,48.539,0,0,1-17.173,2.938" transform="translate(0 126.426)" fill="#ffd4c3"/>
          <path id="Path_4013" data-name="Path 4013" d="M.547,23.4C.016,18.1-.886,5.206,2.178,0L10.55,4.927c-.926,1.784-1.088,9.971-.336,17.5Z" transform="translate(57.728 92.781)" fill="#01417f"/>
          <path id="Path_4014" data-name="Path 4014" d="M97.5,16.85c-.1-.057-10.352-5.917-22.093-11.992-.668-.4-15.424-9.1-25.5-2.219C46.729.852,42.429.216,37.082.738A50.319,50.319,0,0,0,18.143,6.75,182.823,182.823,0,0,0,1.376,17.015a3.236,3.236,0,0,0-.107,5.218c3.613,2.767,16.863,3.583,25.8.354.968,6.651,2.852,14.716,2.952,15.143a3.24,3.24,0,0,0,5.472,1.521C39.346,35.3,46.172,28.916,49.939,26.67c4.835,2.711,12.721,6.967,12.721,6.967a3.239,3.239,0,0,0,4.7-2.121,29.09,29.09,0,0,1,4.02-8.641c8.517,3.574,22.531,2.387,26.488-.641A3.239,3.239,0,0,0,97.5,16.85" transform="translate(12.572 108.977)" fill="#6ccc8d"/>
          <path id="Path_4015" data-name="Path 4015" d="M41.689,49.375a13.28,13.28,0,0,1-9.424-3.9,6.974,6.974,0,0,0-4.9-2.03H7.944a7.9,7.9,0,0,1-5.966-2.727A8.117,8.117,0,0,1,.083,34.242C2.316,18.546,8.971,6.5,17.885,2.01,22.168-.147,29.228-1.655,38.538,3.4c1.234.668,3.9.269,6.479-.123,3.193-.477,6.808-1.03,10.365-.18C71.414,6.907,81.139,17.665,83.5,34.211a8.116,8.116,0,0,1-1.91,6.5,8.495,8.495,0,0,1-6,2.706L56.317,43.3a6.994,6.994,0,0,0-4.941,2.027,13.674,13.674,0,0,1-9.688,4.052" transform="translate(86.721 17.116)" fill="#6ccc8d"/>
          <path id="Path_4016" data-name="Path 4016" d="M32.583,190.067C10.651,190.067,0,26.566,0,24.914,0,11.177,14.617,0,32.583,0S65.168,11.177,65.168,24.914c0,1.651-10.651,165.153-32.584,165.153" transform="translate(177.281 38.199)" fill="#ffd4c3"/>
          <path id="Path_4017" data-name="Path 4017" d="M1.25,5.683C.808,5.942.419,6.229,0,6.5q.27,3.468.611,7.575a25.1,25.1,0,0,1,3.913-2.8,38.188,38.188,0,0,1,17.2-4.805L21.42,0A44.18,44.18,0,0,0,1.25,5.683" transform="translate(178.308 71.165)" fill="#6ccc8d"/>
          <path id="Path_4018" data-name="Path 4018" d="M0,7.308q.362,3.914.767,8.081c3.637-4.309,9.871-7.5,17.985-9.026L17.557,0A41.408,41.408,0,0,0,0,7.308" transform="translate(180.115 91.538)" fill="#6ccc8d"/>
          <path id="Path_4019" data-name="Path 4019" d="M0,5.974q.386,3.589.8,7.254c.338-.254.591-.537.952-.785A38.233,38.233,0,0,1,18.573,6.433L17.808,0A44.888,44.888,0,0,0,0,5.974" transform="translate(182.276 114.494)" fill="#6ccc8d"/>
          <path id="Path_4020" data-name="Path 4020" d="M0,7.259q.5,3.9,1.031,7.792C4.708,10.917,10.8,7.849,18.7,6.363L17.5,0A41.486,41.486,0,0,0,0,7.259" transform="translate(184.928 135.762)" fill="#6ccc8d"/>
          <path id="Path_4021" data-name="Path 4021" d="M4.813,2.549A27.163,27.163,0,0,0,0,5.151q.587,3.744,1.206,7.4A17.879,17.879,0,0,1,7.323,8.519a28.933,28.933,0,0,1,8.563-2.067L15.282,0A35.552,35.552,0,0,0,4.813,2.549" transform="translate(188.11 160.353)" fill="#6ccc8d"/>
          <path id="Path_4022" data-name="Path 4022" d="M13.449,0A35.687,35.687,0,0,0,0,5.446c.522,2.411,1.058,4.73,1.607,6.976C4.56,9.608,9.054,7.483,14.721,6.351Z" transform="translate(192.851 186.028)" fill="#6ccc8d"/>
        </g>
      </g>
      <g id="steak" transform="translate(861.198 36.296)">
        <g id="Group_1037" data-name="Group 1037" clip-path="url(#clip-path-9)">
          <path id="Path_4023" data-name="Path 4023" d="M64.155,219.963c-22.979,0-44.486-6.909-56.069-18.291C2.553,196.233-.237,190.121.015,183.988l0-43.163a3.744,3.744,0,0,1,2.452-3.513l250.295-91.9a3.742,3.742,0,0,1,5.033,3.514V85.647a62.673,62.673,0,0,1-12.933,38.725c-20.751,26.362-54.949,51.172-104.547,75.848a220.72,220.72,0,0,1-36.387,14.443c-10.182,2.993-18.217,4.233-33.063,5.1q-3.366.2-6.707.2" transform="translate(0 3.517)" fill="#01417f"/>
          <path id="Path_4024" data-name="Path 4024" d="M64.155,180.169c-22.979,0-44.484-6.909-56.067-18.292-5.535-5.44-8.324-11.554-8.073-17.689.424-10.286,6.328-18.1,18.052-23.881.095-.047.2-.091.3-.132.441-.171,44.092-17.743,44.6-59.9C63.231,38.4,79.352,18.364,104.042,9.237,120.375,3.195,140.179,0,161.315,0c29.625,0,57.382,6.364,76.154,17.455,18.385,10.86,25.174,31.556,16.144,49.208-17.027,33.289-55.147,64.834-113.3,93.76a220.62,220.62,0,0,1-36.387,14.442c-10.193,3-18.227,4.237-33.063,5.107-2.242.131-4.483.2-6.707.2M21.262,127.078C9.323,133.007,7.686,139.857,7.494,144.5c-.2,5.009,3.063,9.31,5.839,12.041,9.232,9.069,30.45,17.488,57.091,15.964,14.19-.834,21.819-2,31.392-4.815a213.73,213.73,0,0,0,35.163-13.968c56.687-28.2,93.686-58.631,109.969-90.462,7.287-14.245,1.823-30.431-13.289-39.353C216.008,13.47,189.638,7.487,161.315,7.487c-20.258,0-39.165,3.033-54.675,8.768C84.883,24.3,70.679,41.616,70.451,60.36c-.553,45.8-45.911,65.369-49.19,66.717" transform="translate(0 0)" fill="#232323"/>
          <path id="Path_4025" data-name="Path 4025" d="M64.1,180.168c-23.732,0-45.484-7.3-56.767-19.06C2.306,155.875-.224,150.022.015,144.188c.424-10.286,6.328-18.1,18.053-23.88.736-.3,44.388-17.875,44.9-60.036.265-21.874,16.386-41.9,41.075-51.036C120.375,3.194,140.179,0,161.313,0c29.626,0,57.383,6.364,76.155,17.454,18.385,10.86,25.174,31.556,16.144,49.208-17.027,33.289-55.147,64.836-113.3,93.761a220.836,220.836,0,0,1-36.386,14.442c-10.194,3-18.229,4.236-33.064,5.107q-3.421.2-6.766.2" transform="translate(0 0)" fill="#6ccc8d"/>
          <path id="Path_4026" data-name="Path 4026" d="M81.2,135.6a22.164,22.164,0,0,1-2.376.886c-10.59,3.265-21.315,5.7-25.932-3.212-4.4-8.489,3.767-16.408,12.333-23.031a21.229,21.229,0,0,1,17.363-4.086c4.431.98,7.951,3.433,9.66,6.733s1.681,7.578-.069,11.754A21.146,21.146,0,0,1,81.2,135.6" transform="translate(4.022 8.228)" fill="#ffd4c3"/>
          <path id="Path_4027" data-name="Path 4027" d="M161.313,14.972c27.022,0,52,5.6,68.541,15.373,11.538,6.816,15.827,18.945,10.428,29.5-15.536,30.376-51.414,59.705-106.635,87.172A206.181,206.181,0,0,1,99.7,160.5c-9.055,2.662-16,3.72-29.7,4.523q-2.986.173-5.9.172c-19.494,0-37.537-5.674-45.965-14.454-2.073-2.16-3.224-4.324-3.157-5.937.091-2.207.259-6.291,9.324-10.873,7.523-3.189,53.045-24.509,53.638-73.478.189-15.62,12.474-30.213,31.3-37.175,14.691-5.434,32.7-8.307,52.077-8.307m0-14.972c-21.133,0-40.939,3.195-57.271,9.237C79.353,18.369,63.232,38.4,62.967,60.273c-.511,42.16-44.161,59.732-44.9,60.035C6.343,126.092.44,133.9.016,144.189c-.239,5.833,2.289,11.686,7.314,16.921,11.284,11.755,33.035,19.058,56.767,19.058q3.343,0,6.767-.2c14.835-.87,22.87-2.109,33.063-5.107a220.884,220.884,0,0,0,36.387-14.442c58.153-28.925,96.273-60.47,113.3-93.76,9.029-17.652,2.241-38.348-16.144-49.208C218.7,6.364,190.94,0,161.313,0" transform="translate(0 0)" fill="#ffd4c3"/>
        </g>
      </g>
      <g id="chef" transform="translate(980.849 586.529)">
        <g id="Group_1047" data-name="Group 1047" clip-path="url(#clip-path-10)">
          <g id="Group_1046" data-name="Group 1046">
            <g id="Group_1045" data-name="Group 1045" clip-path="url(#clip-path-10)">
              <path id="Path_4028" data-name="Path 4028" d="M64.876,120.28c-8.232,0-11.911-3.908-15.175-10.216a47.667,47.667,0,0,1-5.039-21.839v-.9A11.817,11.817,0,0,1,56.542,75.607H64.8a3.945,3.945,0,0,1,3.972,3.912l.081,36.835a3.894,3.894,0,0,1-1.16,2.774,4,4,0,0,1-2.813,1.152" transform="translate(18.846 31.905)" fill="#ffd4c3"/>
              <path id="Path_4029" data-name="Path 4029" d="M125.856,120.28a4,4,0,0,1-2.813-1.152,3.894,3.894,0,0,1-1.16-2.774l.08-36.835a3.947,3.947,0,0,1,3.973-3.912h8.255A11.817,11.817,0,0,1,146.071,87.33v.9a47.668,47.668,0,0,1-5.04,21.839c-3.266,6.308-6.944,10.216-15.175,10.216" transform="translate(51.432 31.905)" fill="#ffd4c3"/>
              <g id="Group_1041" data-name="Group 1041" transform="translate(63.507 107.512)" opacity="0.3" style="mix-blend-mode: multiply;isolation: isolate">
                <g id="Group_1040" data-name="Group 1040">
                  <g id="Group_1039" data-name="Group 1039" clip-path="url(#clip-path-12)">
                    <path id="Path_4030" data-name="Path 4030" d="M64.876,120.28c-8.232,0-11.911-3.908-15.175-10.216a47.667,47.667,0,0,1-5.039-21.839v-.9A11.817,11.817,0,0,1,56.542,75.607H64.8a3.945,3.945,0,0,1,3.972,3.912l.081,36.835a3.894,3.894,0,0,1-1.16,2.774,4,4,0,0,1-2.813,1.152" transform="translate(-44.661 -75.607)" fill="#ffd4c3"/>
                  </g>
                </g>
              </g>
              <g id="Group_1044" data-name="Group 1044" transform="translate(173.317 107.512)" opacity="0.3" style="mix-blend-mode: multiply;isolation: isolate">
                <g id="Group_1043" data-name="Group 1043">
                  <g id="Group_1042" data-name="Group 1042" clip-path="url(#clip-path-13)">
                    <path id="Path_4031" data-name="Path 4031" d="M125.856,120.28a4,4,0,0,1-2.813-1.152,3.894,3.894,0,0,1-1.16-2.774l.08-36.835a3.947,3.947,0,0,1,3.973-3.912h8.255A11.817,11.817,0,0,1,146.071,87.33v.9a47.668,47.668,0,0,1-5.04,21.839c-3.266,6.308-6.944,10.216-15.175,10.216" transform="translate(-121.884 -75.607)" fill="#ffd4c3"/>
                  </g>
                </g>
              </g>
              <path id="Path_4032" data-name="Path 4032" d="M186.595,159.977,147.9,148.245a32.293,32.293,0,0,1-7.778-3.689L85.4,187.794v42.676H219.936a4.173,4.173,0,0,0,4.174-4.174v-15.74a52.556,52.556,0,0,0-37.515-50.58" transform="translate(36.038 61)" fill="#01417f"/>
              <path id="Path_4033" data-name="Path 4033" d="M142.6,146.111a32.638,32.638,0,0,1-4.176-2.931l-2.653-2.311-54.65,43.181a4.166,4.166,0,0,0-1.59,3.278v44.7h8.347V189.35Z" transform="translate(33.56 59.444)" fill="#6ccc8d"/>
              <path id="Path_4034" data-name="Path 4034" d="M142.006,149.356l-7.322-6.375V124.935a4.173,4.173,0,0,0-4.172-4.175H74.985a4.173,4.173,0,0,0-4.172,4.175v18.046l-6.059,5.274,39.3,31.092Z" transform="translate(27.325 50.958)" fill="#ffd4c3"/>
              <path id="Path_4035" data-name="Path 4035" d="M142.006,149.356l-7.322-6.375V124.935a4.173,4.173,0,0,0-4.172-4.175H74.985a4.173,4.173,0,0,0-4.172,4.175v18.046l-6.059,5.274,39.3,31.092Z" transform="translate(27.325 50.958)" fill="#ffd4c3"/>
              <path id="Path_4036" data-name="Path 4036" d="M92.079,140.1l-3.918,3.411a32.7,32.7,0,0,1-2.767,1.942,32.232,32.232,0,0,1-9.183,4.677l-38.7,11.733A52.555,52.555,0,0,0,0,212.439v15.74a4.173,4.173,0,0,0,4.174,4.174H113.092v-44.7a4.166,4.166,0,0,1,1.59-3.278l9.965-7.872,6.729-5.318Z" transform="translate(0 59.118)" fill="#01417f"/>
              <path id="Path_4037" data-name="Path 4037" d="M107.585,163.125a35.416,35.416,0,0,1-18.759-5.412c-15.787-9.847-34.608-25.428-34.608-43.724V74.8a4.173,4.173,0,0,1,4.174-4.174h98.387a4.173,4.173,0,0,1,4.173,4.174v39.187c0,18.3-18.821,33.877-34.608,43.724a35.4,35.4,0,0,1-18.759,5.412" transform="translate(22.879 29.804)" fill="#ffd4c3"/>
              <path id="Path_4038" data-name="Path 4038" d="M180.324,73.895c2.467-5.465,6.178-10.18,10.17-14.652a32.093,32.093,0,0,0-46.172-44.525,33.256,33.256,0,0,0-55.628.624,32.056,32.056,0,0,0-32.3-8.236A31.488,31.488,0,0,0,37.216,23.237a32.225,32.225,0,0,0,4.627,35.892c4.09,4.624,7.923,9.469,10.5,15.08l3.883,8.458H176.365Z" transform="translate(14.244)" fill="#6ccc8d"/>
              <path id="Path_4039" data-name="Path 4039" d="M162.919,80.049,169.7,58.135H49.557l6.628,21.947Z" transform="translate(20.912 24.532)" fill="#01417f"/>
              <path id="Path_4040" data-name="Path 4040" d="M94.772,183.987a5.885,5.885,0,1,1,5.886,5.884,5.885,5.885,0,0,1-5.886-5.884" transform="translate(39.992 75.155)" fill="#fff"/>
              <path id="Path_4041" data-name="Path 4041" d="M94.772,197.871a5.885,5.885,0,1,1,5.886,5.884,5.885,5.885,0,0,1-5.886-5.884" transform="translate(39.992 81.014)" fill="#fff"/>
            </g>
          </g>
        </g>
      </g>
      <g id="fork" transform="matrix(0.914, -0.407, 0.407, 0.914, 677.439, 341.416)">
        <path id="Path_4042" data-name="Path 4042" d="M2.515,0,0,62.016H11.9L9.325,0Z" transform="translate(22.1 0)" fill="#6ccc8d"/>
        <g id="Group_1050" data-name="Group 1050" transform="translate(0 0.001)">
          <g id="Group_1049" data-name="Group 1049" clip-path="url(#clip-path-14)">
            <path id="Path_4043" data-name="Path 4043" d="M28.05,73.771C12.583,73.771,0,61.518,0,46.455L2.19,0h5.9l.924,25.482c0,13.715,7.35,23.685,19.035,23.685s19-10.247,19-23.685L47.943,0h5.93L56.1,46.455c0,15.063-12.583,27.316-28.048,27.316" transform="translate(0 0)" fill="#6ccc8d"/>
            <rect id="Rectangle_393" data-name="Rectangle 393" width="10.285" height="41.923" transform="translate(22.907 70.432)" fill="#6ccc8d"/>
            <path id="Path_4044" data-name="Path 4044" d="M11.078,125.847A10.948,10.948,0,0,1,0,115.058V3.392A3.386,3.386,0,0,1,3.416.052L18.716,0a4.668,4.668,0,0,1,2.432.975A3.3,3.3,0,0,1,22.156,3.34V115.058a10.949,10.949,0,0,1-11.079,10.789" transform="translate(16.972 109.015)" fill="#01417f"/>
          </g>
        </g>
      </g>
      <g id="knife" transform="matrix(0.799, -0.602, 0.602, 0.799, 1311.275, 36.254)">
        <g id="Group_1052" data-name="Group 1052" clip-path="url(#clip-path-15)">
          <path id="Path_4045" data-name="Path 4045" d="M35.63.293A3.608,3.608,0,0,0,31.714,1C7.579,24.04.063,36.358.063,68.51c0,.524-1.844,43.967,14.406,54.656l1.3,3.005h.34a7.974,7.974,0,0,0,1.187.519l.116-.519H30.6v2.44h7.226v-125A3.612,3.612,0,0,0,35.63.293" transform="translate(-0.001 0)" fill="#6ccc8d"/>
          <path id="Path_4046" data-name="Path 4046" d="M9.7,136.028c-5.741-.946-9.7-6.353-9.7-12.17V0H23.354V124.515A11.691,11.691,0,0,1,9.7,136.028" transform="translate(14.468 123.166)" fill="#01417f"/>
        </g>
      </g>
      <g id="turkey" transform="translate(869.243 265.463) rotate(9)">
        <g id="Group_1057" data-name="Group 1057" clip-path="url(#clip-path-16)">
          <path id="Path_4049" data-name="Path 4049" d="M13.783,44.926a3.56,3.56,0,0,1-2.516-1.035L1.042,33.721a3.524,3.524,0,0,1,.025-5.028L12.4,17.644A11.975,11.975,0,0,1,14.542,3.518a12.151,12.151,0,0,1,17.1,0,11.574,11.574,0,0,1,3.335,6.85,11.7,11.7,0,0,1,6.892,3.318,11.993,11.993,0,0,1,0,17.008A12.131,12.131,0,0,1,27.657,32.82L16.275,43.914a3.55,3.55,0,0,1-2.493,1.012m14.175-12.4-.008,0,.008,0" transform="translate(214.907 0)" fill="#6ccc8d"/>
          <path id="Path_4050" data-name="Path 4050" d="M16.184,52.753a4.185,4.185,0,0,1-2.954-1.217L1.224,39.6a4.138,4.138,0,0,1,.029-5.9L14.561,20.716A14.056,14.056,0,0,1,17.077,4.131a14.267,14.267,0,0,1,20.081,0,13.6,13.6,0,0,1,3.916,8.043,13.726,13.726,0,0,1,8.091,3.9,14.084,14.084,0,0,1,0,19.972,14.244,14.244,0,0,1-16.688,2.5L19.11,51.563a4.168,4.168,0,0,1-2.927,1.19M32.828,38.192l-.008,0,.008,0" transform="translate(272.596 19.932)" fill="#6ccc8d"/>
          <path id="Path_4051" data-name="Path 4051" d="M53.317,39.444a4.615,4.615,0,0,1-.483-.026L3.908,34.028a4.362,4.362,0,0,1-1.453-8.26C13.894,20.182,29.836,11.578,40.82,2.312a10.193,10.193,0,0,1,13.656.661l9.94,9.884a10.039,10.039,0,0,1,.646,13.607,100.9,100.9,0,0,0-8.049,10.968,4.4,4.4,0,0,1-3.7,2.012" transform="translate(169.458 22.58)" fill="#ffd4c3"/>
          <path id="Path_4052" data-name="Path 4052" d="M263.123,128.477h-.005L7.751,128.141A3.925,3.925,0,0,1,4.8,126.8c-7.96-9.085-4.271-18.7-1.306-26.429,1.465-3.82,2.847-7.425,2.847-10.585,0-23.109,19.815-45.913,55.8-64.206C93.166,9.8,131.595,0,162.423,0c23.618,0,46.207,5.794,65.322,16.757a4.043,4.043,0,0,1,.672.485l31.7,28.506a3.887,3.887,0,0,1,.6.689,76.3,76.3,0,0,1,13.9,43.351,94.77,94.77,0,0,1-7.881,36.314,3.923,3.923,0,0,1-3.611,2.375" transform="translate(15.677 49.14)" fill="#6ccc8d"/>
          <path id="Path_4053" data-name="Path 4053" d="M19.406,138.725c-2.84,0-5.631-.021-8.349-.046l-2.334-.016A4.174,4.174,0,0,1,4.618,135.1L.734,108.32A70.475,70.475,0,0,1,43.681,33.062v0c20.977-8.674,44.5-18.887,58.15-30.336a11.83,11.83,0,0,1,15.836.666l12.939,12.869a11.543,11.543,0,0,1,.756,15.645c-13.113,15.271-24.054,37.824-33.706,57.721C89.58,106.27,83.2,119.419,77.03,125.43c-12.366,12.056-36.267,13.295-57.624,13.295" transform="translate(161.591 49.794)" fill="#ffd4c3"/>
          <path id="Path_4054" data-name="Path 4054" d="M39.962,36.069c-10.9,0-22.5-.916-30.913-9.434A31.7,31.7,0,0,1,0,4.174a4.216,4.216,0,0,1,1.15-2.9A4.075,4.075,0,0,1,3.925,0H302.932a3.913,3.913,0,0,1,3.925,3.9v.446a30.566,30.566,0,0,1-7.189,20.3C289.61,36.085,274.011,36.038,260.271,36L48.9,36l-4.45.034c-1.475.02-2.979.035-4.492.035" transform="translate(0 170.485)" fill="#01417f"/>
        </g>
      </g>
      <g id="thermometer" transform="translate(1204.464 66.219) rotate(6)">
        <g id="Group_1065" data-name="Group 1065" clip-path="url(#clip-path-17)">
          <path id="Path_4065" data-name="Path 4065" d="M26.773,193.72h0C12.048,193.72,0,182.511,0,168.812V24.907C0,11.209,12.048,0,26.773,0S53.545,11.209,53.545,24.907v143.9c0,13.7-12.048,24.907-26.773,24.907" transform="translate(0.002)" fill="#6ccc8d"/>
          <path id="Path_4066" data-name="Path 4066" d="M0,92.115a6.183,6.183,0,0,0,6.375,5.931,6.182,6.182,0,0,0,6.373-5.931V0H0Z" transform="translate(20.399 111.883)" fill="#01417f"/>
          <path id="Path_4067" data-name="Path 4067" d="M6.375,0A6.183,6.183,0,0,0,0,5.931v85H12.748v-85A6.181,6.181,0,0,0,6.375,0" transform="translate(20.399 20.954)" fill="#ffd4c3"/>
          <rect id="Rectangle_404" data-name="Rectangle 404" width="12.964" height="2.902" transform="translate(0 32.944)" fill="#01417f"/>
          <rect id="Rectangle_405" data-name="Rectangle 405" width="12.964" height="2.902" transform="translate(40.585 32.944)" fill="#01417f"/>
          <rect id="Rectangle_406" data-name="Rectangle 406" width="12.964" height="2.902" transform="translate(0 164.99)" fill="#01417f"/>
          <rect id="Rectangle_407" data-name="Rectangle 407" width="12.964" height="2.902" transform="translate(40.585 164.99)" fill="#01417f"/>
          <rect id="Rectangle_408" data-name="Rectangle 408" width="12.964" height="2.902" transform="translate(40.585 146.127)" fill="#01417f"/>
          <rect id="Rectangle_409" data-name="Rectangle 409" width="12.964" height="2.902" transform="translate(0 146.127)" fill="#01417f"/>
          <rect id="Rectangle_410" data-name="Rectangle 410" width="12.964" height="2.902" transform="translate(0 127.262)" fill="#01417f"/>
          <rect id="Rectangle_411" data-name="Rectangle 411" width="12.964" height="2.902" transform="translate(40.585 127.262)" fill="#01417f"/>
          <rect id="Rectangle_412" data-name="Rectangle 412" width="12.964" height="2.902" transform="translate(0 108.399)" fill="#01417f"/>
          <rect id="Rectangle_413" data-name="Rectangle 413" width="12.964" height="2.902" transform="translate(40.585 108.399)" fill="#01417f"/>
          <rect id="Rectangle_414" data-name="Rectangle 414" width="12.964" height="2.902" transform="translate(40.585 89.535)" fill="#01417f"/>
          <rect id="Rectangle_415" data-name="Rectangle 415" width="12.964" height="2.902" transform="translate(0 89.535)" fill="#01417f"/>
          <rect id="Rectangle_416" data-name="Rectangle 416" width="12.964" height="2.902" transform="translate(40.585 70.672)" fill="#01417f"/>
          <rect id="Rectangle_417" data-name="Rectangle 417" width="12.964" height="2.902" transform="translate(0 70.672)" fill="#01417f"/>
          <rect id="Rectangle_418" data-name="Rectangle 418" width="12.964" height="2.902" transform="translate(0 51.807)" fill="#01417f"/>
          <rect id="Rectangle_419" data-name="Rectangle 419" width="12.964" height="2.902" transform="translate(40.585 51.807)" fill="#01417f"/>
          <path id="Path_4068" data-name="Path 4068" d="M0,92.115a6.183,6.183,0,0,0,6.375,5.931,6.182,6.182,0,0,0,6.373-5.931V0H0Z" transform="translate(20.399 51.19)" fill="#01417f"/>
        </g>
      </g>
    </g>
  </g>
</svg>
