<svg version="1.2" xmlns="http://www.w3.org/2000/svg" viewBox="0 0 500 648" width="500" height="648">
	<title>justsafefood-marquee-S-svg</title>
	<defs>
		<clipPath clipPathUnits="userSpaceOnUse" id="cp1">
			<path d="m0-177h500v825h-500z"/>
		</clipPath>
		<clipPath clipPathUnits="userSpaceOnUse" id="cp2">
			<path d="m397.01 463.43v184.57h-396.75v-184.57z"/>
		</clipPath>
		<clipPath clipPathUnits="userSpaceOnUse" id="cp3">
			<path d="m500-152v532.93h-500v-532.93z"/>
		</clipPath>
		<clipPath clipPathUnits="userSpaceOnUse" id="cp4">
			<path d="m-0.53 332.55l108.64 5.69-5.47 104.32-108.64-5.69z"/>
		</clipPath>
		<clipPath clipPathUnits="userSpaceOnUse" id="cp5">
			<path d="m-0.53 332.55l108.64 5.69-5.47 104.32-108.64-5.69z"/>
		</clipPath>
		<clipPath clipPathUnits="userSpaceOnUse" id="cp6">
			<path d="m27.16 379.3l24.19 1.27-0.49 9.5-24.2-1.27z"/>
		</clipPath>
		<clipPath clipPathUnits="userSpaceOnUse" id="cp7">
			<path d="m165.52 490.58l33.94 20.39-68.44 113.91-33.94-20.39z"/>
		</clipPath>
		<clipPath clipPathUnits="userSpaceOnUse" id="cp8">
			<path d="m368.2 473.26l129.34-20.48 19.28 121.77-129.33 20.48z"/>
		</clipPath>
		<clipPath clipPathUnits="userSpaceOnUse" id="cp9">
			<path d="m88.42 187.65h139.23v120.7h-139.23z"/>
		</clipPath>
		<clipPath clipPathUnits="userSpaceOnUse" id="cp10">
			<path d="m219.87 490.58h140.5v157.42h-140.5z"/>
		</clipPath>
		<clipPath clipPathUnits="userSpaceOnUse" id="cp11">
			<path d="m219.87 490.58h140.5v157.42h-140.5z"/>
		</clipPath>
		<clipPath clipPathUnits="userSpaceOnUse" id="cp12">
			<path d="m254.17 548.64h13.07v24.13h-13.07z"/>
		</clipPath>
		<clipPath clipPathUnits="userSpaceOnUse" id="cp13">
			<path d="m313.48 548.64h13.06v24.13h-13.06z"/>
		</clipPath>
		<clipPath clipPathUnits="userSpaceOnUse" id="cp14">
			<path d="m39.34 171.37l29.39 7.33-30.68 123.08-29.4-7.33z"/>
		</clipPath>
		<clipPath clipPathUnits="userSpaceOnUse" id="cp15">
			<path d="m384.52 469.52l-16.32-12.3 84.32-111.92 16.32 12.3z"/>
		</clipPath>
		<clipPath clipPathUnits="userSpaceOnUse" id="cp16">
			<path d="m165.72 338.57l173.86 27.54-17.45 110.18-173.86-27.53z"/>
		</clipPath>
		<clipPath clipPathUnits="userSpaceOnUse" id="cp17">
			<path d="m261.36 222.79l28.76 3.02-11.85 112.76-28.76-3.02z"/>
		</clipPath>
	</defs>
	<style>
		.s0 { fill: #ffffff } 
		.s1 { fill: #f6fcf8 } 
		.s2 { fill: #01417f } 
		.s3 { fill: #6ccc8d } 
		.s4 { fill: #232323 } 
		.s5 { fill: #ffd4c3 } 
		.s6 { mix-blend-mode: multiply;fill: #ffd4c3 } 
	</style>
	<g id="Clip-Path: justsafefood-marquee-S" clip-path="url(#cp1)">
		<g id="justsafefood-marquee-S">
			<path id="Layer" class="s0" d="m0-177h500v825h-500z"/>
			<path id="bkgd" class="s1" d="m0-177h500v825h-500z"/>
			<path id="Rectangle_905" class="s2" d="m0-177h500v41h-500z"/>
			<g id="shape-green">
				<g id="Clip-Path: Group_1030" clip-path="url(#cp2)">
					<g id="Group_1030">
						<path id="Path_4008" class="s3" d="m397 648c-57-167.5-221.9 15.4-260.8-95.3-34.9-85.3-81.4-100.1-135.9-83v178.3z"/>
					</g>
				</g>
			</g>
			<g id="Clip-Path: shape-blue" clip-path="url(#cp3)">
				<g id="shape-blue">
					<path id="Path_4009" class="s2" d="m500 373.1c-227.1 67.4-254.7-325.8-500-167.1v-437h500z"/>
				</g>
			</g>
			<g id="hands">
				<g id="Clip-Path: Group_1064" clip-path="url(#cp4)">
					<g id="Group_1064">
						<g id="Group_1063">
							<g id="Clip-Path: Group_1062" clip-path="url(#cp5)">
								<g id="Group_1062">
									<path id="Path_4055" class="s3" d="m76.4 356.9l0.8-14.8-15.3-0.8-1.4 1.9-6.1-0.4 0.4-7.4 28.6 1.5q0.1 0.1 0.3 0.1 0.1 0.1 0.2 0.2 0.1 0.1 0.1 0.2 0 0.1 0 0.2l-1 19.7z"/>
									<path id="Path_4056" class="s2" d="m65.7 362.5l0.3-5.3q0-0.4 0.1-0.8 0.2-0.4 0.5-0.7 0.3-0.3 0.7-0.5 0.4-0.2 0.9-0.2l22.7 1.2q0.4 0.1 0.8 0.3 0.4 0.2 0.7 0.5 0.2 0.3 0.4 0.8 0.1 0.4 0 0.8l-0.2 5.3q0 0.3-0.2 0.6-0.1 0.2-0.3 0.4-0.2 0.2-0.5 0.3-0.3 0.1-0.6 0.1l-23.9-1.2q-0.3-0.1-0.6-0.2-0.2-0.1-0.4-0.3-0.2-0.3-0.3-0.5-0.1-0.3-0.1-0.6z"/>
									<path id="Path_4057" class="s4" d=""/>
									<path id="Path_4058" class="s3" d="m50.7 376.9c0.3-4.3 3.1-10.1 6.6-12.7q1.1-0.8 2.4-1.4 1.3-0.6 2.6-1 1.4-0.4 2.8-0.6 1.4-0.1 2.8 0l22.6 1.1q1.7 0.1 3.2 0.5 1.6 0.4 3 1.1 1.5 0.7 2.8 1.6 1.3 1 2.4 2.1c2.5 2.8 4.2 8.3 4 12.1l-2.6 49.7-55.1-2.9-0.7 11.7z"/>
									<path id="Path_4059" class="s4" d=""/>
									<path id="Path_4060" class="s2" d="m103.3 429.4l-0.6 11.7q0 0.3-0.1 0.6-0.1 0.2-0.4 0.4-0.2 0.2-0.5 0.3-0.2 0.1-0.5 0.1l-52.3-2.8q-0.3 0-0.5-0.1-0.3-0.1-0.5-0.3-0.2-0.3-0.3-0.5-0.1-0.3-0.1-0.6l0.7-11.7z"/>
									<path id="Path_4061" class="s2" d="m77.8 388.4q0.3 0 0.6 0.1 0.2 0.2 0.4 0.4 0.2 0.2 0.3 0.5 0.1 0.2 0.1 0.5l-1.4 27.2q0 0.3-0.2 0.6-0.1 0.3-0.3 0.5-0.2 0.1-0.5 0.2-0.3 0.1-0.6 0.1l-27.6-1.4 1.6-30.2z"/>
									<path id="Rectangle_399" class="s0" d="m49.8 395.3l18.3 1-0.2 4.4-18.3-1z"/>
									<path id="Rectangle_400" class="s0" d="m49.3 404.3l18.3 1-0.2 4.4-18.3-1z"/>
									<path id="Path_4062" class="s5" d="m-3.2 418q-0.4 0-0.7-0.2-0.3-0.1-0.5-0.4-0.3-0.2-0.4-0.5-0.1-0.4-0.1-0.7l1.5-29.9q0-0.2 0.1-0.4 0-0.2 0.1-0.3 0.1-0.2 0.3-0.4 0.1-0.2 0.2-0.3l19.2-14.8q1-0.9 2.2-1.5 1.2-0.6 2.5-0.9 1.3-0.4 2.7-0.5 1.3-0.1 2.7 0l14 1.6c1.4 0.1 2.8 0.6 4 1.4 1.1 0.8 2.1 1.9 2.7 3.2 0.6 1.3 1 2.7 0.9 4.1 0 1.4-0.4 2.8-1.1 4q2.8-0.4 5.4-1.2 2.7-0.8 5.3-1.9 2.5-1.1 5-2.5 2.4-1.4 4.6-3.2l3.6-2.8q1.2-0.9 2.6-1.3 1.4-0.4 2.8-0.2 1.5 0.2 2.8 0.9 1.2 0.8 2.1 1.9 0.9 1.2 1.3 2.6 0.4 1.4 0.2 2.9-0.2 1.4-0.9 2.7-0.7 1.3-1.9 2.2l-1.7 1.3q-4.9 3.8-10.3 7-5.5 3.1-11.2 5.5-5.8 2.4-11.9 4-6 1.6-12.2 2.3l-9.4 1.2q-1.1 0.1-2.1 0.4-1 0.2-2 0.6-0.9 0.4-1.9 1-0.9 0.5-1.7 1.1l-17.7 11.7q-0.1 0.1-0.2 0.1-0.2 0.1-0.3 0.1-0.1 0.1-0.3 0.1-0.2 0-0.3 0z"/>
									<path id="Path_4063" class="s5" d="m56.4 366.7q-1.5-0.1-2.8-0.7-1.3-0.6-2.3-1.7-0.9-1.1-1.4-2.4-0.5-1.4-0.4-2.9c0.2-3.4 5.4-10.3 6.5-11.7q0.3-0.3 0.6-0.5 0.4-0.1 0.8-0.1 0.4 0 0.8 0.2 0.4 0.2 0.6 0.6c0.9 1.4 5.4 8.8 5.2 12.3q0 1.4-0.7 2.8-0.6 1.3-1.7 2.2-1 1-2.4 1.5-1.4 0.5-2.8 0.4z"/>
									<g id="Group_1061" style="opacity: .4">
										<g id="Group_1060">
											<g id="Clip-Path: Group_1059" clip-path="url(#cp6)">
												<g id="Group_1059">
													<path id="Path_4064" class="s6" d="m39.1 389.5q2 0 4-0.5 2-0.6 3.7-1.8 1.6-1.3 2.8-2.9 1.2-1.7 1.8-3.7c-1.5 0.3-2.9 0.7-4.3 0.9q0 0 0 0-0.6 1-1.4 1.9-0.8 0.8-1.9 1.4-1 0.5-2.2 0.8-1.1 0.3-2.3 0.2l-12.2-1.2-0.4 3.6 11.8 1.2z"/>
												</g>
											</g>
										</g>
									</g>
								</g>
							</g>
						</g>
					</g>
				</g>
			</g>
			<g id="spoon">
				<path id="Rectangle_396" class="s3" d="m153.8 542.4l5.4 3.3-8.1 13.4-5.4-3.3z"/>
				<g id="Group_1055">
					<g id="Clip-Path: Group_1054" clip-path="url(#cp7)">
						<g id="Group_1054">
							<path id="Path_4047" class="s3" d="m155.4 545.8c-2.2-1.3-4.1-3.1-5.7-5.2-1.5-2.1-2.6-4.4-3.3-7-0.6-2.5-0.7-5.1-0.3-7.7 0.3-2.6 1.2-5 2.6-7.3 5.6-9.3 24.2-23.6 33.8-17.8 9.6 5.8 5.7 28.9 0.1 38.2-1.3 2.3-3.1 4.2-5.2 5.8-2.1 1.5-4.5 2.6-7 3.2-2.5 0.7-5.1 0.8-7.7 0.4-2.6-0.4-5-1.2-7.3-2.6z"/>
							<path id="Path_4048" class="s2" d="m114 614.7q-1-0.6-1.7-1.6-0.7-0.9-1-2.1-0.3-1.1-0.1-2.3 0.2-1.2 0.8-2.2l31.9-53q0.2-0.4 0.4-0.6 0.3-0.2 0.7-0.3 0.4-0.1 0.7 0 0.4 0 0.7 0.2l7.1 4.3q0.1 0.1 0.3 0.2 0.1 0.1 0.2 0.3 0.1 0.1 0.2 0.3 0.1 0.1 0.1 0.3 0.1 0.2 0.1 0.4 0 0.1 0 0.3-0.1 0.2-0.1 0.4-0.1 0.1-0.2 0.3l-31.8 53q-0.7 1.1-1.6 1.8-1 0.7-2.1 1-1.2 0.2-2.4 0.1-1.1-0.2-2.2-0.8z"/>
						</g>
					</g>
				</g>
			</g>
			<g id="veggies">
				<g id="Clip-Path: Group_1035" clip-path="url(#cp8)">
					<g id="Group_1035">
						<path id="Path_4010" class="s3" d="m486.9 483.4q-0.2 0-0.4 0-0.2 0-0.4-0.1-0.3-0.1-0.4-0.2-0.2-0.2-0.4-0.4 0 0 0 0-0.2-0.2-0.3-0.4c-2.3-2.8-6.8-3.9-10.8-4.8q-0.8-0.2-1.6-0.4-0.8-0.2-1.6-0.4-0.8-0.3-1.6-0.6-0.7-0.3-1.5-0.6-0.9-0.5-1.7-1.1-0.9-0.7-1.5-1.5-0.7-0.8-1.1-1.7-0.5-1-0.8-2-0.1-0.6-0.1-1.2 0-0.7 0.1-1.3 0.1-0.7 0.4-1.2 0.3-0.6 0.6-1.1c3.3-4.3 8.1-0.7 11 1.5 0.1 0.1 8.6 8.7 12.1 13.4q0.4 0.4 0.7 0.8l0.4 0.5-0.1 0.1q0.1 0.1 0.2 0.3 0.1 0.2 0.1 0.3 0.1 0.2 0.1 0.4 0.1 0.2 0.1 0.3 0 0.3-0.2 0.5-0.1 0.2-0.2 0.4-0.2 0.2-0.4 0.3-0.2 0.1-0.5 0.2-0.1 0-0.2 0z"/>
						<path id="Rectangle_385" class="s2" d="m478 458.4l5.1-0.8 3.1 19.3-5.2 0.8z"/>
						<path id="Path_4011" class="s2" d="m456 584.2c0 0-0.3 0-0.4 0-3.2 0.5-6.5 0.4-9.7-0.3-3.1-0.7-6.1-2.1-8.8-4-2.6-1.9-4.8-4.3-6.6-7.1-1.7-2.7-2.8-5.8-3.3-9l-4.1-68.1q-0.1-0.2 0-0.5 0.1-0.2 0.2-0.5 0.2-0.2 0.3-0.4 0.2-0.1 0.5-0.3l16.1-7.2q0.1 0 0.2-0.1 0.1 0 0.2 0 0.1 0 0.2 0 0.2 0 0.3 0l16.8 2q0.3 0 0.5 0.1 0.3 0.1 0.5 0.3 0.2 0.2 0.3 0.4 0.2 0.2 0.2 0.5l17.1 65.8c0.5 3.2 0.4 6.5-0.3 9.6-0.8 3.2-2.1 6.2-4 8.8-1.9 2.7-4.3 4.9-7.1 6.6-2.8 1.7-5.8 2.9-9.1 3.4z"/>
						<path id="Rectangle_386" class="s2" d="m434.2 462.8l5.2-0.8 1.9 12.5-5.2 0.8z"/>
						<path id="Path_4012" class="s5" d="m428.7 588.5q-0.7 0.1-1.3 0.2-0.7 0.1-1.4 0.1-0.7 0.1-1.4 0.1-0.6 0-1.3 0-0.4 0-1 0.1-0.3 0-0.6 0.1-0.3 0-0.6 0-0.3 0.1-0.7 0.2-0.3 0-0.6 0.1-0.5 0.1-0.9 0.2-1.8 0.6-3.6 1-1.8 0.4-3.7 0.5-1.8 0.2-3.7 0.1-1.9-0.1-3.7-0.4-1.6-0.3-3.1-0.9-1.4-0.5-2.8-1.2-1.5-0.8-2.7-1.7-1.3-0.9-2.5-2-1.1-1.1-2.1-2.3-1.1-1.2-2-2.5-0.9-1.3-1.6-2.7-0.8-1.4-1.5-2.9-0.6-1.5-1.2-3-0.6-1.6-1-3.2-0.5-1.6-0.8-3.2-0.4-1.6-0.6-3.2-0.3-1.7-0.4-3.3-0.1-1.7-0.1-3.4 0.1-1.7 0.4-3.3 0.2-1.7 0.7-3.3 0.3-1.3 0.8-2.5 0.6-1.2 1.2-2.4 0.7-1.1 1.5-2.2 0.8-1 1.8-2 0.1-0.1 0.2-0.2 0.1-0.1 0.2-0.1 0.2-0.1 0.3-0.2 0.1 0 0.3 0l46.7-7.4q0.2 0 0.3 0 0.2 0 0.3 0 0.1 0 0.3 0.1 0.1 0 0.3 0.1 1.1 0.6 2.2 1.3 1.1 0.8 2.1 1.7 1 0.9 1.9 1.9 0.9 1 1.6 2.1 0.9 1.4 1.7 2.9 0.7 1.5 1.3 3.1 0.6 1.5 1 3.1 0.4 1.7 0.7 3.3 0.3 1.6 0.4 3.3 0.2 1.6 0.2 3.3 0.1 1.6 0 3.3 0 1.7-0.2 3.3-0.2 1.6-0.5 3.1-0.3 1.6-0.7 3.1-0.5 1.5-1.1 3-0.6 1.5-1.4 2.9-0.7 1.4-1.6 2.6-1 1.3-2.1 2.4-1.1 1.2-2.3 2.1-1.3 1-2.7 1.8-1 0.6-2.1 1-1.1 0.5-2.2 0.9-1.1 0.4-2.3 0.7-1.1 0.2-2.3 0.4z"/>
						<path id="Path_4013" class="s2" d="m409.1 530.3c-0.7-2.8-2.3-9.6-1.1-12.6l4.9 1.9c-0.4 1 0.2 5.4 1.3 9.4z"/>
						<path id="Path_4014" class="s3" d="m437.6 531.1c-0.1 0-6.1-2.3-12.8-4.5-0.4-0.2-9-3.6-13.8 0.9q-0.9-0.2-1.8-0.4-0.9-0.1-1.7-0.1-0.9 0-1.8 0.2-0.9 0.1-1.7 0.4-1.3 0.4-2.6 0.8-1.3 0.5-2.5 1.1-1.2 0.6-2.3 1.3-1.2 0.8-2.2 1.6-1.1 0.8-2.1 1.6-1.1 0.9-2.1 1.7-1 0.9-2 1.8-0.9 0.9-1.9 1.8-0.3 0.3-0.4 0.7-0.2 0.4-0.1 0.8 0 0.4 0.3 0.7 0.2 0.4 0.6 0.6c2.1 1.2 9.3 0.5 13.8-2 1 3.5 2.7 7.6 2.8 7.8q0.2 0.5 0.6 0.8 0.4 0.2 0.8 0.3 0.5 0.1 1-0.1 0.4-0.2 0.7-0.6 0.7-1.1 1.5-2.1 0.8-1.1 1.6-2.1 0.8-0.9 1.7-1.9 0.9-0.9 1.8-1.9c2.8 1.1 7.4 2.7 7.4 2.7q0.4 0.1 0.8 0.1 0.4-0.1 0.7-0.3 0.4-0.2 0.6-0.6 0.2-0.3 0.2-0.7 0.1-0.7 0.2-1.3 0.1-0.7 0.3-1.3 0.2-0.6 0.4-1.2 0.2-0.6 0.5-1.2c4.9 1.2 12.2-0.6 14.1-2.6q0.3-0.3 0.4-0.7 0.1-0.4 0-0.9-0.1-0.4-0.4-0.7-0.2-0.4-0.6-0.5z"/>
						<path id="Path_4015" class="s3" d="m442.3 497.9q-0.7 0.1-1.4 0.1-0.7-0.1-1.4-0.2-0.7-0.2-1.3-0.5-0.7-0.3-1.2-0.7-0.3-0.2-0.7-0.4-0.3-0.1-0.7-0.2-0.3-0.1-0.7-0.1-0.4 0-0.7 0l-10.4 1.7q-0.4 0-0.9 0-0.5 0-0.9-0.1-0.4-0.2-0.8-0.4-0.4-0.2-0.8-0.5-0.4-0.3-0.6-0.7-0.3-0.3-0.5-0.8-0.2-0.4-0.3-0.8-0.1-0.5-0.2-1c-0.1-8.5 2.4-15.5 6.8-18.7 2.1-1.5 5.8-2.9 11.2-1 0.7 0.3 2.1-0.2 3.4-0.6q0.7-0.2 1.3-0.4 0.7-0.2 1.4-0.4 0.7-0.1 1.4-0.1 0.7-0.1 1.4-0.1c8.9 0.7 15 5.6 17.6 14.3q0.2 0.4 0.2 0.9 0.1 0.5 0 0.9-0.1 0.5-0.2 0.9-0.2 0.5-0.4 0.9-0.3 0.4-0.6 0.7-0.3 0.3-0.7 0.6-0.4 0.2-0.8 0.4-0.4 0.2-0.9 0.2l-10.3 1.6q-0.4 0.1-0.7 0.2-0.4 0.1-0.7 0.3-0.3 0.2-0.6 0.5-0.2 0.2-0.5 0.5-0.4 0.6-0.9 1.1-0.5 0.5-1.2 0.9-0.6 0.4-1.3 0.6-0.7 0.3-1.4 0.4z"/>
						<path id="Path_4016" class="s5" d="m499.4 577.3c-11.7 1.9-31.2-84.5-31.3-85.3-1.2-7.4 5.7-14.6 15.3-16.1 9.6-1.5 18.3 3.2 19.5 10.5 0.1 0.9 8.2 89-3.5 90.9z"/>
						<path id="Path_4017" class="s3" d="m470.5 499.1q-0.3 0.3-0.6 0.5 0.4 1.9 0.9 4 0.3-0.2 0.5-0.5 0.2-0.2 0.4-0.4 0.3-0.3 0.5-0.5 0.2-0.2 0.5-0.4 1-0.8 2-1.4 1-0.6 2.1-1.1 1.2-0.5 2.3-0.9 1.2-0.4 2.4-0.6l-0.7-3.4q-1.4 0.2-2.8 0.7-1.4 0.4-2.7 1-1.3 0.6-2.5 1.3-1.2 0.8-2.3 1.7z"/>
						<path id="Path_4018" class="s3" d="m472.6 510.8q0.6 2 1.1 4.2c1.6-2.6 4.7-4.8 8.9-6.3l-1.2-3.3q-1.2 0.4-2.4 0.9-1.2 0.6-2.3 1.3-1.1 0.7-2.1 1.5-1 0.8-2 1.7z"/>
						<path id="Path_4019" class="s3" d="m475.6 522.1q0.5 1.9 1.1 3.8c0.1-0.1 0.2-0.3 0.4-0.5q0.9-0.8 1.9-1.5 1-0.7 2.1-1.3 1-0.6 2.2-1 1.1-0.5 2.3-0.8l-1-3.4q-1.2 0.4-2.4 0.8-1.2 0.5-2.3 1.1-1.2 0.6-2.2 1.3-1.1 0.7-2.1 1.5z"/>
						<path id="Path_4020" class="s3" d="m478.9 533.9q0.6 2.1 1.2 4.1c1.7-2.5 4.6-4.7 8.7-6.1l-1.1-3.3q-1.3 0.4-2.4 0.9-1.2 0.6-2.3 1.3-1.1 0.6-2.1 1.4-1 0.8-2 1.7z"/>
						<path id="Path_4021" class="s3" d="m484.9 543.9q-0.3 0.2-0.6 0.4-0.3 0.2-0.6 0.4-0.3 0.2-0.6 0.5-0.3 0.2-0.6 0.5 0.7 1.9 1.3 3.8 0.3-0.4 0.6-0.8 0.4-0.3 0.7-0.7 0.4-0.3 0.8-0.6 0.4-0.3 0.8-0.6 0.5-0.3 1.1-0.5 0.5-0.3 1.1-0.5 0.5-0.3 1.1-0.5 0.5-0.1 1.1-0.3l-0.9-3.4q-0.7 0.2-1.4 0.4-0.6 0.3-1.3 0.5-0.7 0.3-1.3 0.7-0.7 0.3-1.3 0.7z"/>
						<path id="Path_4022" class="s3" d="m494 555.1q-1 0.3-1.9 0.7-0.8 0.4-1.7 0.9-0.8 0.6-1.6 1.1-0.8 0.6-1.5 1.3 0.7 1.9 1.4 3.6 0.6-0.8 1.4-1.4 0.7-0.7 1.5-1.2 0.9-0.6 1.8-1 0.8-0.4 1.8-0.7z"/>
					</g>
				</g>
			</g>
			<g id="steak">
				<g id="Clip-Path: Group_1037" clip-path="url(#cp9)">
					<g id="Group_1037">
						<path id="Path_4023" class="s2" d="m123.1 308.3c-12.4 0-24.1-3.7-30.3-9.8-3-3-4.5-6.3-4.4-9.6v-23.3q0-0.3 0.1-0.6 0.1-0.3 0.3-0.6 0.2-0.2 0.4-0.4 0.3-0.2 0.6-0.3l135.1-49.6q0.5-0.2 1-0.1 0.5 0 0.9 0.3 0.4 0.3 0.6 0.7 0.2 0.5 0.3 1v19.8q0 2.8-0.5 5.6-0.4 2.8-1.3 5.4-0.9 2.7-2.2 5.2-1.3 2.5-3 4.7c-11.2 14.3-29.7 27.7-56.5 41q-2.4 1.2-4.8 2.3-2.4 1-4.9 2-2.4 1-4.9 1.9-2.5 0.8-5.1 1.6c-5.5 1.6-9.8 2.3-17.8 2.7q-1.8 0.1-3.6 0.1z"/>
						<path id="Path_4024" fill-rule="evenodd" class="s4" d="m123.1 285c-12.4 0-24.1-3.8-30.3-9.9-3-3-4.5-6.3-4.4-9.6 0.3-5.5 3.4-9.7 9.8-12.9q0.1 0 0.1 0c0.3-0.1 23.9-9.6 24.1-32.4 0.2-11.8 8.9-22.6 22.2-27.6 8.8-3.2 19.5-5 30.9-5 16 0 31 3.5 41.2 9.5 9.9 5.8 13.6 17 8.7 26.6-9.2 17.9-29.8 35-61.2 50.6q-2.4 1.2-4.8 2.3-2.4 1.1-4.9 2-2.4 1-4.9 1.9-2.5 0.8-5.1 1.6c-5.5 1.6-9.8 2.3-17.8 2.8q-1.8 0.1-3.6 0.1zm-23.2-28.7c-6.4 3.2-7.3 6.9-7.4 9.4-0.1 2.7 1.6 5 3.1 6.5 5 4.9 16.5 9.4 30.9 8.6 7.6-0.4 11.7-1.1 16.9-2.6q2.5-0.7 4.9-1.6 2.4-0.8 4.8-1.7 2.3-1 4.7-2 2.3-1.1 4.6-2.2c30.6-15.3 50.6-31.7 59.4-48.9 3.9-7.7 1-16.4-7.2-21.2-9.5-5.7-23.8-8.9-39.1-8.9-10.9 0-21.1 1.6-29.5 4.7-11.7 4.4-19.4 13.7-19.5 23.8-0.3 24.8-24.8 35.4-26.6 36.1z"/>
						<path id="Path_4025" class="s3" d="m123 285c-12.8 0-24.5-4-30.6-10.3-2.7-2.9-4.1-6-4-9.2 0.3-5.5 3.4-9.8 9.8-12.9 0.4-0.1 24-9.6 24.2-32.4 0.2-11.8 8.9-22.6 22.2-27.6 8.8-3.2 19.5-5 30.9-5 16 0 31 3.5 41.2 9.5 9.9 5.8 13.6 17 8.7 26.6-9.2 17.9-29.8 35-61.2 50.6q-2.4 1.2-4.8 2.3-2.4 1.1-4.9 2-2.4 1-4.9 1.9-2.5 0.8-5.1 1.6c-5.5 1.6-9.8 2.3-17.8 2.8q-1.9 0.1-3.7 0.1z"/>
						<path id="Path_4026" class="s5" d="m134.4 265.3q-0.1 0.1-0.3 0.2-0.1 0-0.3 0.1-0.2 0-0.3 0.1-0.2 0.1-0.3 0.1c-5.8 1.8-11.6 3.1-14-1.7-2.4-4.6 2-8.9 6.6-12.5q1-0.7 2.1-1.3 1.1-0.5 2.4-0.8 1.2-0.3 2.4-0.3 1.3 0 2.5 0.2c1.1 0.2 2.1 0.6 3.1 1.2 0.9 0.6 1.6 1.5 2.1 2.5 0.5 0.9 0.8 2 0.8 3.1 0 1.1-0.3 2.2-0.8 3.2q-0.5 1-1.1 1.9-0.6 0.9-1.3 1.6-0.8 0.8-1.7 1.4-0.9 0.6-1.9 1z"/>
						<path id="Path_4027" fill-rule="evenodd" class="s5" d="m216.7 197.1c9.9 5.8 13.6 17 8.7 26.6-9.2 17.9-29.8 35-61.2 50.6q-2.4 1.2-4.8 2.3-2.4 1.1-4.9 2-2.4 1-4.9 1.9-2.5 0.8-5.1 1.6c-5.5 1.6-9.8 2.3-17.8 2.8q-1.9 0.1-3.7 0.1c-12.8 0-24.5-4-30.6-10.3-2.7-2.9-4.1-6-4-9.2 0.3-5.5 3.4-9.8 9.8-12.9 0.4-0.1 24-9.6 24.2-32.4 0.2-11.8 8.9-22.6 22.2-27.6 8.8-3.2 19.5-5 30.9-5 16 0 31 3.5 41.2 9.5zm-69.3 3.1c-10.2 3.8-16.8 11.7-16.9 20.1-0.3 26.4-24.9 38-29 39.7-4.9 2.5-4.9 4.7-5 5.9q0.1 0.4 0.2 0.9 0.1 0.4 0.4 0.8 0.2 0.4 0.5 0.8 0.3 0.4 0.6 0.7c4.6 4.7 14.3 7.8 24.8 7.8q1.6 0 3.2-0.1c7.4-0.5 11.2-1 16.1-2.5q2.3-0.7 4.7-1.5 2.3-0.8 4.6-1.7 2.3-0.9 4.5-1.9 2.3-1 4.5-2.2c29.8-14.8 49.2-30.6 57.6-47 2.9-5.7 0.6-12.3-5.6-16-9-5.2-22.5-8.3-37.1-8.3-10.4 0-20.2 1.6-28.1 4.5z"/>
					</g>
				</g>
			</g>
			<g id="chef">
				<g id="Clip-Path: Group_1047" clip-path="url(#cp10)">
					<g id="Group_1047">
						<g id="Group_1046">
							<g id="Clip-Path: Group_1045" clip-path="url(#cp11)">
								<g id="Group_1045">
									<path id="Path_4028" class="s5" d="m265.1 572.8c-4.5 0-6.4-2.1-8.2-5.5q-0.7-1.4-1.2-2.9-0.5-1.4-0.9-2.9-0.3-1.5-0.5-3-0.1-1.5-0.1-3v-0.5q0-1.3 0.5-2.5 0.5-1.1 1.4-2 0.9-0.9 2-1.4 1.2-0.5 2.5-0.5h4.4q0.5 0 0.9 0.2 0.3 0.2 0.7 0.5 0.3 0.3 0.4 0.6 0.2 0.4 0.2 0.9v19.9q0 0.2 0 0.4-0.1 0.2-0.1 0.4-0.1 0.2-0.2 0.3-0.1 0.2-0.3 0.4-0.1 0.1-0.3 0.2-0.2 0.1-0.4 0.2-0.2 0.1-0.4 0.1-0.2 0.1-0.4 0.1z"/>
									<path id="Path_4029" class="s5" d="m315.6 572.8q-0.2 0-0.4-0.1-0.2 0-0.4-0.1-0.2-0.1-0.4-0.2-0.1-0.1-0.3-0.2-0.1-0.2-0.3-0.4-0.1-0.1-0.2-0.3 0-0.2-0.1-0.4 0-0.2 0-0.5v-19.8q0-0.5 0.2-0.9 0.2-0.3 0.5-0.6 0.3-0.3 0.7-0.5 0.3-0.2 0.8-0.2h4.4q1.3 0 2.5 0.5 1.1 0.5 2 1.4 0.9 0.9 1.4 2 0.5 1.2 0.5 2.5v0.5q0.1 1.5-0.1 3-0.2 1.5-0.5 3-0.4 1.5-0.9 2.9-0.5 1.5-1.2 2.9c-1.7 3.4-3.7 5.5-8.2 5.5z"/>
									<g id="Group_1041" style="opacity: .3">
										<g id="Group_1040">
											<g id="Clip-Path: Group_1039" clip-path="url(#cp12)">
												<g id="Group_1039">
													<path id="Path_4030" class="s6" d="m265.1 572.8c-4.5 0-6.4-2.1-8.2-5.5q-0.7-1.4-1.2-2.9-0.5-1.4-0.9-2.9-0.3-1.5-0.5-3-0.1-1.5-0.1-3v-0.5q0-1.3 0.5-2.5 0.5-1.1 1.4-2 0.9-0.9 2-1.4 1.2-0.5 2.5-0.5h4.4q0.5 0 0.9 0.2 0.3 0.2 0.7 0.5 0.3 0.3 0.4 0.6 0.2 0.4 0.2 0.9v19.9q0 0.2 0 0.4-0.1 0.2-0.1 0.4-0.1 0.2-0.2 0.3-0.1 0.2-0.3 0.4-0.1 0.1-0.3 0.2-0.2 0.1-0.4 0.2-0.2 0.1-0.4 0.1-0.2 0.1-0.4 0.1z"/>
												</g>
											</g>
										</g>
									</g>
									<g id="Group_1044" style="opacity: .3">
										<g id="Group_1043">
											<g id="Clip-Path: Group_1042" clip-path="url(#cp13)">
												<g id="Group_1042">
													<path id="Path_4031" class="s6" d="m315.6 572.8q-0.2 0-0.4-0.1-0.2 0-0.4-0.1-0.2-0.1-0.4-0.2-0.1-0.1-0.3-0.2-0.1-0.2-0.3-0.4-0.1-0.1-0.2-0.3 0-0.2-0.1-0.4 0-0.2 0-0.4v-19.9q0-0.5 0.2-0.9 0.2-0.3 0.5-0.6 0.3-0.3 0.7-0.5 0.3-0.2 0.8-0.2h4.4q1.3 0 2.5 0.5 1.1 0.5 2 1.4 0.9 0.9 1.4 2 0.5 1.2 0.5 2.5v0.5q0.1 1.5-0.1 3-0.2 1.5-0.5 3-0.4 1.5-0.9 2.9-0.5 1.5-1.2 2.9c-1.7 3.4-3.7 5.5-8.2 5.5z"/>
												</g>
											</g>
										</g>
									</g>
									<path id="Path_4032" class="s2" d="m340.1 609.9l-20.9-6.3q-0.5-0.2-1.1-0.4-0.5-0.2-1.1-0.5-0.5-0.2-1-0.5-0.5-0.3-1-0.6l-29.5 23.3v23.1h72.6q0.5 0 0.9-0.2 0.4-0.1 0.7-0.5 0.3-0.3 0.5-0.7 0.2-0.4 0.2-0.9v-8.5c0-3-0.5-6-1.4-8.9-1-2.9-2.4-5.6-4.2-8.1-1.8-2.4-4-4.6-6.5-6.3-2.5-1.8-5.3-3.1-8.2-4z"/>
									<path id="Path_4033" class="s3" d="m315 601.6q-0.3-0.2-0.6-0.4-0.3-0.2-0.5-0.4-0.3-0.1-0.6-0.4-0.3-0.2-0.5-0.4l-1.5-1.2-29.5 23.3q-0.2 0.1-0.4 0.3-0.1 0.2-0.2 0.5-0.1 0.2-0.2 0.5 0 0.2 0 0.5v24.1h4.5v-23z"/>
									<path id="Path_4034" class="s5" d="m311.3 598.8l-3.9-3.5v-9.7q0-0.5-0.2-0.9-0.2-0.4-0.5-0.7-0.3-0.3-0.7-0.5-0.4-0.2-0.9-0.2h-30q-0.4 0-0.8 0.2-0.4 0.2-0.8 0.5-0.3 0.3-0.5 0.7-0.1 0.4-0.1 0.9v9.7l-3.3 2.9 21.2 16.8z"/>
									<path id="Path_4035" class="s5" d="m311.3 598.8l-3.9-3.5v-9.7q0-0.5-0.2-0.9-0.2-0.4-0.5-0.7-0.3-0.3-0.7-0.5-0.4-0.2-0.9-0.2h-30q-0.4 0-0.8 0.2-0.4 0.2-0.8 0.5-0.3 0.3-0.5 0.7-0.1 0.4-0.1 0.9v9.7l-3.3 2.9 21.2 16.8z"/>
									<path id="Path_4036" class="s2" d="m269.6 598.2l-2.1 1.8q-0.2 0.2-0.4 0.3-0.2 0.1-0.3 0.3-0.2 0.1-0.4 0.2-0.2 0.1-0.4 0.3-0.6 0.4-1.2 0.7-0.6 0.4-1.2 0.7-0.6 0.3-1.3 0.6-0.6 0.3-1.3 0.5l-20.9 6.3c-2.9 0.9-5.6 2.2-8.1 4-2.5 1.7-4.7 3.9-6.5 6.3-1.9 2.5-3.3 5.2-4.2 8.1-1 2.9-1.4 5.9-1.4 8.9v8.5q0 0.5 0.1 0.9 0.2 0.4 0.5 0.7 0.3 0.4 0.8 0.5 0.4 0.2 0.8 0.2h58.9v-24.1q0-0.3 0-0.5 0.1-0.3 0.2-0.5 0.1-0.3 0.2-0.5 0.2-0.2 0.4-0.3l5.4-4.3 3.6-2.8z"/>
									<path id="Path_4037" class="s5" d="m290.3 594.8q-1.3 0-2.6-0.2-1.4-0.2-2.6-0.6-1.3-0.3-2.5-0.9-1.3-0.5-2.4-1.2c-8.5-5.4-18.7-13.8-18.7-23.7v-21.1q0-0.5 0.2-0.9 0.2-0.4 0.5-0.7 0.3-0.3 0.7-0.5 0.4-0.2 0.9-0.2h53.1q0.5 0 0.9 0.2 0.4 0.2 0.7 0.5 0.3 0.3 0.5 0.7 0.2 0.4 0.2 0.9v21.1c0 9.9-10.2 18.3-18.7 23.7q-1.2 0.7-2.4 1.2-1.2 0.6-2.5 0.9-1.3 0.4-2.6 0.6-1.3 0.2-2.7 0.2z"/>
									<path id="Path_4038" class="s3" d="m325 530.5q0.5-1.1 1.1-2.1 0.6-1.1 1.3-2.1 0.7-1 1.5-1.9 0.7-0.9 1.5-1.8c3.1-3.4 4.6-7.7 4.5-12.2-0.2-4.5-2.1-8.8-5.3-11.9-3.2-3.1-7.6-4.9-12-4.9-4.5 0.1-8.9 1.8-12.1 4.9-1.6-2.4-3.9-4.5-6.5-5.9-2.7-1.3-5.6-2.1-8.6-2-3 0-5.9 0.8-8.5 2.2-2.6 1.5-4.8 3.6-6.4 6.1q-1.7-1.7-3.8-2.9-2-1.2-4.3-1.8-2.3-0.6-4.7-0.5-2.4 0-4.7 0.7-1.7 0.5-3.2 1.3-1.5 0.9-2.9 2-1.3 1.1-2.4 2.5-1.1 1.4-1.8 2.9-1.2 2.4-1.7 4.9-0.4 2.6-0.1 5.2 0.4 2.6 1.5 5 1 2.4 2.8 4.3 0.8 0.9 1.6 1.9 0.8 1 1.5 2 0.7 1 1.3 2.1 0.7 1 1.2 2.2l2.1 4.5h64.9z"/>
									<path id="Path_4039" class="s2" d="m319.2 547.1l3.6-11.9h-64.9l3.6 11.9z"/>
									<path id="Path_4040" class="s0" d="m292.7 630.5c0-1.2 0.7-2.4 1.9-2.9 1.2-0.5 2.6-0.2 3.5 0.7 0.9 0.9 1.2 2.3 0.7 3.5-0.5 1.1-1.7 1.9-3 1.9q-0.6 0-1.2-0.2-0.6-0.3-1-0.7-0.5-0.5-0.7-1-0.2-0.6-0.2-1.3z"/>
									<path id="Path_4041" class="s0" d="m292.7 641.2c0-1.3 0.7-2.4 1.9-2.9 1.2-0.5 2.6-0.3 3.5 0.7 0.9 0.9 1.2 2.2 0.7 3.4-0.5 1.2-1.7 2-3 2q-0.6 0-1.2-0.3-0.6-0.2-1-0.7-0.5-0.4-0.7-1-0.2-0.6-0.2-1.2z"/>
								</g>
							</g>
						</g>
					</g>
				</g>
			</g>
			<g id="fork">
				<path id="Path_4042" class="s3" d="m52.2 174.6l-9.4 32.2 6.2 1.5 6.8-32.8z"/>
				<g id="Group_1050">
					<g id="Clip-Path: Group_1049" clip-path="url(#cp14)">
						<g id="Group_1049">
							<path id="Path_4043" class="s3" d="m44.4 213.7c-1.9-0.5-3.7-1.3-5.3-2.4-1.6-1.2-3-2.6-4-4.3-1-1.7-1.7-3.5-2-5.5-0.3-1.9-0.3-3.9 0.2-5.8l7.2-24 3.1 0.7-2.9 13.5c-1.8 7.2 0.8 13.4 6.9 14.9 6.1 1.5 11.3-2.9 13.1-9.9l3.8-13.3 3.1 0.8-4.9 24.6c-0.5 1.9-1.4 3.7-2.6 5.3-1.2 1.5-2.7 2.9-4.4 3.8-1.7 1-3.5 1.7-5.5 1.9-1.9 0.3-3.9 0.2-5.8-0.3z"/>
							<path id="Rectangle_393" class="s3" d="m42.1 211.3l5.4 1.3-5.5 22-5.3-1.4z"/>
							<path id="Path_4044" class="s2" d="m23.3 298.1q-1.1-0.3-2-0.9-1-0.7-1.6-1.7-0.6-1-0.8-2.2-0.2-1.1 0.1-2.3l14.5-58.5q0.1-0.4 0.4-0.6 0.2-0.3 0.5-0.5 0.3-0.2 0.7-0.3 0.3 0 0.7 0.1l8 2q0.2 0 0.3 0.1 0.2 0.1 0.3 0.2 0.2 0.1 0.3 0.2 0.1 0.1 0.2 0.3 0.1 0.1 0.2 0.3 0.1 0.2 0.1 0.4 0 0.1 0 0.3 0 0.2 0 0.4l-14.6 58.5q-0.3 1.1-1 2.1-0.8 0.9-1.8 1.5-1 0.6-2.2 0.8-1.1 0.1-2.3-0.2z"/>
						</g>
					</g>
				</g>
			</g>
			<g id="knife">
				<g id="Clip-Path: Group_1052" clip-path="url(#cp15)">
					<g id="Group_1052">
						<path id="Path_4045" class="s3" d="m453.4 346.1q0.2 0.1 0.5 0.3 0.2 0.1 0.4 0.3 0.2 0.2 0.4 0.5 0.1 0.2 0.1 0.5c3 17.8 2.2 25.6-8.3 39.4-0.1 0.3-13.5 19.6-23.9 18.9l-1.6 0.9-0.1-0.1q-0.1 0-0.2 0-0.1 0-0.2-0.1-0.1 0-0.1 0-0.1 0-0.2-0.1l0.1-0.2-5.7-4.3-0.8 1-3.1-2.3 40.7-53.9q0.1-0.3 0.4-0.4 0.2-0.2 0.5-0.3 0.2-0.1 0.5-0.1 0.3 0 0.6 0z"/>
						<path id="Path_4046" class="s2" d="m374.1 461.6q1.1 0.5 2.2 0.6 1.2 0.1 2.3-0.2 1.1-0.3 2.1-0.9 0.9-0.7 1.6-1.6l40.3-53.5-10.1-7.6-40.5 53.8c-0.6 0.7-0.9 1.6-1.1 2.5-0.2 0.9-0.2 1.8 0 2.7 0.2 0.9 0.6 1.7 1.1 2.4 0.6 0.8 1.3 1.4 2.1 1.8z"/>
					</g>
				</g>
			</g>
			<g id="turkey">
				<g id="Clip-Path: Group_1057" clip-path="url(#cp16)">
					<g id="Group_1057">
						<path id="Path_4049" class="s3" d="m283.9 381.9q-0.2-0.1-0.3-0.1-0.2-0.1-0.4-0.2-0.1-0.1-0.3-0.2-0.1-0.2-0.2-0.3l-4.6-6.3q-0.3-0.3-0.3-0.7-0.1-0.3-0.1-0.7 0.1-0.4 0.3-0.7 0.2-0.3 0.5-0.6l7-4.9q-0.3-1-0.4-2 0-1.1 0.3-2.1 0.4-1 1-1.8 0.6-0.9 1.4-1.5 1.1-0.7 2.3-1 1.3-0.3 2.6-0.1 1.3 0.2 2.4 0.9 1.1 0.6 1.8 1.7 0.4 0.4 0.6 0.9 0.2 0.4 0.4 0.9 0.1 0.6 0.2 1.1 0.1 0.5 0 1 0.6 0.2 1 0.4 0.5 0.2 0.9 0.5 0.5 0.3 0.9 0.7 0.3 0.3 0.6 0.8 0.8 1 1.1 2.3 0.3 1.2 0.1 2.5-0.2 1.3-0.9 2.4-0.6 1.1-1.7 1.8-0.8 0.7-1.8 1-1 0.3-2.1 0.3-1 0-2-0.4-1-0.3-1.9-0.9l-7 4.9q-0.1 0.1-0.3 0.2-0.2 0.1-0.3 0.1-0.2 0.1-0.4 0.1-0.2 0-0.4 0z"/>
						<path id="Path_4050" class="s3" d="m313.6 401.7q-0.2 0-0.4-0.1-0.2 0-0.4-0.2-0.2-0.1-0.4-0.2-0.1-0.2-0.2-0.4l-5.4-7.3q-0.3-0.4-0.4-0.8-0.1-0.5 0-0.9 0-0.5 0.3-0.8 0.2-0.4 0.6-0.7l8.2-5.8q-0.4-1.1-0.4-2.4-0.1-1.2 0.3-2.4 0.4-1.1 1.1-2.1 0.7-1 1.7-1.7 1.3-0.9 2.7-1.3 1.5-0.3 3-0.1 1.5 0.3 2.8 1.1 1.3 0.8 2.2 2 0.4 0.5 0.7 1 0.2 0.6 0.4 1.2 0.2 0.6 0.3 1.2 0.1 0.6 0 1.2 0.6 0.2 1.2 0.4 0.6 0.3 1.1 0.6 0.5 0.4 0.9 0.8 0.5 0.5 0.8 1 0.9 1.2 1.3 2.7 0.3 1.4 0.1 2.9-0.2 1.5-1 2.8-0.8 1.3-2.1 2.2-1 0.7-2.1 1.1-1.2 0.4-2.4 0.4-1.3 0-2.4-0.4-1.2-0.4-2.2-1.2l-8.2 5.9q-0.2 0.1-0.4 0.2-0.2 0.1-0.4 0.1-0.2 0.1-0.4 0.1-0.3 0-0.5-0.1z"/>
						<path id="Path_4051" class="s5" d="m279.3 390.5q0 0 0 0-0.1 0-0.1 0 0-0.1-0.1-0.1 0 0 0 0l-25.7-7c-0.5-0.1-0.9-0.4-1.2-0.8-0.3-0.4-0.5-0.9-0.5-1.4 0-0.5 0.1-1 0.4-1.4 0.3-0.5 0.8-0.8 1.2-0.9 6.6-2 15.8-5.3 22.5-9.3q0.9-0.5 1.9-0.7 1-0.1 2 0.1 1 0.2 1.9 0.7 0.8 0.6 1.4 1.4l4.5 6.1q0.6 0.9 0.9 1.8 0.2 1 0.1 2.1-0.1 1-0.6 1.9-0.4 0.9-1.2 1.6-0.7 0.6-1.4 1.2-0.7 0.6-1.3 1.2-0.7 0.7-1.3 1.4-0.6 0.6-1.2 1.3-0.2 0.2-0.5 0.4-0.2 0.2-0.5 0.3-0.3 0.1-0.6 0.1-0.3 0-0.6 0z"/>
						<path id="Path_4052" class="s3" d="m299.4 456.9l-136.2-21.8q-0.2 0-0.4-0.1-0.2-0.1-0.4-0.2-0.2-0.1-0.3-0.3-0.2-0.1-0.3-0.3c-3.5-5.6-0.7-10.4 1.5-14.3q0.4-0.6 0.8-1.2 0.3-0.7 0.6-1.4 0.4-0.6 0.6-1.3 0.2-0.7 0.4-1.5c2-12.3 14.5-22.8 35.2-29.5 17.9-5.8 39.2-7.8 55.7-5.2q4.5 0.7 9 2 4.4 1.3 8.6 3.1 4.3 1.8 8.2 4.2 4 2.3 7.6 5.2 0 0 0.1 0.1 0 0 0.1 0 0 0.1 0 0.1 0.1 0.1 0.1 0.1l14.5 17.9q0.1 0 0.1 0.1 0 0 0.1 0.1 0 0 0 0.1 0.1 0.1 0.1 0.1 1.4 2.8 2.3 5.8 0.9 3 1.4 6.1 0.5 3.1 0.5 6.2 0 3.1-0.5 6.2-0.4 2.5-1.1 4.9-0.7 2.5-1.6 4.8-0.9 2.4-2 4.6-1.2 2.3-2.5 4.4-0.2 0.3-0.4 0.5-0.3 0.2-0.6 0.3-0.2 0.1-0.6 0.2-0.3 0-0.6 0z"/>
						<path id="Path_4053" class="s5" d="m246.3 454.4q-2.2-0.3-4.4-0.7l-1.2-0.2q-0.4-0.1-0.8-0.3-0.3-0.2-0.6-0.5-0.3-0.3-0.4-0.7-0.1-0.3-0.1-0.8l0.2-14.6c0-4.2 0.8-8.3 2.2-12.3 1.4-4 3.5-7.7 6.1-11 2.7-3.2 5.8-6.1 9.4-8.3 3.5-2.3 7.4-3.9 11.5-4.9 11.9-2.8 25.4-6.3 33.6-11.3q1-0.6 2.2-0.8 1.2-0.2 2.3 0.1 1.2 0.2 2.2 0.8 1 0.7 1.7 1.6l5.8 8q0.7 0.9 1 2.1 0.3 1.1 0.2 2.3-0.1 1.1-0.7 2.2-0.5 1-1.4 1.8c-8.3 7-16 18.1-22.9 27.9-5.7 8.3-10.2 14.7-14 17.4-7.6 5.4-20.5 4-31.9 2.2z"/>
						<path id="Path_4054" class="s2" d="m169.6 452.1c-5.8-0.9-11.9-2.4-15.7-7.6q-1-1.4-1.7-2.9-0.7-1.6-1-3.2-0.4-1.6-0.5-3.3 0-1.7 0.3-3.4 0-0.2 0.1-0.4 0-0.2 0.2-0.4 0.1-0.1 0.2-0.3 0.2-0.2 0.3-0.3 0.2-0.1 0.4-0.2 0.2-0.1 0.4-0.2 0.2 0 0.4-0.1 0.2 0 0.4 0.1l159.5 25.2q0.4 0.1 0.8 0.3 0.3 0.2 0.6 0.6 0.2 0.3 0.3 0.7 0.1 0.4 0.1 0.8l-0.1 0.3q-0.2 1.4-0.6 2.9-0.5 1.4-1.2 2.7-0.7 1.3-1.6 2.4-1 1.2-2.1 2.2c-6.3 5.2-14.7 3.9-22 2.7l-112.7-17.8-2.4-0.4q-1.2-0.2-2.4-0.4z"/>
					</g>
				</g>
			</g>
			<g id="thermometer">
				<g id="Clip-Path: Group_1065" clip-path="url(#cp17)">
					<g id="Group_1065">
						<path id="Path_4065" class="s3" d="m264.8 328.4c-7.9-0.9-13.7-7.6-13-14.9l8.2-77.3c0.7-7.4 7.8-12.7 15.7-11.9 8 0.8 13.8 7.5 13 14.9l-8.1 77.3c-0.8 7.3-7.9 12.7-15.8 11.9z"/>
						<path id="Path_4066" class="s2" d="m260.8 333.5q0 0.7 0.2 1.3 0.2 0.6 0.6 1.1 0.5 0.5 1 0.8 0.6 0.3 1.3 0.4 0.6 0 1.3-0.1 0.6-0.2 1.2-0.6 0.5-0.4 0.8-0.9 0.4-0.6 0.4-1.3l5.2-49.4-6.8-0.8z"/>
						<path id="Path_4067" class="s5" d="m274.6 235.6q-0.7-0.1-1.3 0-0.7 0.2-1.2 0.6-0.5 0.4-0.9 1-0.3 0.5-0.4 1.2l-4.8 45.6 6.8 0.8 4.8-45.7q0.1-0.7-0.1-1.3-0.2-0.6-0.7-1.1-0.4-0.5-1-0.8-0.6-0.3-1.2-0.3z"/>
						<path id="Rectangle_404" class="s2" d="m259.5 240.5l7 0.7-0.2 1.6-7-0.8z"/>
						<path id="Rectangle_405" class="s2" d="m281.3 242.8l7 0.7-0.2 1.6-7-0.8z"/>
						<path id="Rectangle_406" class="s2" d="m252 311.4l7 0.7-0.2 1.6-6.9-0.7z"/>
						<path id="Rectangle_407" class="s2" d="m273.8 313.7l7 0.7-0.2 1.6-6.9-0.7z"/>
						<path id="Rectangle_408" class="s2" d="m274.9 303.6l7 0.7-0.2 1.6-7-0.8z"/>
						<path id="Rectangle_409" class="s2" d="m253.1 301.3l7 0.7-0.2 1.6-7-0.8z"/>
						<path id="Rectangle_410" class="s2" d="m254.2 291.1l6.9 0.8-0.1 1.5-7-0.7z"/>
						<path id="Rectangle_411" class="s2" d="m276 293.4l6.9 0.8-0.1 1.5-7-0.7z"/>
						<path id="Rectangle_412" class="s2" d="m255.2 281l7 0.7-0.2 1.6-6.9-0.7z"/>
						<path id="Rectangle_413" class="s2" d="m277 283.3l7 0.7-0.2 1.6-6.9-0.7z"/>
						<path id="Rectangle_414" class="s2" d="m278.1 273.2l7 0.7-0.2 1.6-7-0.8z"/>
						<path id="Rectangle_415" class="s2" d="m256.3 270.9l7 0.7-0.2 1.6-7-0.8z"/>
						<path id="Rectangle_416" class="s2" d="m279.2 263l6.9 0.8-0.1 1.5-7-0.7z"/>
						<path id="Rectangle_417" class="s2" d="m257.4 260.8l6.9 0.7-0.1 1.5-7-0.7z"/>
						<path id="Rectangle_418" class="s2" d="m258.4 250.6l7 0.8-0.2 1.5-6.9-0.7z"/>
						<path id="Rectangle_419" class="s2" d="m280.2 252.9l7 0.7-0.2 1.6-6.9-0.7z"/>
						<path id="Path_4068" class="s2" d="m264.2 300.9q0 0.7 0.2 1.3 0.2 0.6 0.6 1.1 0.5 0.5 1.1 0.8 0.6 0.3 1.2 0.4 0.7 0 1.3-0.1 0.6-0.2 1.2-0.6 0.5-0.4 0.8-0.9 0.4-0.6 0.5-1.3l5.2-49.4-6.9-0.8z"/>
					</g>
				</g>
			</g>
		</g>
	</g>
</svg>