<svg xmlns="http://www.w3.org/2000/svg" xmlns:xlink="http://www.w3.org/1999/xlink" width="2560" height="1440" viewBox="0 0 2560 1440">
  <defs>
    <clipPath id="clip-path">
      <rect id="Rectangle_403" data-name="Rectangle 403" width="332.182" height="318.981" fill="none"/>
    </clipPath>
    <clipPath id="clip-path-3">
      <rect id="Rectangle_401" data-name="Rectangle 401" width="73.97" height="29.035" fill="none"/>
    </clipPath>
    <clipPath id="clip-path-4">
      <rect id="Rectangle_383" data-name="Rectangle 383" width="547.878" height="1177.697" fill="none"/>
    </clipPath>
    <clipPath id="clip-path-5">
      <rect id="Rectangle_384" data-name="Rectangle 384" width="1581.972" height="1484.206" fill="none"/>
    </clipPath>
    <clipPath id="clip-path-6">
      <rect id="Rectangle_421" data-name="Rectangle 421" width="2559.589" height="1484.206" fill="#f6fcf8"/>
    </clipPath>
    <clipPath id="clip-path-7">
      <rect id="Rectangle_397" data-name="Rectangle 397" width="120.888" height="405.771" fill="none"/>
    </clipPath>
    <clipPath id="clip-path-8">
      <rect id="Rectangle_387" data-name="Rectangle 387" width="399.826" height="376.437" fill="none"/>
    </clipPath>
    <clipPath id="clip-path-9">
      <rect id="Rectangle_388" data-name="Rectangle 388" width="425.132" height="368.545" fill="none"/>
    </clipPath>
    <clipPath id="clip-path-10">
      <rect id="Rectangle_392" data-name="Rectangle 392" width="429.013" height="480.669" fill="none"/>
    </clipPath>
    <clipPath id="clip-path-12">
      <rect id="Rectangle_389" data-name="Rectangle 389" width="39.889" height="73.67" fill="none"/>
    </clipPath>
    <clipPath id="clip-path-13">
      <rect id="Rectangle_390" data-name="Rectangle 390" width="39.886" height="73.67" fill="none"/>
    </clipPath>
    <clipPath id="clip-path-14">
      <rect id="Rectangle_394" data-name="Rectangle 394" width="92.512" height="387.317" fill="none"/>
    </clipPath>
    <clipPath id="clip-path-15">
      <rect id="Rectangle_395" data-name="Rectangle 395" width="62.373" height="427.71" fill="none"/>
    </clipPath>
    <clipPath id="clip-path-16">
      <rect id="Rectangle_398" data-name="Rectangle 398" width="537.467" height="340.631" fill="none"/>
    </clipPath>
    <clipPath id="clip-path-17">
      <rect id="Rectangle_420" data-name="Rectangle 420" width="88.308" height="346.198" fill="none"/>
    </clipPath>
    <clipPath id="clip-Artboard_1">
      <rect width="2560" height="1440"/>
    </clipPath>
  </defs>
  <g id="Artboard_1" data-name="Artboard – 1" clip-path="url(#clip-Artboard_1)">
    <rect width="2560" height="1440" fill="#fff"/>
    <rect id="bkgd" width="2559.589" height="1484.206" transform="translate(0 -22)" fill="#f6fcf8"/>
    <g id="hands" transform="translate(959.662 911.184) rotate(3)">
      <g id="Group_1064" data-name="Group 1064" clip-path="url(#clip-path)">
        <g id="Group_1063" data-name="Group 1063">
          <g id="Group_1062" data-name="Group 1062" clip-path="url(#clip-path)">
            <path id="Path_4055" data-name="Path 4055" d="M69.513,62.055V16.8H22.726l-3.842,5.909L0,22.525V0H87.64A2.021,2.021,0,0,1,89.66,2.02V62.055Z" transform="translate(169.034 0)" fill="#6ccc8d"/>
            <path id="Path_4056" data-name="Path 4056" d="M0,23.194V7c0-3.86,2.857-7,6.376-7h69.44c3.57,0,6.375,3.077,6.375,7V23.194a4.464,4.464,0,0,1-4.46,4.475H4.46A4.464,4.464,0,0,1,0,23.194" transform="translate(206.717 57.581)" fill="#01417f"/>
            <path id="Path_4057" data-name="Path 4057" d="M0,24.732v0Z" transform="translate(332.182 289.774)" fill="#232323"/>
            <path id="Path_4058" data-name="Path 4058" d="M0,50.794C0,37.659,7.64,19.338,17.867,11.14A50.738,50.738,0,0,1,49.694,0h69.318a50.721,50.721,0,0,1,35.454,14.342c8.218,7.983,14.245,24.6,14.245,36.074l.009,151.988H.011v35.8Z" transform="translate(163.46 76.299)" fill="#6ccc8d"/>
            <path id="Path_4059" data-name="Path 4059" d="M0,0V0Z" transform="translate(332.181 278.703)" fill="#232323"/>
            <path id="Path_4060" data-name="Path 4060" d="M168.71,0V35.808a4.466,4.466,0,0,1-4.46,4.471H4.46A4.466,4.466,0,0,1,0,35.808V0Z" transform="translate(163.471 278.703)" fill="#01417f"/>
            <path id="Path_4061" data-name="Path 4061" d="M84.351,0a4.464,4.464,0,0,1,4.46,4.475V87.693a4.464,4.464,0,0,1-4.46,4.475H0V0Z" transform="translate(163.471 157.742)" fill="#01417f"/>
            <rect id="Rectangle_399" data-name="Rectangle 399" width="55.973" height="13.426" transform="translate(163.471 183.379)" fill="#fff"/>
            <rect id="Rectangle_400" data-name="Rectangle 400" width="55.973" height="13.426" transform="translate(163.471 210.847)" fill="#fff"/>
            <path id="Path_4062" data-name="Path 4062" d="M5.509,164.023A5.518,5.518,0,0,1,0,158.745L.008,67.5a5.546,5.546,0,0,1,1.908-4.463L57.885,14.691A42.128,42.128,0,0,1,88.133,4.4l43.173,2.467A26.1,26.1,0,0,1,153.072,44.71,134.627,134.627,0,0,0,213.429,14.7l10.715-9.255a22.371,22.371,0,0,1,31.64,2.374,22.591,22.591,0,0,1-2.372,31.745l-4.969,4.294a283.918,283.918,0,0,1-136.205,64.753l-28.47,5.025a47.536,47.536,0,0,0-22.8,10.834L8.958,162.807a5.505,5.505,0,0,1-3.449,1.216" transform="translate(0 97.001)" fill="#ffd4c3"/>
            <path id="Path_4063" data-name="Path 4063" d="M22.245,61.3A22.306,22.306,0,0,1,0,38.985C0,28.423,15,6.5,18,2.213a5.185,5.185,0,0,1,8.5,0c3,4.289,17.986,26.21,17.986,36.772A22.3,22.3,0,0,1,22.245,61.3" transform="translate(156.758 33.804)" fill="#ffd4c3"/>
            <g id="Group_1061" data-name="Group 1061" transform="translate(91.917 138.153)" opacity="0.4" style="mix-blend-mode: multiply;isolation: isolate">
              <g id="Group_1060" data-name="Group 1060">
                <g id="Group_1059" data-name="Group 1059" clip-path="url(#clip-path-3)">
                  <path id="Path_4064" data-name="Path 4064" d="M37.924,29.035A37.208,37.208,0,0,0,73.97,0C69.743,1.34,65.5,2.643,61.154,3.56c.013-.025.018-.056.031-.08A26.031,26.031,0,0,1,38.063,17.958L.582,16.022,0,27.087l36.1,1.9Z" transform="translate(0 0)" fill="#ffd4c3"/>
                </g>
              </g>
            </g>
          </g>
        </g>
      </g>
    </g>
    <g id="shape-green" transform="translate(2012.122 283.729)">
      <g id="Group_1030" data-name="Group 1030" clip-path="url(#clip-path-4)">
        <path id="Path_4008" data-name="Path 4008" d="M547.878,0c-497.1,169.075,45.577,658.8-282.939,774.068C11.694,877.847-32.21,1015.8,18.692,1177.7H547.878Z" transform="translate(0)" fill="#6ccc8d"/>
      </g>
    </g>
    <g id="shape-blue" transform="translate(0 -22)" clip-path="url(#clip-path-5)">
      <path id="Path_4009" data-name="Path 4009" d="M1793.257,0c200.252,674.071-967,756.118-496.029,1484.206H0V0Z" transform="translate(-234.629)" fill="#01417f"/>
    </g>
    <g id="spoon" transform="translate(0 -22)" clip-path="url(#clip-path-6)">
      <g id="spoon-2" data-name="spoon" transform="translate(1464.678 1139.196) rotate(31)">
        <rect id="Rectangle_396" data-name="Rectangle 396" width="19.405" height="47.887" transform="translate(50.743 154.128)" fill="#6ccc8d"/>
        <g id="Group_1055" data-name="Group 1055">
          <g id="Group_1054" data-name="Group 1054" clip-path="url(#clip-path-7)">
            <path id="Path_4047" data-name="Path 4047" d="M60.447,160.428A60.517,60.517,0,0,1,0,99.979C0,66.635,26.132,0,60.447,0S120.89,66.635,120.89,99.979a60.514,60.514,0,0,1-60.443,60.45" transform="translate(0 0.002)" fill="#6ccc8d"/>
            <path id="Path_4048" data-name="Path 4048" d="M18.251,212.866A18.27,18.27,0,0,1,0,194.616V5.737A5.65,5.65,0,0,1,5.627.088L30.832,0c1.889.414,2.944.587,4.008,1.65a5.656,5.656,0,0,1,1.659,4V194.616a18.269,18.269,0,0,1-18.248,18.25" transform="translate(42.195 192.906)" fill="#01417f"/>
          </g>
        </g>
      </g>
    </g>
    <g id="veggies" transform="translate(1997.008 602.232) rotate(-9)">
      <g id="Group_1035" data-name="Group 1035" clip-path="url(#clip-path-8)">
        <path id="Path_4010" data-name="Path 4010" d="M66.06,72.907c-2.231,0-3.477-1.225-4.518-2.8l-.016.005c-.037-.06-.085-.149-.144-.252-.268-.421-.526-.86-.784-1.3C55.038,59.03,42.036,53.7,30.56,48.985c-7.007-2.874-13.63-5.592-18.143-9.129C4.947,34,.432,26.258.028,18.612A18.159,18.159,0,0,1,5.492,4.39c11.7-11.333,24.585,1.943,32.288,9.876.3.315,21.735,30.379,30.116,46.213.645.891,1.253,1.811,1.811,2.769l.924,1.57-.494.3c.869,2.08,1.251,3.6.971,4.351a5.274,5.274,0,0,1-4.49,3.409c-.194.014-.379.025-.558.025" transform="translate(287.207 14.421)" fill="#6ccc8d"/>
        <rect id="Rectangle_385" data-name="Rectangle 385" width="16.022" height="59.612" transform="translate(338.079 7.656)" fill="#01417f"/>
        <path id="Path_4011" data-name="Path 4011" d="M77.353,301.386c-.236,0-1.006-.062-1.244-.094h-.178C33.68,301.3,0,267.555,0,226.093L20.121,18.963a5.339,5.339,0,0,1,3.91-4.636L75.949.184A5.447,5.447,0,0,1,78.81.2l49.859,14.145a5.332,5.332,0,0,1,3.857,4.62l20.093,206.614c.027,42.034-33.751,75.808-75.266,75.808" transform="translate(134.586 75.052)" fill="#01417f"/>
        <rect id="Rectangle_386" data-name="Rectangle 386" width="16.022" height="38.52" transform="translate(203.928)" fill="#01417f"/>
        <path id="Path_4012" data-name="Path 4012" d="M127.439,167.941a109.486,109.486,0,0,1-16.621-1.319c-.8-.126-1.792-.21-2.881-.267a70.982,70.982,0,0,0-7.705-.005c-1.116.062-2.1.146-2.89.272-16.765,2.572-31.888,1.386-44.96-3.527a69.172,69.172,0,0,1-30.566-22.738c-7.373-9.456-13-21.111-16.719-34.64A150.971,150.971,0,0,1,0,65.774C0,51.24,2.776,37.894,8.255,26.108,13.642,14.513,19.076,8.834,28.5,1.194A5.344,5.344,0,0,1,31.863,0H176.279a5.345,5.345,0,0,1,3.365,1.194c9.424,7.64,14.858,13.319,20.246,24.919,5.48,11.787,8.258,25.132,8.258,39.661a150.866,150.866,0,0,1-5.1,39.944c-3.724,13.534-9.348,25.189-16.719,34.645A69.155,69.155,0,0,1,155.76,163.1a80.047,80.047,0,0,1-28.321,4.845" transform="translate(0 208.491)" fill="#ffd4c3"/>
        <path id="Path_4013" data-name="Path 4013" d="M.9,38.588C.027,29.848-1.461,8.585,3.592,0L17.4,8.125c-1.527,2.942-1.793,16.444-.555,28.866Z" transform="translate(95.201 153.007)" fill="#01417f"/>
        <path id="Path_4014" data-name="Path 4014" d="M160.793,27.788c-.167-.094-17.071-9.758-36.433-19.776-1.1-.663-25.436-15-42.055-3.66C77.062,1.4,69.97.356,61.152,1.217A82.982,82.982,0,0,0,29.92,11.131,301.5,301.5,0,0,0,2.269,28.06a5.337,5.337,0,0,0-.176,8.6c5.958,4.563,27.809,5.908,42.546.583,1.6,10.969,4.7,24.268,4.869,24.972a5.343,5.343,0,0,0,9.024,2.508c6.355-6.52,17.611-17.043,23.824-20.747,7.974,4.47,20.978,11.49,20.978,11.49a5.342,5.342,0,0,0,7.743-3.5,47.972,47.972,0,0,1,6.63-14.25c14.046,5.894,37.157,3.937,43.682-1.058a5.342,5.342,0,0,0-.6-8.877" transform="translate(20.733 179.716)" fill="#6ccc8d"/>
        <path id="Path_4015" data-name="Path 4015" d="M68.75,81.425a21.9,21.9,0,0,1-15.541-6.431,11.5,11.5,0,0,0-8.077-3.347H13.1a13.021,13.021,0,0,1-9.838-4.5A13.386,13.386,0,0,1,.137,56.469C3.82,30.585,14.794,10.711,29.494,3.315,36.558-.242,48.2-2.729,63.554,5.6c2.035,1.1,6.429.444,10.685-.2,5.265-.787,11.227-1.7,17.092-.3,26.438,6.291,42.477,24.032,46.377,51.318a13.385,13.385,0,0,1-3.15,10.713,14.009,14.009,0,0,1-9.9,4.463L92.874,71.4a11.534,11.534,0,0,0-8.148,3.343A22.55,22.55,0,0,1,68.75,81.425" transform="translate(143.014 28.227)" fill="#6ccc8d"/>
        <path id="Path_4016" data-name="Path 4016" d="M53.734,313.443C17.565,313.443,0,43.81,0,41.087,0,18.433,24.1,0,53.734,0s53.735,18.433,53.735,41.087c0,2.723-17.565,272.356-53.735,272.356" transform="translate(292.357 62.994)" fill="#ffd4c3"/>
        <path id="Path_4017" data-name="Path 4017" d="M2.062,9.373C1.333,9.8.691,10.272,0,10.72q.445,5.719,1.008,12.492A41.4,41.4,0,0,1,7.46,18.594c7.874-4.616,17.949-7.426,28.371-7.924L35.324,0A72.858,72.858,0,0,0,2.062,9.373" transform="translate(294.051 117.359)" fill="#6ccc8d"/>
        <path id="Path_4018" data-name="Path 4018" d="M0,12.051q.6,6.455,1.266,13.326c6-7.106,16.278-12.366,29.659-14.885L28.954,0C17.222,2.2,7.425,6.392,0,12.051" transform="translate(297.031 150.957)" fill="#6ccc8d"/>
        <path id="Path_4019" data-name="Path 4019" d="M0,9.853q.637,5.919,1.326,11.963c.558-.419.974-.885,1.57-1.294,7.524-5.156,17.375-8.676,27.734-9.913L29.368,0A74.025,74.025,0,0,0,0,9.853" transform="translate(300.595 188.814)" fill="#6ccc8d"/>
        <path id="Path_4020" data-name="Path 4020" d="M0,11.971Q.824,18.4,1.7,24.821C7.764,18,17.81,12.944,30.831,10.493L28.859,0C17.181,2.193,7.414,6.349,0,11.971" transform="translate(304.968 223.888)" fill="#6ccc8d"/>
        <path id="Path_4021" data-name="Path 4021" d="M7.936,4.2A44.8,44.8,0,0,0,0,8.495q.968,6.175,1.989,12.2a29.485,29.485,0,0,1,10.087-6.641A47.713,47.713,0,0,1,26.2,10.64L25.2,0A58.629,58.629,0,0,0,7.936,4.2" transform="translate(310.215 264.441)" fill="#6ccc8d"/>
        <path id="Path_4022" data-name="Path 4022" d="M22.18,0A58.852,58.852,0,0,0,0,8.982c.86,3.976,1.745,7.8,2.65,11.5,4.87-4.641,12.281-8.144,21.627-10.013Z" transform="translate(318.034 306.783)" fill="#6ccc8d"/>
      </g>
    </g>
    <g id="steak" transform="translate(1420.217 74.137)">
      <g id="Group_1037" data-name="Group 1037" clip-path="url(#clip-path-9)">
        <path id="Path_4023" data-name="Path 4023" d="M105.8,333.416c-37.894,0-73.362-11.394-92.465-30.164C4.211,294.283-.391,284.2.025,274.089L.02,202.908a6.174,6.174,0,0,1,4.044-5.793L416.83,45.562a6.17,6.17,0,0,1,8.3,5.795v60.557c0,23.714-7.574,46.4-21.328,63.862-34.22,43.474-90.617,84.388-172.41,125.082a363.993,363.993,0,0,1-60.006,23.818c-16.792,4.936-30.041,6.98-54.525,8.415q-5.551.325-11.061.325" transform="translate(0 35.129)" fill="#01417f"/>
        <path id="Path_4024" data-name="Path 4024" d="M105.8,297.12c-37.894,0-73.359-11.394-92.462-30.166C4.211,257.984-.389,247.9.025,237.784c.7-16.963,10.436-29.844,29.769-39.382.156-.078.324-.149.489-.217C31.01,197.9,103,168.924,103.84,99.4c.435-36.072,27.021-69.112,67.738-84.164C198.513,5.268,231.172,0,266.027,0c48.854,0,94.63,10.494,125.587,28.785,30.319,17.91,41.515,52.04,26.623,81.15-28.079,54.9-90.944,106.92-186.845,154.621a363.83,363.83,0,0,1-60.006,23.817c-16.81,4.943-30.059,6.987-54.525,8.422-3.7.217-7.393.327-11.061.327M35.063,209.566c-19.688,9.778-22.388,21.074-22.7,28.724-.338,8.26,5.052,15.354,9.629,19.856,15.224,14.956,50.216,28.84,94.15,26.326,23.4-1.376,35.982-3.3,51.769-7.94A352.465,352.465,0,0,0,225.895,253.5c93.484-46.5,154.5-96.69,181.352-149.183,12.018-23.491,3.006-50.184-21.915-64.9-29.11-17.2-72.6-27.071-119.305-27.071-33.408,0-64.587,5-90.165,14.46-35.879,13.274-59.3,41.823-59.679,72.735-.912,75.527-75.712,107.8-81.119,110.025" transform="translate(0 0)" fill="#232323"/>
        <path id="Path_4025" data-name="Path 4025" d="M105.7,297.119c-39.137,0-75.008-12.044-93.615-31.431C3.8,257.056-.369,247.4.025,237.782c.7-16.963,10.436-29.844,29.771-39.38,1.214-.5,73.2-29.478,74.043-99.006.437-36.072,27.023-69.105,67.737-84.164C198.512,5.267,231.172,0,266.025,0c48.856,0,94.632,10.494,125.589,28.783,30.319,17.91,41.515,52.04,26.623,81.15-28.079,54.9-90.944,106.922-186.845,154.622a364.188,364.188,0,0,1-60,23.817c-16.812,4.943-30.061,6.986-54.526,8.422q-5.642.325-11.157.325" transform="translate(0 0)" fill="#6ccc8d"/>
        <path id="Path_4026" data-name="Path 4026" d="M100.372,155.013a36.562,36.562,0,0,1-3.918,1.461c-17.464,5.384-35.152,9.4-42.765-5.3-7.25-14,6.212-27.059,20.338-37.981a35.009,35.009,0,0,1,28.634-6.738c7.307,1.616,13.113,5.661,15.93,11.1s2.773,12.5-.114,19.384a34.873,34.873,0,0,1-18.106,18.068" transform="translate(40.167 82.184)" fill="#ffd4c3"/>
        <path id="Path_4027" data-name="Path 4027" d="M266.024,24.691c44.562,0,85.76,9.239,113.033,25.352,19.028,11.241,26.1,31.243,17.2,48.646-25.621,50.093-84.788,98.461-175.854,143.756a340.018,340.018,0,0,1-55.979,22.238c-14.933,4.39-26.382,6.134-48.981,7.458q-4.925.285-9.737.284c-32.148,0-61.9-9.357-75.8-23.836-3.418-3.562-5.316-7.131-5.206-9.79.149-3.64.427-10.375,15.377-17.931,12.407-5.26,87.478-40.418,88.455-121.173.311-25.759,20.571-49.825,51.615-61.306,24.227-8.962,53.926-13.7,85.881-13.7m0-24.691c-34.851,0-67.513,5.268-94.447,15.233-40.715,15.059-67.3,48.092-67.738,84.164C103,168.924,31.011,197.9,29.8,198.4,10.46,207.94.725,220.821.026,237.784c-.395,9.62,3.775,19.272,12.062,27.9,18.609,19.385,54.478,31.43,93.615,31.43q5.514,0,11.159-.325c24.465-1.434,37.715-3.479,54.525-8.422a364.266,364.266,0,0,0,60.006-23.817c95.9-47.7,158.766-99.723,186.845-154.621,14.89-29.11,3.7-63.24-26.623-81.15C360.656,10.494,314.882,0,266.024,0" transform="translate(0 0)" fill="#ffd4c3"/>
      </g>
    </g>
    <g id="chef" transform="translate(1617.536 981.537)">
      <g id="Group_1047" data-name="Group 1047" clip-path="url(#clip-path-10)">
        <g id="Group_1046" data-name="Group 1046">
          <g id="Group_1045" data-name="Group 1045" clip-path="url(#clip-path-10)">
            <path id="Path_4028" data-name="Path 4028" d="M78,149.278c-13.575,0-19.642-6.444-25.026-16.847a78.609,78.609,0,0,1-8.311-36.015V94.939A19.488,19.488,0,0,1,64.254,75.607H77.866a6.505,6.505,0,0,1,6.55,6.451L84.55,142.8a6.421,6.421,0,0,1-1.914,4.575,6.592,6.592,0,0,1-4.638,1.9" transform="translate(60.07 101.692)" fill="#ffd4c3"/>
            <path id="Path_4029" data-name="Path 4029" d="M128.435,149.278a6.592,6.592,0,0,1-4.638-1.9,6.421,6.421,0,0,1-1.914-4.575l.131-60.745a6.509,6.509,0,0,1,6.552-6.451h13.613a19.488,19.488,0,0,1,19.593,19.332v1.477a78.61,78.61,0,0,1-8.311,36.015c-5.387,10.4-11.451,16.847-25.026,16.847" transform="translate(163.934 101.692)" fill="#ffd4c3"/>
            <g id="Group_1041" data-name="Group 1041" transform="translate(104.731 177.299)" opacity="0.3" style="mix-blend-mode: multiply;isolation: isolate">
              <g id="Group_1040" data-name="Group 1040">
                <g id="Group_1039" data-name="Group 1039" clip-path="url(#clip-path-12)">
                  <path id="Path_4030" data-name="Path 4030" d="M78,149.278c-13.575,0-19.642-6.444-25.026-16.847a78.609,78.609,0,0,1-8.311-36.015V94.939A19.488,19.488,0,0,1,64.254,75.607H77.866a6.505,6.505,0,0,1,6.55,6.451L84.55,142.8a6.421,6.421,0,0,1-1.914,4.575,6.592,6.592,0,0,1-4.638,1.9" transform="translate(-44.661 -75.607)" fill="#ffd4c3"/>
                </g>
              </g>
            </g>
            <g id="Group_1044" data-name="Group 1044" transform="translate(285.82 177.299)" opacity="0.3" style="mix-blend-mode: multiply;isolation: isolate">
              <g id="Group_1043" data-name="Group 1043">
                <g id="Group_1042" data-name="Group 1042" clip-path="url(#clip-path-13)">
                  <path id="Path_4031" data-name="Path 4031" d="M128.435,149.278a6.592,6.592,0,0,1-4.638-1.9,6.421,6.421,0,0,1-1.914-4.575l.131-60.745a6.509,6.509,0,0,1,6.552-6.451h13.613a19.488,19.488,0,0,1,19.593,19.332v1.477a78.61,78.61,0,0,1-8.311,36.015c-5.387,10.4-11.451,16.847-25.026,16.847" transform="translate(-121.885 -75.607)" fill="#ffd4c3"/>
                </g>
              </g>
            </g>
            <path id="Path_4032" data-name="Path 4032" d="M252.282,169.988l-63.81-19.349a53.255,53.255,0,0,1-12.827-6.083L85.4,215.861v70.379H307.265a6.881,6.881,0,0,0,6.883-6.883V253.4a86.671,86.671,0,0,0-61.866-83.412" transform="translate(114.865 194.43)" fill="#01417f"/>
            <path id="Path_4033" data-name="Path 4033" d="M183.539,149.514a53.823,53.823,0,0,1-6.887-4.833l-4.376-3.811L82.153,212.081a6.871,6.871,0,0,0-2.622,5.405V291.2H93.3V220.819Z" transform="translate(106.97 189.472)" fill="#6ccc8d"/>
            <path id="Path_4034" data-name="Path 4034" d="M192.152,167.918l-12.075-10.513V127.645a6.881,6.881,0,0,0-6.88-6.885H81.626a6.881,6.881,0,0,0-6.88,6.885v29.761l-9.992,8.7,64.8,51.274Z" transform="translate(87.095 162.424)" fill="#ffd4c3"/>
            <path id="Path_4035" data-name="Path 4035" d="M192.152,167.918l-12.075-10.513V127.645a6.881,6.881,0,0,0-6.88-6.885H81.626a6.881,6.881,0,0,0-6.88,6.885v29.761l-9.992,8.7,64.8,51.274Z" transform="translate(87.095 162.424)" fill="#ffd4c3"/>
            <path id="Path_4036" data-name="Path 4036" d="M151.849,140.1l-6.46,5.626a53.917,53.917,0,0,1-4.563,3.2,53.154,53.154,0,0,1-15.144,7.713L61.864,175.986A86.669,86.669,0,0,0,0,259.4v25.957a6.881,6.881,0,0,0,6.883,6.883H186.5V218.527a6.87,6.87,0,0,1,2.622-5.405l16.434-12.982,11.1-8.77Z" transform="translate(0 188.431)" fill="#01417f"/>
            <path id="Path_4037" data-name="Path 4037" d="M142.226,223.166a58.4,58.4,0,0,1-30.935-8.925C85.257,198,54.218,172.308,54.218,142.134V77.511A6.881,6.881,0,0,1,61.1,70.628H223.352a6.882,6.882,0,0,1,6.883,6.883v64.624c0,30.178-31.039,55.868-57.073,72.107a58.387,58.387,0,0,1-30.935,8.925" transform="translate(72.924 94.996)" fill="#ffd4c3"/>
            <path id="Path_4038" data-name="Path 4038" d="M275.463,121.861c4.069-9.012,10.189-16.788,16.772-24.163a52.924,52.924,0,0,0-76.143-73.427A54.843,54.843,0,0,0,124.355,25.3,52.863,52.863,0,0,0,71.084,11.718a51.927,51.927,0,0,0-31.623,26.6,53.142,53.142,0,0,0,7.631,59.19c6.744,7.626,13.066,15.615,17.311,24.869l6.4,13.948H268.935Z" transform="translate(45.403)" fill="#6ccc8d"/>
            <path id="Path_4039" data-name="Path 4039" d="M236.5,94.274l11.179-36.139H49.557l10.93,36.193Z" transform="translate(66.655 78.192)" fill="#01417f"/>
            <path id="Path_4040" data-name="Path 4040" d="M94.772,187.807a9.7,9.7,0,1,1,9.706,9.7,9.706,9.706,0,0,1-9.706-9.7" transform="translate(127.47 239.548)" fill="#fff"/>
            <path id="Path_4041" data-name="Path 4041" d="M94.772,201.691a9.7,9.7,0,1,1,9.706,9.7,9.706,9.706,0,0,1-9.706-9.7" transform="translate(127.47 258.222)" fill="#fff"/>
          </g>
        </g>
      </g>
    </g>
    <g id="fork" transform="matrix(0.914, -0.407, 0.407, 0.914, 1117.178, 577.316)">
      <path id="Path_4042" data-name="Path 4042" d="M4.147,0,0,102.272H19.622L15.378,0Z" transform="translate(36.446 0)" fill="#6ccc8d"/>
      <g id="Group_1050" data-name="Group 1050" transform="translate(0 0.001)">
        <g id="Group_1049" data-name="Group 1049" clip-path="url(#clip-path-14)">
          <path id="Path_4043" data-name="Path 4043" d="M46.258,121.657C20.751,121.657,0,101.451,0,76.61L3.612,0h9.73l1.524,42.022c0,22.618,12.121,39.06,31.392,39.06s31.332-16.9,31.332-39.06L79.064,0h9.78l3.668,76.61c0,24.841-20.751,45.047-46.255,45.047" fill="#6ccc8d"/>
          <rect id="Rectangle_393" data-name="Rectangle 393" width="16.96" height="69.136" transform="translate(37.777 116.151)" fill="#6ccc8d"/>
          <path id="Path_4044" data-name="Path 4044" d="M18.268,207.537A18.055,18.055,0,0,1,0,189.744V5.594A5.584,5.584,0,0,1,5.633.086L30.865,0c1.695.4,2.949.572,4.011,1.608a5.438,5.438,0,0,1,1.662,3.9V189.744a18.056,18.056,0,0,1-18.27,17.793" transform="translate(27.989 179.779)" fill="#01417f"/>
        </g>
      </g>
    </g>
    <g id="knife" transform="matrix(0.799, -0.602, 0.602, 0.799, 2162.448, 74.068)">
      <g id="Group_1052" data-name="Group 1052" clip-path="url(#clip-path-15)">
        <path id="Path_4045" data-name="Path 4045" d="M58.759.483A5.949,5.949,0,0,0,52.3,1.647C12.5,39.645.1,59.958.1,112.98c0,.865-3.041,72.507,23.757,90.134L26,208.07h.56a13.152,13.152,0,0,0,1.958.856l.192-.856H50.455v4.023H62.372V5.959A5.956,5.956,0,0,0,58.759.483" transform="translate(-0.001 0)" fill="#6ccc8d"/>
        <path id="Path_4046" data-name="Path 4046" d="M16,224.326c-9.467-1.56-16-10.476-16-20.07V0H38.513V205.341A19.281,19.281,0,0,1,16,224.326" transform="translate(23.86 203.115)" fill="#01417f"/>
      </g>
    </g>
    <g id="turkey" transform="translate(1433.485 452.061) rotate(9)">
      <g id="Group_1057" data-name="Group 1057" clip-path="url(#clip-path-16)">
        <path id="Path_4049" data-name="Path 4049" d="M22.729,74.088a5.871,5.871,0,0,1-4.149-1.707L1.719,55.611a5.811,5.811,0,0,1,.041-8.292L20.45,29.1A19.748,19.748,0,0,1,23.982,5.8a20.039,20.039,0,0,1,28.2,0,19.088,19.088,0,0,1,5.5,11.3A19.289,19.289,0,0,1,69.05,22.57a19.777,19.777,0,0,1,0,28.048,20.005,20.005,0,0,1-23.439,3.507L26.84,72.42a5.855,5.855,0,0,1-4.111,1.669M46.105,53.639l-.013,0,.013,0" transform="translate(354.407 0)" fill="#6ccc8d"/>
        <path id="Path_4050" data-name="Path 4050" d="M26.689,87a6.9,6.9,0,0,1-4.872-2.008L2.019,65.3a6.824,6.824,0,0,1,.047-9.737l21.946-21.4A23.179,23.179,0,0,1,28.162,6.812a23.528,23.528,0,0,1,33.116,0,22.42,22.42,0,0,1,6.457,13.264A22.635,22.635,0,0,1,81.078,26.5a23.225,23.225,0,0,1,0,32.936,23.49,23.49,0,0,1-27.521,4.116L31.515,85.034A6.874,6.874,0,0,1,26.689,87M54.137,62.983l-.013.006.013-.006" transform="translate(449.542 32.871)" fill="#6ccc8d"/>
        <path id="Path_4051" data-name="Path 4051" d="M87.926,65.048a7.611,7.611,0,0,1-.8-.043L6.445,56.117a7.193,7.193,0,0,1-2.4-13.622C22.913,33.283,49.2,19.093,67.317,3.813A16.81,16.81,0,0,1,89.837,4.9L106.23,21.2a16.556,16.556,0,0,1,1.065,22.439A166.39,166.39,0,0,0,94.021,61.73a7.257,7.257,0,0,1-6.095,3.318" transform="translate(279.456 37.237)" fill="#ffd4c3"/>
        <path id="Path_4052" data-name="Path 4052" d="M433.922,211.874h-.009l-421.13-.553a6.473,6.473,0,0,1-4.872-2.207C-5.217,194.132.867,178.271,5.756,165.528c2.415-6.3,4.7-12.245,4.7-17.457,0-38.109,32.678-75.716,92.014-105.883C153.641,16.168,217.015,0,267.854,0c38.949,0,76.2,9.555,107.723,27.634a6.667,6.667,0,0,1,1.109.8l52.275,47.01a6.409,6.409,0,0,1,1,1.137c14.991,21.746,22.915,46.47,22.915,71.491,0,19.048-4.613,40.314-13,59.885a6.47,6.47,0,0,1-5.955,3.916" transform="translate(25.854 81.038)" fill="#6ccc8d"/>
        <path id="Path_4053" data-name="Path 4053" d="M32,228.774c-4.684,0-9.287-.034-13.768-.075l-3.85-.026a6.884,6.884,0,0,1-6.77-5.875L1.21,178.632A116.221,116.221,0,0,1,72.035,54.522v-.006c34.593-14.3,73.391-31.147,95.9-50.028a19.51,19.51,0,0,1,26.115,1.1l21.338,21.223a19.036,19.036,0,0,1,1.247,25.8c-21.625,25.184-39.668,62.376-55.586,95.189-13.317,27.454-23.838,49.138-34.013,59.051C106.638,226.732,67.223,228.774,32,228.774" transform="translate(266.482 82.115)" fill="#ffd4c3"/>
        <path id="Path_4054" data-name="Path 4054" d="M65.9,59.482c-17.974,0-37.105-1.51-50.979-15.559A52.269,52.269,0,0,1,0,6.883,6.952,6.952,0,0,1,1.9,2.1,6.72,6.72,0,0,1,6.472,0h493.1a6.453,6.453,0,0,1,6.472,6.437v.736c0,12.886-4.21,24.775-11.855,33.47-16.587,18.866-42.312,18.789-64.97,18.733L80.649,59.369l-7.339.056c-2.433.032-4.913.058-7.408.058" transform="translate(0 281.149)" fill="#01417f"/>
      </g>
    </g>
    <g id="thermometer" transform="translate(1986.303 123.484) rotate(6)">
      <g id="Group_1065" data-name="Group 1065" clip-path="url(#clip-path-17)">
        <path id="Path_4065" data-name="Path 4065" d="M44.151,319.467h0C19.869,319.467,0,300.982,0,278.391V41.075C0,18.484,19.869,0,44.151,0S88.3,18.484,88.3,41.075V278.391c0,22.591-19.869,41.075-44.151,41.075" transform="translate(0.003)" fill="#6ccc8d"/>
        <path id="Path_4066" data-name="Path 4066" d="M0,151.909c0,5.38,4.731,9.781,10.513,9.781s10.511-4.4,10.511-9.781V0H0Z" transform="translate(33.641 184.508)" fill="#01417f"/>
        <path id="Path_4067" data-name="Path 4067" d="M10.513,0C4.731,0,0,4.4,0,9.781V149.954H21.024V9.781C21.024,4.4,16.3,0,10.513,0" transform="translate(33.641 34.556)" fill="#ffd4c3"/>
        <rect id="Rectangle_404" data-name="Rectangle 404" width="21.379" height="4.786" transform="translate(0 54.328)" fill="#01417f"/>
        <rect id="Rectangle_405" data-name="Rectangle 405" width="21.379" height="4.786" transform="translate(66.929 54.328)" fill="#01417f"/>
        <rect id="Rectangle_406" data-name="Rectangle 406" width="21.379" height="4.786" transform="translate(0 272.088)" fill="#01417f"/>
        <rect id="Rectangle_407" data-name="Rectangle 407" width="21.379" height="4.786" transform="translate(66.929 272.088)" fill="#01417f"/>
        <rect id="Rectangle_408" data-name="Rectangle 408" width="21.379" height="4.786" transform="translate(66.929 240.98)" fill="#01417f"/>
        <rect id="Rectangle_409" data-name="Rectangle 409" width="21.379" height="4.786" transform="translate(0 240.98)" fill="#01417f"/>
        <rect id="Rectangle_410" data-name="Rectangle 410" width="21.379" height="4.786" transform="translate(0 209.87)" fill="#01417f"/>
        <rect id="Rectangle_411" data-name="Rectangle 411" width="21.379" height="4.786" transform="translate(66.929 209.87)" fill="#01417f"/>
        <rect id="Rectangle_412" data-name="Rectangle 412" width="21.379" height="4.786" transform="translate(0 178.762)" fill="#01417f"/>
        <rect id="Rectangle_413" data-name="Rectangle 413" width="21.379" height="4.786" transform="translate(66.929 178.762)" fill="#01417f"/>
        <rect id="Rectangle_414" data-name="Rectangle 414" width="21.379" height="4.786" transform="translate(66.929 147.654)" fill="#01417f"/>
        <rect id="Rectangle_415" data-name="Rectangle 415" width="21.379" height="4.786" transform="translate(0 147.654)" fill="#01417f"/>
        <rect id="Rectangle_416" data-name="Rectangle 416" width="21.379" height="4.786" transform="translate(66.929 116.546)" fill="#01417f"/>
        <rect id="Rectangle_417" data-name="Rectangle 417" width="21.379" height="4.786" transform="translate(0 116.546)" fill="#01417f"/>
        <rect id="Rectangle_418" data-name="Rectangle 418" width="21.379" height="4.786" transform="translate(0 85.436)" fill="#01417f"/>
        <rect id="Rectangle_419" data-name="Rectangle 419" width="21.379" height="4.786" transform="translate(66.929 85.436)" fill="#01417f"/>
        <path id="Path_4068" data-name="Path 4068" d="M0,151.909c0,5.38,4.731,9.781,10.513,9.781s10.511-4.4,10.511-9.781V0H0Z" transform="translate(33.641 84.419)" fill="#01417f"/>
      </g>
    </g>
  </g>
</svg>
