<svg xmlns="http://www.w3.org/2000/svg" xmlns:xlink="http://www.w3.org/1999/xlink" width="500" height="825" viewBox="0 0 500 825">
  <defs>
    <clipPath id="clip-path">
      <rect id="Rectangle_383" data-name="Rectangle 383" width="184.569" height="396.743" fill="none"/>
    </clipPath>
    <clipPath id="clip-path-2">
      <rect id="Rectangle_384" data-name="Rectangle 384" width="532.935" height="500" fill="none"/>
    </clipPath>
    <clipPath id="clip-path-3">
      <rect id="Rectangle_403" data-name="Rectangle 403" width="108.791" height="104.468" fill="none"/>
    </clipPath>
    <clipPath id="clip-path-5">
      <rect id="Rectangle_401" data-name="Rectangle 401" width="24.226" height="9.509" fill="none"/>
    </clipPath>
    <clipPath id="clip-path-6">
      <rect id="Rectangle_397" data-name="Rectangle 397" width="39.592" height="132.892" fill="none"/>
    </clipPath>
    <clipPath id="clip-path-7">
      <rect id="Rectangle_387" data-name="Rectangle 387" width="130.945" height="123.285" fill="none"/>
    </clipPath>
    <clipPath id="clip-path-8">
      <rect id="Rectangle_388" data-name="Rectangle 388" width="139.233" height="120.7" fill="none"/>
    </clipPath>
    <clipPath id="clip-path-9">
      <rect id="Rectangle_392" data-name="Rectangle 392" width="140.504" height="157.421" fill="none"/>
    </clipPath>
    <clipPath id="clip-path-11">
      <rect id="Rectangle_389" data-name="Rectangle 389" width="13.064" height="24.127" fill="none"/>
    </clipPath>
    <clipPath id="clip-path-12">
      <rect id="Rectangle_390" data-name="Rectangle 390" width="13.063" height="24.127" fill="none"/>
    </clipPath>
    <clipPath id="clip-path-13">
      <rect id="Rectangle_394" data-name="Rectangle 394" width="30.298" height="126.848" fill="none"/>
    </clipPath>
    <clipPath id="clip-path-14">
      <rect id="Rectangle_395" data-name="Rectangle 395" width="20.428" height="140.077" fill="none"/>
    </clipPath>
    <clipPath id="clip-path-15">
      <rect id="Rectangle_398" data-name="Rectangle 398" width="176.023" height="111.558" fill="none"/>
    </clipPath>
    <clipPath id="clip-path-16">
      <rect id="Rectangle_420" data-name="Rectangle 420" width="28.921" height="113.381" fill="none"/>
    </clipPath>
    <clipPath id="clip-justsafefood-marquee-S">
      <rect width="500" height="825"/>
    </clipPath>
  </defs>
  <g id="justsafefood-marquee-S" clip-path="url(#clip-justsafefood-marquee-S)">
    <rect width="500" height="825" fill="#fff"/>
    <rect id="bkgd" width="500" height="825" fill="#f6fcf8"/>
    <rect id="Rectangle_905" data-name="Rectangle 905" width="500" height="41" fill="#01417f"/>
    <g id="shape-green" transform="translate(397.006 640.43) rotate(90)">
      <g id="Group_1030" data-name="Group 1030" clip-path="url(#clip-path)">
        <path id="Path_4008" data-name="Path 4008" d="M184.57,0C17.1,56.958,199.923,221.936,89.253,260.768,3.94,295.729-10.851,342.2,6.3,396.743H184.57Z" transform="translate(0)" fill="#6ccc8d"/>
      </g>
    </g>
    <g id="shape-blue" transform="translate(500 25) rotate(90)" clip-path="url(#clip-path-2)">
      <path id="Path_4009" data-name="Path 4009" d="M604.113,0c67.461,227.081-325.763,254.721-167.1,500H0V0Z" transform="translate(-79.042)" fill="#01417f"/>
    </g>
    <g id="hands" transform="translate(-0.533 509.545) rotate(3)">
      <g id="Group_1064" data-name="Group 1064" clip-path="url(#clip-path-3)">
        <g id="Group_1063" data-name="Group 1063">
          <g id="Group_1062" data-name="Group 1062" clip-path="url(#clip-path-3)">
            <path id="Path_4055" data-name="Path 4055" d="M22.766,20.323V5.5H7.443L6.185,7.439,0,7.377V0H28.7a.662.662,0,0,1,.662.661V20.323Z" transform="translate(55.359 0)" fill="#6ccc8d"/>
            <path id="Path_4056" data-name="Path 4056" d="M0,7.6v-5.3A2.2,2.2,0,0,1,2.088,0H24.83a2.175,2.175,0,0,1,2.088,2.293V7.6a1.462,1.462,0,0,1-1.461,1.466h-24A1.462,1.462,0,0,1,0,7.6" transform="translate(67.701 18.858)" fill="#01417f"/>
            <path id="Path_4057" data-name="Path 4057" d="M0,8.1v0Z" transform="translate(108.791 94.902)" fill="#232323"/>
            <path id="Path_4058" data-name="Path 4058" d="M0,16.635c0-4.3,2.5-10.3,5.851-12.987A16.617,16.617,0,0,1,16.275,0h22.7A16.611,16.611,0,0,1,50.588,4.7c2.691,2.615,4.665,8.055,4.665,11.815l0,49.777H0V78.014Z" transform="translate(53.534 24.988)" fill="#6ccc8d"/>
            <path id="Path_4059" data-name="Path 4059" d="M0,0V0Z" transform="translate(108.791 91.277)" fill="#232323"/>
            <path id="Path_4060" data-name="Path 4060" d="M55.253,0V11.727a1.463,1.463,0,0,1-1.461,1.464H1.461A1.463,1.463,0,0,1,0,11.727V0Z" transform="translate(53.538 91.276)" fill="#01417f"/>
            <path id="Path_4061" data-name="Path 4061" d="M27.625,0a1.462,1.462,0,0,1,1.461,1.466V28.72a1.462,1.462,0,0,1-1.461,1.466H0V0Z" transform="translate(53.538 51.661)" fill="#01417f"/>
            <rect id="Rectangle_399" data-name="Rectangle 399" width="18.331" height="4.397" transform="translate(53.538 60.057)" fill="#fff"/>
            <rect id="Rectangle_400" data-name="Rectangle 400" width="18.331" height="4.397" transform="translate(53.538 69.053)" fill="#fff"/>
            <path id="Path_4062" data-name="Path 4062" d="M1.8,53.718A1.807,1.807,0,0,1,0,51.99L0,22.106a1.816,1.816,0,0,1,.625-1.461L18.958,4.811A13.8,13.8,0,0,1,28.864,1.44L43,2.248a8.547,8.547,0,0,1,7.128,12.395A44.091,44.091,0,0,0,69.9,4.815l3.509-3.031a7.326,7.326,0,0,1,10.362.778,7.4,7.4,0,0,1-.777,10.4l-1.627,1.406A92.985,92.985,0,0,1,36.758,35.572l-9.324,1.646a15.568,15.568,0,0,0-7.467,3.548L2.934,53.32a1.8,1.8,0,0,1-1.13.4" transform="translate(0 31.768)" fill="#ffd4c3"/>
            <path id="Path_4063" data-name="Path 4063" d="M7.285,20.077A7.305,7.305,0,0,1,0,12.768C0,9.309,4.911,2.129,5.894.725a1.7,1.7,0,0,1,2.783,0c.983,1.4,5.891,8.584,5.891,12.043a7.3,7.3,0,0,1-7.282,7.309" transform="translate(51.339 11.071)" fill="#ffd4c3"/>
            <g id="Group_1061" data-name="Group 1061" transform="translate(30.103 45.246)" opacity="0.4" style="mix-blend-mode: multiply;isolation: isolate">
              <g id="Group_1060" data-name="Group 1060">
                <g id="Group_1059" data-name="Group 1059" clip-path="url(#clip-path-5)">
                  <path id="Path_4064" data-name="Path 4064" d="M12.42,9.509A12.186,12.186,0,0,0,24.226,0c-1.384.439-2.774.866-4.2,1.166,0-.008.006-.018.01-.026a8.525,8.525,0,0,1-7.573,4.742L.19,5.247,0,8.871l11.823.624Z" transform="translate(0 0)" fill="#ffd4c3"/>
                </g>
              </g>
            </g>
          </g>
        </g>
      </g>
    </g>
    <g id="spoon" transform="translate(165.524 667.579) rotate(31)">
      <rect id="Rectangle_396" data-name="Rectangle 396" width="6.355" height="15.683" transform="translate(16.619 50.478)" fill="#6ccc8d"/>
      <g id="Group_1055" data-name="Group 1055">
        <g id="Group_1054" data-name="Group 1054" clip-path="url(#clip-path-6)">
          <path id="Path_4047" data-name="Path 4047" d="M19.8,52.541A19.82,19.82,0,0,1,0,32.743C0,21.823,8.558,0,19.8,0s19.8,21.823,19.8,32.743a19.819,19.819,0,0,1-19.8,19.8" transform="translate(0 0.001)" fill="#6ccc8d"/>
          <path id="Path_4048" data-name="Path 4048" d="M5.977,69.715A5.983,5.983,0,0,1,0,63.738V1.879A1.85,1.85,0,0,1,1.843.029L10.1,0a2.285,2.285,0,0,1,1.313.54,1.852,1.852,0,0,1,.543,1.31V63.738a5.983,5.983,0,0,1-5.976,5.977" transform="translate(13.819 63.178)" fill="#01417f"/>
        </g>
      </g>
    </g>
    <g id="veggies" transform="translate(368.203 650.264) rotate(-9)">
      <g id="Group_1035" data-name="Group 1035" clip-path="url(#clip-path-7)">
        <path id="Path_4010" data-name="Path 4010" d="M21.635,23.877a1.691,1.691,0,0,1-1.48-.916l-.005,0c-.012-.02-.028-.049-.047-.083-.088-.138-.172-.282-.257-.427-1.821-3.121-6.079-4.868-9.838-6.411a26.259,26.259,0,0,1-5.942-2.99A9.822,9.822,0,0,1,.009,6.1,5.947,5.947,0,0,1,1.8,1.438c3.832-3.712,8.052.636,10.575,3.234.1.1,7.118,9.949,9.863,15.135.211.292.41.593.593.907l.3.514-.162.1a2.488,2.488,0,0,1,.318,1.425,1.727,1.727,0,0,1-1.47,1.117c-.063,0-.124.008-.183.008" transform="translate(94.062 4.723)" fill="#6ccc8d"/>
        <rect id="Rectangle_385" data-name="Rectangle 385" width="5.247" height="19.523" transform="translate(110.723 2.507)" fill="#01417f"/>
        <path id="Path_4011" data-name="Path 4011" d="M25.333,98.705c-.077,0-.329-.02-.407-.031h-.058A24.7,24.7,0,0,1,0,74.047L6.59,6.211A1.749,1.749,0,0,1,7.87,4.692l17-4.632a1.784,1.784,0,0,1,.937,0L42.14,4.7A1.746,1.746,0,0,1,43.4,6.211l6.58,67.667a24.71,24.71,0,0,1-24.65,24.828" transform="translate(44.078 24.58)" fill="#01417f"/>
        <rect id="Rectangle_386" data-name="Rectangle 386" width="5.247" height="12.615" transform="translate(66.787 0)" fill="#01417f"/>
        <path id="Path_4012" data-name="Path 4012" d="M41.737,55a35.857,35.857,0,0,1-5.444-.432c-.262-.041-.587-.069-.944-.087a23.245,23.245,0,0,0-2.524,0c-.366.02-.689.048-.947.089a29.048,29.048,0,0,1-14.725-1.155,22.654,22.654,0,0,1-10.01-7.447A32.19,32.19,0,0,1,1.669,34.623,49.444,49.444,0,0,1,0,21.541,30.594,30.594,0,0,1,2.7,8.55,20.337,20.337,0,0,1,9.334.391,1.75,1.75,0,0,1,10.435,0h47.3a1.751,1.751,0,0,1,1.1.391,20.33,20.33,0,0,1,6.631,8.161,30.583,30.583,0,0,1,2.7,12.989A49.41,49.41,0,0,1,66.5,34.623,32.2,32.2,0,0,1,61.023,45.97a22.649,22.649,0,0,1-10.011,7.445A26.215,26.215,0,0,1,41.737,55" transform="translate(0 68.282)" fill="#ffd4c3"/>
        <path id="Path_4013" data-name="Path 4013" d="M.3,12.638C.009,9.775-.478,2.812,1.177,0L5.7,2.661c-.5.963-.587,5.385-.182,9.454Z" transform="translate(31.179 50.11)" fill="#01417f"/>
        <path id="Path_4014" data-name="Path 4014" d="M52.66,9.1c-.055-.031-5.591-3.2-11.932-6.477-.361-.217-8.33-4.914-13.773-1.2A11.776,11.776,0,0,0,20.028.4,27.177,27.177,0,0,0,9.8,3.646,98.741,98.741,0,0,0,.743,9.19a1.748,1.748,0,0,0-.058,2.818C2.637,13.5,9.793,13.943,14.62,12.2c.523,3.592,1.54,7.948,1.594,8.178a1.75,1.75,0,0,0,2.956.821,53.682,53.682,0,0,1,7.8-6.795c2.611,1.464,6.87,3.763,6.87,3.763a1.749,1.749,0,0,0,2.536-1.146,15.711,15.711,0,0,1,2.171-4.667c4.6,1.93,12.169,1.289,14.306-.346a1.749,1.749,0,0,0-.2-2.907" transform="translate(6.79 58.858)" fill="#6ccc8d"/>
        <path id="Path_4015" data-name="Path 4015" d="M22.516,26.667a7.173,7.173,0,0,1-5.09-2.106,3.767,3.767,0,0,0-2.645-1.1H4.29a4.264,4.264,0,0,1-3.222-1.473,4.384,4.384,0,0,1-1.023-3.5c1.206-8.477,4.8-14.986,9.615-17.408,2.313-1.165,6.126-1.979,11.155.748.667.361,2.106.146,3.5-.066a14.628,14.628,0,0,1,5.6-.1C38.57,3.73,43.823,9.541,45.1,18.477a4.384,4.384,0,0,1-1.032,3.509,4.588,4.588,0,0,1-3.241,1.462l-10.411-.063a3.777,3.777,0,0,0-2.669,1.1,7.385,7.385,0,0,1-5.232,2.188" transform="translate(46.838 9.244)" fill="#6ccc8d"/>
        <path id="Path_4016" data-name="Path 4016" d="M17.6,102.654C5.753,102.654,0,14.348,0,13.456,0,6.037,7.894,0,17.6,0S35.2,6.037,35.2,13.456c0,.892-5.753,89.2-17.6,89.2" transform="translate(95.748 20.631)" fill="#ffd4c3"/>
        <path id="Path_4017" data-name="Path 4017" d="M.675,3.07c-.239.14-.449.295-.675.441Q.146,5.384.33,7.6A13.559,13.559,0,0,1,2.443,6.09a20.625,20.625,0,0,1,9.291-2.6L11.569,0A23.861,23.861,0,0,0,.675,3.07" transform="translate(96.303 38.436)" fill="#6ccc8d"/>
        <path id="Path_4018" data-name="Path 4018" d="M0,3.947Q.2,6.061.414,8.311c1.964-2.327,5.331-4.05,9.714-4.875L9.482,0A22.364,22.364,0,0,0,0,3.947" transform="translate(97.279 49.439)" fill="#6ccc8d"/>
        <path id="Path_4019" data-name="Path 4019" d="M0,3.227Q.209,5.165.434,7.145c.183-.137.319-.29.514-.424a20.649,20.649,0,0,1,9.083-3.247L9.618,0A24.244,24.244,0,0,0,0,3.227" transform="translate(98.446 61.838)" fill="#6ccc8d"/>
        <path id="Path_4020" data-name="Path 4020" d="M0,3.921Q.27,6.026.557,8.129C2.543,5.9,5.833,4.239,10.1,3.436L9.452,0A22.406,22.406,0,0,0,0,3.921" transform="translate(99.878 73.324)" fill="#6ccc8d"/>
        <path id="Path_4021" data-name="Path 4021" d="M2.6,1.377A14.671,14.671,0,0,0,0,2.782Q.317,4.8.651,6.776A9.656,9.656,0,0,1,3.955,4.6,15.626,15.626,0,0,1,8.58,3.485L8.254,0A19.2,19.2,0,0,0,2.6,1.377" transform="translate(101.597 86.606)" fill="#6ccc8d"/>
        <path id="Path_4022" data-name="Path 4022" d="M7.264,0A19.274,19.274,0,0,0,0,2.942C.282,4.244.572,5.5.868,6.709A14.26,14.26,0,0,1,7.951,3.43Z" transform="translate(104.158 100.473)" fill="#6ccc8d"/>
      </g>
    </g>
    <g id="steak" transform="translate(88.418 364.649)">
      <g id="Group_1037" data-name="Group 1037" clip-path="url(#clip-path-8)">
        <path id="Path_4023" data-name="Path 4023" d="M34.65,139.58c-12.411,0-24.027-3.731-30.283-9.879-2.988-2.937-4.5-6.239-4.359-9.551l0-23.312a2.022,2.022,0,0,1,1.324-1.9L136.513,45.307a2.021,2.021,0,0,1,2.719,1.9V67.037a33.849,33.849,0,0,1-6.985,20.915c-11.207,14.238-29.677,27.638-56.465,40.965a119.212,119.212,0,0,1-19.652,7.8c-5.5,1.617-9.839,2.286-17.857,2.756q-1.818.107-3.623.107" transform="translate(0 -18.88)" fill="#01417f"/>
        <path id="Path_4024" data-name="Path 4024" d="M34.65,97.308c-12.411,0-24.025-3.731-30.282-9.879-2.989-2.938-4.5-6.241-4.36-9.553.229-5.555,3.418-9.774,9.75-12.9.051-.026.106-.049.16-.071.238-.093,23.814-9.583,24.09-32.353.143-11.814,8.85-22.635,22.185-27.564C65.013,1.725,75.71,0,87.125,0c16,0,30.992,3.437,41.13,9.427,9.93,5.866,13.6,17.043,8.719,26.577-9.2,17.979-29.784,35.017-61.193,50.639a119.156,119.156,0,0,1-19.652,7.8c-5.505,1.619-9.845,2.288-17.857,2.758-1.211.071-2.421.107-3.623.107M11.483,68.634c-6.448,3.2-7.332,6.9-7.436,9.407C3.937,80.747,5.7,83.07,7.2,84.544c4.986,4.9,16.446,9.445,30.835,8.622,7.664-.451,11.784-1.082,16.955-2.6a115.432,115.432,0,0,0,18.991-7.544c30.616-15.229,50.6-31.667,59.394-48.858,3.936-7.694.984-16.435-7.177-21.254-9.534-5.635-23.776-8.866-39.073-8.866-10.941,0-21.153,1.638-29.529,4.736C45.845,13.127,38.173,22.476,38.05,32.6c-.3,24.736-24.8,35.305-26.567,36.034" transform="translate(0 0)" fill="#232323"/>
        <path id="Path_4025" data-name="Path 4025" d="M34.618,97.308c-12.817,0-24.566-3.945-30.659-10.294C1.245,84.187-.121,81.026.008,77.875c.229-5.555,3.418-9.774,9.75-12.9.4-.164,23.974-9.654,24.25-32.425.143-11.814,8.85-22.632,22.184-27.564C65.013,1.725,75.71,0,87.124,0c16,0,30.992,3.437,41.131,9.427,9.93,5.866,13.6,17.043,8.719,26.577-9.2,17.979-29.784,35.017-61.193,50.64a119.272,119.272,0,0,1-19.652,7.8c-5.506,1.619-9.845,2.288-17.858,2.758q-1.848.107-3.654.107" transform="translate(0 0)" fill="#6ccc8d"/>
        <path id="Path_4026" data-name="Path 4026" d="M67.615,121.853a11.976,11.976,0,0,1-1.283.478c-5.719,1.763-11.512,3.079-14.006-1.735-2.375-4.585,2.035-8.862,6.661-12.439a11.466,11.466,0,0,1,9.378-2.207,6.828,6.828,0,0,1,5.18,9.985,11.421,11.421,0,0,1-5.93,5.917" transform="translate(-21.588 -44.17)" fill="#ffd4c3"/>
        <path id="Path_4027" data-name="Path 4027" d="M87.125,8.086c14.594,0,28.087,3.026,37.019,8.3,6.232,3.681,8.548,10.232,5.632,15.932C121.385,48.727,102.007,64.568,72.182,79.4a111.358,111.358,0,0,1-18.333,7.283c-4.891,1.438-8.64,2.009-16.041,2.443q-1.613.093-3.189.093c-10.529,0-20.274-3.064-24.825-7.806a5.025,5.025,0,0,1-1.705-3.206c.049-1.192.14-3.4,5.036-5.873C17.188,70.613,41.774,59.1,42.094,32.651c.1-8.436,6.737-16.318,16.9-20.078,7.935-2.935,17.661-4.487,28.127-4.487m0-8.086C75.711,0,65.014,1.725,56.193,4.989,42.858,9.921,34.151,20.739,34.008,32.553c-.276,22.77-23.851,32.261-24.25,32.424C3.426,68.1.238,72.32.009,77.875c-.129,3.151,1.236,6.312,3.95,9.139C10.054,93.363,21.8,97.308,34.619,97.308q1.806,0,3.655-.107c8.013-.47,12.352-1.139,17.857-2.758a119.3,119.3,0,0,0,19.652-7.8c31.408-15.622,52-32.66,61.193-50.639,4.877-9.534,1.21-20.711-8.719-26.577C118.117,3.437,103.126,0,87.125,0" transform="translate(0 0)" fill="#ffd4c3"/>
      </g>
    </g>
    <g id="chef" transform="translate(219.871 667.578)">
      <g id="Group_1047" data-name="Group 1047" clip-path="url(#clip-path-9)">
        <g id="Group_1046" data-name="Group 1046">
          <g id="Group_1045" data-name="Group 1045" clip-path="url(#clip-path-9)">
            <path id="Path_4028" data-name="Path 4028" d="M55.579,99.735c-4.446,0-6.433-2.11-8.2-5.517a25.745,25.745,0,0,1-2.722-11.795v-.484a6.383,6.383,0,0,1,6.417-6.331h4.458a2.131,2.131,0,0,1,2.145,2.113l.044,19.894a2.1,2.1,0,0,1-.627,1.5,2.159,2.159,0,0,1-1.519.622" transform="translate(-10.361 -17.541)" fill="#ffd4c3"/>
            <path id="Path_4029" data-name="Path 4029" d="M124.029,99.735a2.159,2.159,0,0,1-1.519-.622,2.1,2.1,0,0,1-.627-1.5l.043-19.894a2.132,2.132,0,0,1,2.146-2.113h4.458a6.383,6.383,0,0,1,6.417,6.331v.484a25.745,25.745,0,0,1-2.722,11.795c-1.764,3.407-3.75,5.517-8.2,5.517" transform="translate(-28.276 -17.541)" fill="#ffd4c3"/>
            <g id="Group_1041" data-name="Group 1041" transform="translate(34.3 58.066)" opacity="0.3" style="mix-blend-mode: multiply;isolation: isolate">
              <g id="Group_1040" data-name="Group 1040">
                <g id="Group_1039" data-name="Group 1039" clip-path="url(#clip-path-11)">
                  <path id="Path_4030" data-name="Path 4030" d="M55.579,99.735c-4.446,0-6.433-2.11-8.2-5.517a25.745,25.745,0,0,1-2.722-11.795v-.484a6.383,6.383,0,0,1,6.417-6.331h4.458a2.131,2.131,0,0,1,2.145,2.113l.044,19.894a2.1,2.1,0,0,1-.627,1.5,2.159,2.159,0,0,1-1.519.622" transform="translate(-44.661 -75.607)" fill="#ffd4c3"/>
                </g>
              </g>
            </g>
            <g id="Group_1044" data-name="Group 1044" transform="translate(93.607 58.066)" opacity="0.3" style="mix-blend-mode: multiply;isolation: isolate">
              <g id="Group_1043" data-name="Group 1043">
                <g id="Group_1042" data-name="Group 1042" clip-path="url(#clip-path-12)">
                  <path id="Path_4031" data-name="Path 4031" d="M124.029,99.735a2.159,2.159,0,0,1-1.519-.622,2.1,2.1,0,0,1-.627-1.5l.043-19.894a2.132,2.132,0,0,1,2.146-2.113h4.458a6.383,6.383,0,0,1,6.417,6.331v.484a25.745,25.745,0,0,1-2.722,11.795c-1.764,3.407-3.75,5.517-8.2,5.517" transform="translate(-121.884 -75.607)" fill="#ffd4c3"/>
                </g>
              </g>
            </g>
            <path id="Path_4032" data-name="Path 4032" d="M140.055,152.885l-20.9-6.337a17.442,17.442,0,0,1-4.2-1.992L85.4,167.909v23.049h72.662a2.254,2.254,0,0,0,2.254-2.254v-8.5a28.385,28.385,0,0,0-20.261-27.318" transform="translate(-19.813 -33.537)" fill="#01417f"/>
            <path id="Path_4033" data-name="Path 4033" d="M113.594,143.7a17.628,17.628,0,0,1-2.256-1.583l-1.433-1.248L80.39,164.192a2.25,2.25,0,0,0-.859,1.77V190.1h4.508V167.054Z" transform="translate(-18.451 -32.681)" fill="#6ccc8d"/>
            <path id="Path_4034" data-name="Path 4034" d="M106.477,136.2l-3.954-3.443v-9.747a2.254,2.254,0,0,0-2.253-2.255H70.28a2.254,2.254,0,0,0-2.253,2.255v9.747l-3.272,2.849L85.978,152.4Z" transform="translate(-15.023 -28.016)" fill="#ffd4c3"/>
            <path id="Path_4035" data-name="Path 4035" d="M106.477,136.2l-3.954-3.443v-9.747a2.254,2.254,0,0,0-2.253-2.255H70.28a2.254,2.254,0,0,0-2.253,2.255v9.747l-3.272,2.849L85.978,152.4Z" transform="translate(-15.023 -28.016)" fill="#ffd4c3"/>
            <path id="Path_4036" data-name="Path 4036" d="M49.731,140.1l-2.116,1.842a17.662,17.662,0,0,1-1.495,1.049,17.407,17.407,0,0,1-4.96,2.526l-20.9,6.337A28.384,28.384,0,0,0,0,179.168v8.5a2.254,2.254,0,0,0,2.254,2.254H61.08V165.783a2.25,2.25,0,0,1,.859-1.77l5.382-4.252,3.634-2.872Z" transform="translate(0 -32.502)" fill="#01417f"/>
            <path id="Path_4037" data-name="Path 4037" d="M83.041,120.585a19.128,19.128,0,0,1-10.132-2.923c-8.526-5.318-18.692-13.733-18.692-23.615V72.882a2.254,2.254,0,0,1,2.254-2.254H109.61a2.254,2.254,0,0,1,2.254,2.254V94.047c0,9.883-10.165,18.3-18.692,23.615a19.122,19.122,0,0,1-10.131,2.923" transform="translate(-12.578 -16.385)" fill="#ffd4c3"/>
            <path id="Path_4038" data-name="Path 4038" d="M112.916,39.91A31.681,31.681,0,0,1,118.409,32,17.333,17.333,0,0,0,93.472,7.949a17.961,17.961,0,0,0-30.044.337A17.313,17.313,0,0,0,45.981,3.838,17.006,17.006,0,0,0,35.625,12.55a17.4,17.4,0,0,0,2.5,19.385,33.8,33.8,0,0,1,5.669,8.145l2.1,4.568h64.888Z" transform="translate(-7.831)" fill="#6ccc8d"/>
            <path id="Path_4039" data-name="Path 4039" d="M110.783,69.971l3.661-11.836H49.557l3.58,11.853Z" transform="translate(-11.497 -13.487)" fill="#01417f"/>
            <path id="Path_4040" data-name="Path 4040" d="M94.772,181.28a3.178,3.178,0,1,1,3.179,3.178,3.179,3.179,0,0,1-3.179-3.178" transform="translate(-21.987 -41.319)" fill="#fff"/>
            <path id="Path_4041" data-name="Path 4041" d="M94.772,195.164a3.178,3.178,0,1,1,3.179,3.178,3.179,3.179,0,0,1-3.179-3.178" transform="translate(-21.987 -44.54)" fill="#fff"/>
          </g>
        </g>
      </g>
    </g>
    <g id="fork" transform="translate(39.335 348.367) rotate(14)">
      <path id="Path_4042" data-name="Path 4042" d="M1.358,0,0,33.494H6.426L5.036,0Z" transform="translate(11.936 0)" fill="#6ccc8d"/>
      <g id="Group_1050" data-name="Group 1050" transform="translate(0 0)">
        <g id="Group_1049" data-name="Group 1049" clip-path="url(#clip-path-13)">
          <path id="Path_4043" data-name="Path 4043" d="M15.15,39.843A14.972,14.972,0,0,1,0,25.09L1.183,0H4.37l.5,13.763c0,7.408,3.97,12.792,10.281,12.792S25.411,21.02,25.411,13.763L25.894,0h3.2l1.2,25.09A14.972,14.972,0,0,1,15.15,39.843" transform="translate(0 0)" fill="#6ccc8d"/>
          <rect id="Rectangle_393" data-name="Rectangle 393" width="5.555" height="22.642" transform="translate(12.372 38.04)" fill="#6ccc8d"/>
          <path id="Path_4044" data-name="Path 4044" d="M5.983,67.969A5.913,5.913,0,0,1,0,62.142V1.832A1.829,1.829,0,0,1,1.845.028L10.108,0a2.521,2.521,0,0,1,1.314.527A1.781,1.781,0,0,1,11.967,1.8V62.142a5.913,5.913,0,0,1-5.984,5.827" transform="translate(9.167 58.879)" fill="#01417f"/>
        </g>
      </g>
    </g>
    <g id="knife" transform="matrix(-0.799, -0.602, 0.602, -0.799, 384.518, 646.517)">
      <g id="Group_1052" data-name="Group 1052" clip-path="url(#clip-path-14)">
        <path id="Path_4045" data-name="Path 4045" d="M19.244,69.3a1.948,1.948,0,0,1-2.115-.381C4.094,56.478.034,49.825.034,32.46c0-.283-1-23.746,7.781-29.519l.7-1.623H8.7a4.308,4.308,0,0,1,.641-.28l.063.28h7.121V0h3.9V67.51A1.951,1.951,0,0,1,19.244,69.3" transform="translate(0 70.616)" fill="#6ccc8d"/>
        <path id="Path_4046" data-name="Path 4046" d="M5.24.088A6.556,6.556,0,0,0,0,6.661v66.9H12.613V6.306A6.314,6.314,0,0,0,5.24.088" transform="translate(7.814 0)" fill="#01417f"/>
      </g>
    </g>
    <g id="turkey" transform="translate(165.722 515.574) rotate(9)">
      <g id="Group_1057" data-name="Group 1057" clip-path="url(#clip-path-15)">
        <path id="Path_4049" data-name="Path 4049" d="M7.444,24.264a1.923,1.923,0,0,1-1.359-.559L.563,18.213A1.9,1.9,0,0,1,.576,15.5L6.7,9.529A6.468,6.468,0,0,1,7.854,1.9a6.563,6.563,0,0,1,9.237,0,6.251,6.251,0,0,1,1.8,3.7,6.317,6.317,0,0,1,3.722,1.792,6.477,6.477,0,0,1,0,9.186,6.552,6.552,0,0,1-7.676,1.148L8.79,23.718a1.918,1.918,0,0,1-1.346.546m7.656-6.7h0" transform="translate(116.07 0)" fill="#6ccc8d"/>
        <path id="Path_4050" data-name="Path 4050" d="M8.741,28.492a2.261,2.261,0,0,1-1.6-.657L.661,21.385A2.235,2.235,0,0,1,.677,18.2l7.187-7.008A7.591,7.591,0,0,1,9.223,2.231a7.706,7.706,0,0,1,10.846,0,7.343,7.343,0,0,1,2.115,4.344,7.413,7.413,0,0,1,4.37,2.1,7.606,7.606,0,0,1,0,10.787,7.693,7.693,0,0,1-9.013,1.348l-7.218,7.036a2.251,2.251,0,0,1-1.581.643m8.989-7.864,0,0,0,0" transform="translate(147.227 10.765)" fill="#6ccc8d"/>
        <path id="Path_4051" data-name="Path 4051" d="M28.8,21.3a2.492,2.492,0,0,1-.261-.014L2.111,18.378a2.356,2.356,0,0,1-.785-4.461C7.5,10.9,16.114,6.253,22.047,1.249a5.505,5.505,0,0,1,7.375.357l5.369,5.339a5.422,5.422,0,0,1,.349,7.349,54.493,54.493,0,0,0-4.347,5.924,2.377,2.377,0,0,1-2,1.087" transform="translate(91.523 12.195)" fill="#ffd4c3"/>
        <path id="Path_4052" data-name="Path 4052" d="M142.111,69.39h0L4.186,69.208a2.12,2.12,0,0,1-1.6-.723c-4.3-4.907-2.307-10.1-.706-14.274a17.443,17.443,0,0,0,1.538-5.717c0-12.481,10.7-24.8,30.135-34.677C50.318,5.295,71.073,0,87.723,0A70.917,70.917,0,0,1,123,9.05a2.184,2.184,0,0,1,.363.262l17.12,15.4a2.1,2.1,0,0,1,.326.372,41.209,41.209,0,0,1,7.5,23.414,51.185,51.185,0,0,1-4.256,19.613,2.119,2.119,0,0,1-1.95,1.283" transform="translate(8.467 26.54)" fill="#6ccc8d"/>
        <path id="Path_4053" data-name="Path 4053" d="M10.481,74.925c-1.534,0-3.041-.011-4.509-.025l-1.261-.008a2.254,2.254,0,0,1-2.217-1.924L.4,58.5a38.063,38.063,0,0,1,23.2-40.647v0C34.921,13.17,47.628,7.653,55,1.47a6.389,6.389,0,0,1,8.553.36L70.539,8.78a6.235,6.235,0,0,1,.408,8.45c-7.082,8.248-12.991,20.428-18.2,31.175C48.381,57.4,44.936,64.5,41.6,67.744c-6.679,6.512-19.588,7.18-31.123,7.18" transform="translate(87.274 26.893)" fill="#ffd4c3"/>
        <path id="Path_4054" data-name="Path 4054" d="M21.583,19.481c-5.886,0-12.152-.495-16.7-5.1A17.118,17.118,0,0,1,0,2.254,2.277,2.277,0,0,1,.621.689,2.2,2.2,0,0,1,2.12,0H163.612a2.113,2.113,0,0,1,2.12,2.108v.241a16.509,16.509,0,0,1-3.883,10.962c-5.432,6.179-13.857,6.153-21.278,6.135l-114.158,0-2.4.018c-.8.011-1.609.019-2.426.019" transform="translate(0 92.078)" fill="#01417f"/>
      </g>
    </g>
    <g id="thermometer" transform="translate(261.36 399.791) rotate(6)">
      <g id="Group_1065" data-name="Group 1065" clip-path="url(#clip-path-16)">
        <path id="Path_4065" data-name="Path 4065" d="M14.46,104.627h0C6.507,104.627,0,98.573,0,91.175V13.452C0,6.054,6.507,0,14.46,0S28.92,6.054,28.92,13.452V91.175c0,7.4-6.507,13.452-14.46,13.452" transform="translate(0.001 0)" fill="#6ccc8d"/>
        <path id="Path_4066" data-name="Path 4066" d="M0,49.751a3.339,3.339,0,0,0,3.443,3.2,3.339,3.339,0,0,0,3.442-3.2V0H0Z" transform="translate(11.018 60.427)" fill="#01417f"/>
        <path id="Path_4067" data-name="Path 4067" d="M3.443,0A3.339,3.339,0,0,0,0,3.2V49.111H6.885V3.2A3.339,3.339,0,0,0,3.443,0" transform="translate(11.018 11.317)" fill="#ffd4c3"/>
        <rect id="Rectangle_404" data-name="Rectangle 404" width="7.002" height="1.568" transform="translate(0 17.793)" fill="#01417f"/>
        <rect id="Rectangle_405" data-name="Rectangle 405" width="7.002" height="1.568" transform="translate(21.92 17.793)" fill="#01417f"/>
        <rect id="Rectangle_406" data-name="Rectangle 406" width="7.002" height="1.568" transform="translate(0 89.11)" fill="#01417f"/>
        <rect id="Rectangle_407" data-name="Rectangle 407" width="7.002" height="1.568" transform="translate(21.92 89.11)" fill="#01417f"/>
        <rect id="Rectangle_408" data-name="Rectangle 408" width="7.002" height="1.568" transform="translate(21.92 78.922)" fill="#01417f"/>
        <rect id="Rectangle_409" data-name="Rectangle 409" width="7.002" height="1.568" transform="translate(0 78.922)" fill="#01417f"/>
        <rect id="Rectangle_410" data-name="Rectangle 410" width="7.002" height="1.568" transform="translate(0 68.733)" fill="#01417f"/>
        <rect id="Rectangle_411" data-name="Rectangle 411" width="7.002" height="1.568" transform="translate(21.92 68.733)" fill="#01417f"/>
        <rect id="Rectangle_412" data-name="Rectangle 412" width="7.002" height="1.568" transform="translate(0 58.545)" fill="#01417f"/>
        <rect id="Rectangle_413" data-name="Rectangle 413" width="7.002" height="1.568" transform="translate(21.92 58.545)" fill="#01417f"/>
        <rect id="Rectangle_414" data-name="Rectangle 414" width="7.002" height="1.568" transform="translate(21.92 48.357)" fill="#01417f"/>
        <rect id="Rectangle_415" data-name="Rectangle 415" width="7.002" height="1.568" transform="translate(0 48.357)" fill="#01417f"/>
        <rect id="Rectangle_416" data-name="Rectangle 416" width="7.002" height="1.568" transform="translate(21.92 38.169)" fill="#01417f"/>
        <rect id="Rectangle_417" data-name="Rectangle 417" width="7.002" height="1.568" transform="translate(0 38.169)" fill="#01417f"/>
        <rect id="Rectangle_418" data-name="Rectangle 418" width="7.002" height="1.568" transform="translate(0 27.981)" fill="#01417f"/>
        <rect id="Rectangle_419" data-name="Rectangle 419" width="7.002" height="1.568" transform="translate(21.92 27.981)" fill="#01417f"/>
        <path id="Path_4068" data-name="Path 4068" d="M0,49.751a3.339,3.339,0,0,0,3.443,3.2,3.339,3.339,0,0,0,3.442-3.2V0H0Z" transform="translate(11.018 27.648)" fill="#01417f"/>
      </g>
    </g>
  </g>
</svg>
