<svg xmlns="http://www.w3.org/2000/svg" xmlns:xlink="http://www.w3.org/1999/xlink" width="1920" height="1080" viewBox="0 0 1920 1080">
  <defs>
    <clipPath id="clip-path">
      <rect id="Rectangle_403" data-name="Rectangle 403" width="249.137" height="239.236" fill="none"/>
    </clipPath>
    <clipPath id="clip-path-3">
      <rect id="Rectangle_401" data-name="Rectangle 401" width="55.478" height="21.776" fill="none"/>
    </clipPath>
    <clipPath id="clip-path-4">
      <rect id="Rectangle_383" data-name="Rectangle 383" width="410.909" height="883.273" fill="none"/>
    </clipPath>
    <clipPath id="clip-path-5">
      <rect id="Rectangle_384" data-name="Rectangle 384" width="1186.479" height="1113.155" fill="none"/>
    </clipPath>
    <clipPath id="clip-path-6">
      <rect id="Rectangle_421" data-name="Rectangle 421" width="1919.692" height="1113.155" fill="#f6fcf8"/>
    </clipPath>
    <clipPath id="clip-path-7">
      <rect id="Rectangle_397" data-name="Rectangle 397" width="90.666" height="304.329" fill="none"/>
    </clipPath>
    <clipPath id="clip-path-8">
      <rect id="Rectangle_387" data-name="Rectangle 387" width="299.869" height="282.328" fill="none"/>
    </clipPath>
    <clipPath id="clip-path-9">
      <rect id="Rectangle_388" data-name="Rectangle 388" width="318.849" height="276.409" fill="none"/>
    </clipPath>
    <clipPath id="clip-path-10">
      <rect id="Rectangle_392" data-name="Rectangle 392" width="321.76" height="360.502" fill="none"/>
    </clipPath>
    <clipPath id="clip-path-12">
      <rect id="Rectangle_389" data-name="Rectangle 389" width="29.917" height="55.253" fill="none"/>
    </clipPath>
    <clipPath id="clip-path-13">
      <rect id="Rectangle_390" data-name="Rectangle 390" width="29.915" height="55.253" fill="none"/>
    </clipPath>
    <clipPath id="clip-path-14">
      <rect id="Rectangle_394" data-name="Rectangle 394" width="69.384" height="290.487" fill="none"/>
    </clipPath>
    <clipPath id="clip-path-15">
      <rect id="Rectangle_395" data-name="Rectangle 395" width="46.78" height="320.782" fill="none"/>
    </clipPath>
    <clipPath id="clip-path-16">
      <rect id="Rectangle_398" data-name="Rectangle 398" width="403.101" height="255.474" fill="none"/>
    </clipPath>
    <clipPath id="clip-path-17">
      <rect id="Rectangle_420" data-name="Rectangle 420" width="66.231" height="259.648" fill="none"/>
    </clipPath>
    <clipPath id="clip-Web_1920_1">
      <rect width="1920" height="1080"/>
    </clipPath>
  </defs>
  <g id="Web_1920_1" data-name="Web 1920 – 1" clip-path="url(#clip-Web_1920_1)">
    <rect width="1920" height="1080" fill="#fff"/>
    <g id="Group_1170" data-name="Group 1170" transform="translate(0 5.001)">
      <rect id="bkgd" width="1919.692" height="1113.155" transform="translate(0 -22)" fill="#f6fcf8"/>
      <g id="hands" transform="translate(719.746 677.888) rotate(3)">
        <g id="Group_1064" data-name="Group 1064" clip-path="url(#clip-path)">
          <g id="Group_1063" data-name="Group 1063">
            <g id="Group_1062" data-name="Group 1062" clip-path="url(#clip-path)">
              <path id="Path_4055" data-name="Path 4055" d="M52.135,46.542V12.6H17.045l-2.881,4.432L0,16.894V0H65.73a1.516,1.516,0,0,1,1.515,1.515V46.542Z" transform="translate(126.776 0)" fill="#6ccc8d"/>
              <path id="Path_4056" data-name="Path 4056" d="M0,17.4V5.251A5.038,5.038,0,0,1,4.782,0h52.08a4.982,4.982,0,0,1,4.781,5.251V17.4A3.348,3.348,0,0,1,58.3,20.752H3.345A3.348,3.348,0,0,1,0,17.4" transform="translate(155.038 43.186)" fill="#01417f"/>
              <path id="Path_4057" data-name="Path 4057" d="M0,18.549v0Z" transform="translate(249.136 217.331)" fill="#232323"/>
              <path id="Path_4058" data-name="Path 4058" d="M0,38.1C0,28.244,5.73,14.5,13.4,8.355A38.053,38.053,0,0,1,37.271,0H89.259a38.041,38.041,0,0,1,26.59,10.756c6.163,5.988,10.684,18.447,10.684,27.056L126.54,151.8H.009v26.852Z" transform="translate(122.595 57.224)" fill="#6ccc8d"/>
              <path id="Path_4059" data-name="Path 4059" d="M0,0V0Z" transform="translate(249.135 209.027)" fill="#232323"/>
              <path id="Path_4060" data-name="Path 4060" d="M126.533,0V26.856a3.35,3.35,0,0,1-3.345,3.353H3.345A3.35,3.35,0,0,1,0,26.856V0Z" transform="translate(122.603 209.027)" fill="#01417f"/>
              <path id="Path_4061" data-name="Path 4061" d="M63.263,0a3.348,3.348,0,0,1,3.345,3.356V65.77a3.348,3.348,0,0,1-3.345,3.356H0V0Z" transform="translate(122.603 118.307)" fill="#01417f"/>
              <rect id="Rectangle_399" data-name="Rectangle 399" width="41.979" height="10.07" transform="translate(122.603 137.534)" fill="#fff"/>
              <rect id="Rectangle_400" data-name="Rectangle 400" width="41.979" height="10.07" transform="translate(122.603 158.135)" fill="#fff"/>
              <path id="Path_4062" data-name="Path 4062" d="M4.131,123.017A4.138,4.138,0,0,1,0,119.059L.006,50.623a4.159,4.159,0,0,1,1.431-3.347L43.414,11.018A31.6,31.6,0,0,1,66.1,3.3l32.38,1.85A19.574,19.574,0,0,1,114.8,33.533a100.97,100.97,0,0,0,45.268-22.506l8.036-6.941a16.778,16.778,0,0,1,23.73,1.781,16.943,16.943,0,0,1-1.779,23.808L186.332,32.9A212.939,212.939,0,0,1,84.178,81.461L62.826,85.23a35.652,35.652,0,0,0-17.1,8.125L6.718,122.105a4.129,4.129,0,0,1-2.587.912" transform="translate(0 72.751)" fill="#ffd4c3"/>
              <path id="Path_4063" data-name="Path 4063" d="M16.684,45.977A16.729,16.729,0,0,1,0,29.239C0,21.317,11.247,4.876,13.5,1.66a3.889,3.889,0,0,1,6.373,0c2.25,3.216,13.49,19.657,13.49,27.579A16.727,16.727,0,0,1,16.684,45.977" transform="translate(117.569 25.353)" fill="#ffd4c3"/>
              <g id="Group_1061" data-name="Group 1061" transform="translate(68.938 103.615)" opacity="0.4" style="mix-blend-mode: multiply;isolation: isolate">
                <g id="Group_1060" data-name="Group 1060">
                  <g id="Group_1059" data-name="Group 1059" clip-path="url(#clip-path-3)">
                    <path id="Path_4064" data-name="Path 4064" d="M28.443,21.776A27.906,27.906,0,0,0,55.478,0c-3.17,1-6.351,1.982-9.612,2.67.009-.019.014-.042.023-.06A19.523,19.523,0,0,1,28.547,13.468L.436,12.016,0,20.316l27.076,1.428Z" transform="translate(0 0)" fill="#ffd4c3"/>
                  </g>
                </g>
              </g>
            </g>
          </g>
        </g>
      </g>
      <g id="shape-green" transform="translate(1509.091 207.296)">
        <g id="Group_1030" data-name="Group 1030" clip-path="url(#clip-path-4)">
          <path id="Path_4008" data-name="Path 4008" d="M410.909,0C38.081,126.806,445.091,494.1,198.7,580.551,8.771,658.385-24.157,761.847,14.019,883.273h396.89Z" transform="translate(0)" fill="#6ccc8d"/>
        </g>
      </g>
      <g id="shape-blue" transform="translate(0 -22)" clip-path="url(#clip-path-5)">
        <path id="Path_4009" data-name="Path 4009" d="M1344.943,0c150.189,505.553-725.25,567.089-372.022,1113.155H0V0Z" transform="translate(-175.972)" fill="#01417f"/>
      </g>
      <g id="spoon" transform="translate(0 -22)" clip-path="url(#clip-path-6)">
        <g id="spoon-2" data-name="spoon" transform="translate(1098.508 854.397) rotate(31)">
          <rect id="Rectangle_396" data-name="Rectangle 396" width="14.554" height="35.916" transform="translate(38.057 115.596)" fill="#6ccc8d"/>
          <g id="Group_1055" data-name="Group 1055">
            <g id="Group_1054" data-name="Group 1054" clip-path="url(#clip-path-7)">
              <path id="Path_4047" data-name="Path 4047" d="M45.335,120.321A45.388,45.388,0,0,1,0,74.984C0,49.977,19.6,0,45.335,0S90.667,49.977,90.667,74.984a45.386,45.386,0,0,1-45.333,45.337" transform="translate(0 0.001)" fill="#6ccc8d"/>
              <path id="Path_4048" data-name="Path 4048" d="M13.689,159.649A13.7,13.7,0,0,1,0,145.962V4.3A4.237,4.237,0,0,1,4.22.066L23.124,0c1.416.311,2.208.44,3.006,1.237a4.242,4.242,0,0,1,1.244,3V145.962a13.7,13.7,0,0,1-13.686,13.687" transform="translate(31.646 144.679)" fill="#01417f"/>
            </g>
          </g>
        </g>
      </g>
      <g id="veggies" transform="translate(1497.756 446.174) rotate(-9)">
        <g id="Group_1035" data-name="Group 1035" clip-path="url(#clip-path-8)">
          <path id="Path_4010" data-name="Path 4010" d="M49.545,54.68a3.872,3.872,0,0,1-3.389-2.1l-.012,0c-.028-.045-.064-.112-.108-.189-.2-.316-.395-.645-.588-.977-4.17-7.148-13.922-11.149-22.528-14.682C17.665,34.583,12.7,32.545,9.313,29.892,3.71,25.5.324,19.694.021,13.959a13.619,13.619,0,0,1,4.1-10.666C12.9-5.208,22.558,4.749,28.335,10.7c.228.236,16.3,22.784,22.587,34.66.484.668.94,1.358,1.358,2.077l.693,1.177-.371.228c.652,1.56.939,2.7.728,3.263a3.956,3.956,0,0,1-3.367,2.557c-.145.011-.284.019-.419.019" transform="translate(215.405 10.816)" fill="#6ccc8d"/>
          <rect id="Rectangle_385" data-name="Rectangle 385" width="12.017" height="44.709" transform="translate(253.559 5.742)" fill="#01417f"/>
          <path id="Path_4011" data-name="Path 4011" d="M58.015,226.039c-.177,0-.755-.047-.933-.071h-.133A56.555,56.555,0,0,1,0,169.57L15.091,14.223a4,4,0,0,1,2.933-3.477L56.962.138a4.085,4.085,0,0,1,2.146.011L96.5,10.758a4,4,0,0,1,2.893,3.465l15.07,154.96a56.587,56.587,0,0,1-56.45,56.856" transform="translate(100.94 56.289)" fill="#01417f"/>
          <rect id="Rectangle_386" data-name="Rectangle 386" width="12.017" height="28.89" transform="translate(152.946)" fill="#01417f"/>
          <path id="Path_4012" data-name="Path 4012" d="M95.579,125.956a82.115,82.115,0,0,1-12.466-.989c-.6-.095-1.344-.157-2.161-.2a53.236,53.236,0,0,0-5.779,0c-.837.047-1.578.109-2.168.2-12.574,1.929-23.916,1.04-33.72-2.645a51.879,51.879,0,0,1-22.924-17.053A73.716,73.716,0,0,1,3.822,79.289,113.228,113.228,0,0,1,0,49.331a70.061,70.061,0,0,1,6.191-29.75C10.232,10.885,14.307,6.626,21.375.9A4.008,4.008,0,0,1,23.9,0H132.209a4.009,4.009,0,0,1,2.524.9c7.068,5.73,11.144,9.989,15.184,18.689a70.037,70.037,0,0,1,6.194,29.746,113.149,113.149,0,0,1-3.826,29.958,73.747,73.747,0,0,1-12.539,25.984,51.867,51.867,0,0,1-22.926,17.049,60.035,60.035,0,0,1-21.241,3.634" transform="translate(0 156.368)" fill="#ffd4c3"/>
          <path id="Path_4013" data-name="Path 4013" d="M.676,28.941C.02,22.386-1.1,6.439,2.694,0L13.049,6.094C11.9,8.3,11.7,18.426,12.633,27.744Z" transform="translate(71.4 114.755)" fill="#01417f"/>
          <path id="Path_4014" data-name="Path 4014" d="M120.595,20.841c-.125-.071-12.8-7.319-27.325-14.832-.827-.5-19.077-11.253-31.542-2.745C57.8,1.054,52.478.267,45.864.912A62.237,62.237,0,0,0,22.44,8.349,226.122,226.122,0,0,0,1.7,21.045,4,4,0,0,0,1.57,27.5c4.469,3.422,20.857,4.431,31.91.437,1.2,8.227,3.527,18.2,3.651,18.729A4.008,4.008,0,0,0,43.9,48.546c4.766-4.89,13.209-12.782,17.868-15.56C67.747,36.339,77.5,41.6,77.5,41.6a4.006,4.006,0,0,0,5.807-2.624A35.979,35.979,0,0,1,88.28,28.292c10.534,4.421,27.868,2.953,32.761-.793a4.006,4.006,0,0,0-.447-6.658" transform="translate(15.55 134.787)" fill="#6ccc8d"/>
          <path id="Path_4015" data-name="Path 4015" d="M51.562,61.069a16.426,16.426,0,0,1-11.655-4.823,8.626,8.626,0,0,0-6.058-2.51H9.825a9.765,9.765,0,0,1-7.379-3.373A10.039,10.039,0,0,1,.1,42.352C2.865,22.939,11.1,8.033,22.12,2.486,27.418-.181,36.15-2.046,47.666,4.2c1.526.827,4.822.333,8.013-.152,3.949-.591,8.42-1.274,12.819-.223,19.829,4.718,31.858,18.024,34.782,38.488a10.039,10.039,0,0,1-2.362,8.035A10.507,10.507,0,0,1,93.5,53.7L69.655,53.55a8.651,8.651,0,0,0-6.111,2.508,16.912,16.912,0,0,1-11.982,5.011" transform="translate(107.26 21.17)" fill="#6ccc8d"/>
          <path id="Path_4016" data-name="Path 4016" d="M40.3,235.082C13.174,235.082,0,32.857,0,30.815,0,13.824,18.078,0,40.3,0S80.6,13.824,80.6,30.815c0,2.042-13.174,204.267-40.3,204.267" transform="translate(219.267 47.246)" fill="#ffd4c3"/>
          <path id="Path_4017" data-name="Path 4017" d="M1.546,7.03C1,7.349.519,7.7,0,8.04q.334,4.289.756,9.369A31.051,31.051,0,0,1,5.6,13.946,47.232,47.232,0,0,1,26.873,8l-.38-8A54.644,54.644,0,0,0,1.546,7.03" transform="translate(220.538 88.019)" fill="#6ccc8d"/>
          <path id="Path_4018" data-name="Path 4018" d="M0,9.039q.448,4.841.949,9.994c4.5-5.33,12.209-9.275,22.244-11.164L21.715,0C12.917,1.652,5.568,4.794,0,9.039" transform="translate(222.774 113.218)" fill="#6ccc8d"/>
          <path id="Path_4019" data-name="Path 4019" d="M0,7.389q.478,4.439.995,8.972c.419-.315.731-.664,1.177-.971a47.288,47.288,0,0,1,20.8-7.435L22.026,0A55.519,55.519,0,0,0,0,7.389" transform="translate(225.446 141.611)" fill="#6ccc8d"/>
          <path id="Path_4020" data-name="Path 4020" d="M0,8.979Q.618,13.8,1.276,18.616C5.823,13.5,13.358,9.708,23.123,7.869L21.645,0C12.886,1.645,5.56,4.762,0,8.979" transform="translate(228.726 167.916)" fill="#6ccc8d"/>
          <path id="Path_4021" data-name="Path 4021" d="M5.952,3.153A33.6,33.6,0,0,0,0,6.371Q.726,11,1.492,15.518a22.113,22.113,0,0,1,7.565-4.981A35.785,35.785,0,0,1,19.649,7.98L18.9,0A43.972,43.972,0,0,0,5.952,3.153" transform="translate(232.661 198.331)" fill="#6ccc8d"/>
          <path id="Path_4022" data-name="Path 4022" d="M16.635,0A44.139,44.139,0,0,0,0,6.736c.645,2.982,1.309,5.85,1.988,8.628C5.64,11.883,11.2,9.256,18.208,7.855Z" transform="translate(238.526 230.087)" fill="#6ccc8d"/>
        </g>
      </g>
      <g id="steak" transform="translate(1065.162 50.103)">
        <g id="Group_1037" data-name="Group 1037" clip-path="url(#clip-path-9)">
          <path id="Path_4023" data-name="Path 4023" d="M79.35,261.358c-28.421,0-55.022-8.545-69.349-22.623C3.158,232.008-.293,224.448.019,216.862l0-53.386a4.631,4.631,0,0,1,3.033-4.345L312.622,45.467a4.628,4.628,0,0,1,6.226,4.346V95.231c0,17.785-5.68,34.8-16,47.9-25.665,32.605-67.962,63.291-129.307,93.812a272.993,272.993,0,0,1-45,17.864c-12.594,3.7-22.531,5.235-40.893,6.311q-4.163.244-8.3.244" transform="translate(0 15.051)" fill="#01417f"/>
          <path id="Path_4024" data-name="Path 4024" d="M79.35,222.84c-28.421,0-55.019-8.545-69.346-22.624-6.846-6.728-10.3-14.291-9.985-21.878.524-12.722,7.827-22.383,22.327-29.537.117-.059.243-.112.367-.163.545-.212,54.535-21.946,55.167-74.091.327-27.054,20.266-51.834,50.8-63.123C148.884,3.951,173.379,0,199.52,0c36.641,0,70.973,7.871,94.19,21.589,22.739,13.433,31.136,39.03,19.967,60.862-21.059,41.173-68.208,80.19-140.134,115.965a272.872,272.872,0,0,1-45,17.862c-12.607,3.707-22.544,5.24-40.893,6.316-2.773.163-5.544.245-8.3.245M26.3,157.175C11.532,164.508,9.507,172.98,9.269,178.718c-.253,6.2,3.789,11.515,7.222,14.892,11.418,11.217,37.662,21.63,70.613,19.745,17.551-1.032,26.986-2.478,38.827-5.955a264.349,264.349,0,0,0,43.49-17.276C239.534,155.25,285.3,117.606,305.435,78.237,314.448,60.618,307.689,40.6,289,29.563c-21.833-12.9-54.447-20.3-89.479-20.3-25.056,0-48.44,3.751-67.624,10.845-26.909,9.956-44.478,31.367-44.759,54.551-.684,56.646-56.784,80.851-60.84,82.519" transform="translate(0 0)" fill="#232323"/>
          <path id="Path_4025" data-name="Path 4025" d="M79.278,222.839c-29.353,0-56.256-9.033-70.211-23.574C2.852,192.792-.277,185.553.019,178.337c.524-12.722,7.827-22.383,22.328-29.535.911-.376,54.9-22.108,55.532-74.255.328-27.054,20.267-51.829,50.8-63.123C148.884,3.95,173.379,0,199.519,0c36.642,0,70.974,7.871,94.192,21.587,22.739,13.433,31.136,39.03,19.967,60.862-21.059,41.173-68.208,80.191-140.133,115.967a273.141,273.141,0,0,1-45,17.862c-12.609,3.707-22.546,5.239-40.895,6.316q-4.231.244-8.368.244" transform="translate(0 0)" fill="#6ccc8d"/>
          <path id="Path_4026" data-name="Path 4026" d="M88.195,142.686a27.419,27.419,0,0,1-2.938,1.1c-13.1,4.038-26.364,7.051-32.074-3.973-5.438-10.5,4.659-20.294,15.254-28.486a26.257,26.257,0,0,1,21.475-5.054c5.48,1.212,9.834,4.246,11.947,8.328s2.08,9.373-.085,14.538a26.155,26.155,0,0,1-13.579,13.551" transform="translate(17.21 35.212)" fill="#ffd4c3"/>
          <path id="Path_4027" data-name="Path 4027" d="M199.518,18.518c33.421,0,64.32,6.93,84.774,19.014,14.271,8.431,19.576,23.432,12.9,36.485C277.975,111.587,233.6,147.863,165.3,181.835a255.013,255.013,0,0,1-41.984,16.679c-11.2,3.293-19.786,4.6-36.735,5.594q-3.693.214-7.3.213c-24.111,0-46.427-7.018-56.851-17.877-2.564-2.672-3.987-5.348-3.9-7.343.112-2.73.32-7.781,11.533-13.449,9.305-3.945,65.608-30.314,66.341-90.88.233-19.32,15.428-37.369,38.711-45.979,18.17-6.722,40.444-10.274,64.411-10.274m0-18.518c-26.138,0-50.635,3.951-70.835,11.425-30.536,11.294-50.476,36.069-50.8,63.123-.632,52.145-54.621,73.879-55.532,74.253C7.845,155.955.544,165.616.02,178.338c-.3,7.215,2.832,14.454,9.047,20.929,13.956,14.539,40.859,23.572,70.211,23.572q4.135,0,8.369-.244c18.349-1.076,28.286-2.609,40.893-6.316a273.2,273.2,0,0,0,45-17.862c71.926-35.776,119.074-74.792,140.133-115.965,11.168-21.832,2.772-47.43-19.967-60.862C270.492,7.871,236.162,0,199.518,0" transform="translate(0 0)" fill="#ffd4c3"/>
        </g>
      </g>
      <g id="chef" transform="translate(1213.152 730.653)">
        <g id="Group_1047" data-name="Group 1047" clip-path="url(#clip-path-10)">
          <g id="Group_1046" data-name="Group 1046">
            <g id="Group_1045" data-name="Group 1045" clip-path="url(#clip-path-10)">
              <path id="Path_4028" data-name="Path 4028" d="M69.664,130.86c-10.181,0-14.731-4.833-18.769-12.635a58.957,58.957,0,0,1-6.233-27.011V90.106a14.616,14.616,0,0,1,14.694-14.5h10.21a4.879,4.879,0,0,1,4.912,4.838l.1,45.559a4.816,4.816,0,0,1-1.435,3.431,4.944,4.944,0,0,1-3.479,1.425" transform="translate(33.887 57.368)" fill="#ffd4c3"/>
              <path id="Path_4029" data-name="Path 4029" d="M126.8,130.86a4.944,4.944,0,0,1-3.479-1.425A4.816,4.816,0,0,1,121.883,126l.1-45.559a4.882,4.882,0,0,1,4.914-4.838h10.21a14.616,14.616,0,0,1,14.694,14.5v1.108a58.957,58.957,0,0,1-6.233,27.011c-4.04,7.8-8.588,12.635-18.77,12.635" transform="translate(92.48 57.368)" fill="#ffd4c3"/>
              <g id="Group_1041" data-name="Group 1041" transform="translate(78.548 132.975)" opacity="0.3" style="mix-blend-mode: multiply;isolation: isolate">
                <g id="Group_1040" data-name="Group 1040">
                  <g id="Group_1039" data-name="Group 1039" clip-path="url(#clip-path-12)">
                    <path id="Path_4030" data-name="Path 4030" d="M69.664,130.86c-10.181,0-14.731-4.833-18.769-12.635a58.957,58.957,0,0,1-6.233-27.011V90.106a14.616,14.616,0,0,1,14.694-14.5h10.21a4.879,4.879,0,0,1,4.912,4.838l.1,45.559a4.816,4.816,0,0,1-1.435,3.431,4.944,4.944,0,0,1-3.479,1.425" transform="translate(-44.661 -75.607)" fill="#ffd4c3"/>
                  </g>
                </g>
              </g>
              <g id="Group_1044" data-name="Group 1044" transform="translate(214.365 132.975)" opacity="0.3" style="mix-blend-mode: multiply;isolation: isolate">
                <g id="Group_1043" data-name="Group 1043">
                  <g id="Group_1042" data-name="Group 1042" clip-path="url(#clip-path-13)">
                    <path id="Path_4031" data-name="Path 4031" d="M126.8,130.86a4.944,4.944,0,0,1-3.479-1.425A4.816,4.816,0,0,1,121.883,126l.1-45.559a4.882,4.882,0,0,1,4.914-4.838h10.21a14.616,14.616,0,0,1,14.694,14.5v1.108a58.957,58.957,0,0,1-6.233,27.011c-4.04,7.8-8.588,12.635-18.77,12.635" transform="translate(-121.885 -75.607)" fill="#ffd4c3"/>
                  </g>
                </g>
              </g>
              <path id="Path_4032" data-name="Path 4032" d="M210.561,163.63,162.7,149.118a39.941,39.941,0,0,1-9.62-4.562L85.4,198.035v52.784H251.8a5.161,5.161,0,0,0,5.162-5.162V226.189a65,65,0,0,0-46.4-62.559" transform="translate(64.799 109.683)" fill="#01417f"/>
              <path id="Path_4033" data-name="Path 4033" d="M157.537,147.353a40.368,40.368,0,0,1-5.165-3.625l-3.282-2.858L81.5,194.278a5.153,5.153,0,0,0-1.966,4.054v55.283H89.855V200.831Z" transform="translate(60.345 106.886)" fill="#6ccc8d"/>
              <path id="Path_4034" data-name="Path 4034" d="M160.3,156.129l-9.056-7.884v-22.32a5.161,5.161,0,0,0-5.16-5.164H77.408a5.161,5.161,0,0,0-5.16,5.164v22.32l-7.494,6.523,48.6,38.455Z" transform="translate(49.133 91.628)" fill="#ffd4c3"/>
              <path id="Path_4035" data-name="Path 4035" d="M160.3,156.129l-9.056-7.884v-22.32a5.161,5.161,0,0,0-5.16-5.164H77.408a5.161,5.161,0,0,0-5.16,5.164v22.32l-7.494,6.523,48.6,38.455Z" transform="translate(49.133 91.628)" fill="#ffd4c3"/>
              <path id="Path_4036" data-name="Path 4036" d="M113.887,140.1l-4.845,4.219a40.438,40.438,0,0,1-3.423,2.4A39.866,39.866,0,0,1,94.261,152.5L46.4,167.014A65,65,0,0,0,0,229.573v19.468A5.161,5.161,0,0,0,5.162,254.2H139.876V198.919a5.153,5.153,0,0,1,1.966-4.054l12.325-9.736,8.322-6.578Z" transform="translate(0 106.299)" fill="#01417f"/>
              <path id="Path_4037" data-name="Path 4037" d="M120.224,185.032a43.8,43.8,0,0,1-23.2-6.694c-19.526-12.179-42.8-31.45-42.8-54.08V75.79a5.161,5.161,0,0,1,5.162-5.162H181.069a5.162,5.162,0,0,1,5.162,5.162v48.468c0,22.633-23.279,41.9-42.8,54.08a43.79,43.79,0,0,1-23.2,6.694" transform="translate(41.138 53.59)" fill="#ffd4c3"/>
              <path id="Path_4038" data-name="Path 4038" d="M215.036,91.4c3.051-6.759,7.642-12.591,12.579-18.122A39.693,39.693,0,0,0,170.508,18.2a41.132,41.132,0,0,0-68.8.772A39.648,39.648,0,0,0,61.752,8.789,38.945,38.945,0,0,0,38.035,28.74a39.857,39.857,0,0,0,5.723,44.393c5.058,5.719,9.8,11.712,12.983,18.652l4.8,10.461h148.6Z" transform="translate(25.613)" fill="#6ccc8d"/>
              <path id="Path_4039" data-name="Path 4039" d="M189.767,85.239l8.384-27.1H49.557l8.2,27.145Z" transform="translate(37.602 44.11)" fill="#01417f"/>
              <path id="Path_4040" data-name="Path 4040" d="M94.772,185.381a7.279,7.279,0,1,1,7.28,7.278,7.279,7.279,0,0,1-7.28-7.278" transform="translate(71.909 135.136)" fill="#fff"/>
              <path id="Path_4041" data-name="Path 4041" d="M94.772,199.264a7.279,7.279,0,1,1,7.28,7.278,7.279,7.279,0,0,1-7.28-7.278" transform="translate(71.909 145.671)" fill="#fff"/>
            </g>
          </g>
        </g>
      </g>
      <g id="fork" transform="matrix(0.914, -0.407, 0.407, 0.914, 837.883, 427.487)">
        <path id="Path_4042" data-name="Path 4042" d="M3.11,0,0,76.7H14.717L11.534,0Z" transform="translate(27.335 0)" fill="#6ccc8d"/>
        <g id="Group_1050" data-name="Group 1050" transform="translate(0 0.001)">
          <g id="Group_1049" data-name="Group 1049" clip-path="url(#clip-path-14)">
            <path id="Path_4043" data-name="Path 4043" d="M34.693,91.243C15.563,91.243,0,76.088,0,57.457L2.709,0h7.3L11.15,31.517c0,16.964,9.091,29.295,23.544,29.295s23.5-12.674,23.5-29.295L59.3,0h7.335l2.751,57.457c0,18.631-15.563,33.785-34.691,33.785" fill="#6ccc8d"/>
            <rect id="Rectangle_393" data-name="Rectangle 393" width="12.72" height="51.852" transform="translate(28.333 87.113)" fill="#6ccc8d"/>
            <path id="Path_4044" data-name="Path 4044" d="M13.7,155.653A13.542,13.542,0,0,1,0,142.308V4.2A4.188,4.188,0,0,1,4.225.065L23.149,0a5.774,5.774,0,0,1,3.008,1.206A4.078,4.078,0,0,1,27.4,4.131V142.308a13.542,13.542,0,0,1-13.7,13.345" transform="translate(20.992 134.835)" fill="#01417f"/>
          </g>
        </g>
      </g>
      <g id="knife" transform="matrix(0.799, -0.602, 0.602, 0.799, 1621.836, 50.051)">
        <g id="Group_1052" data-name="Group 1052" clip-path="url(#clip-path-15)">
          <path id="Path_4045" data-name="Path 4045" d="M44.069.362a4.462,4.462,0,0,0-4.843.873C9.374,29.734.078,44.969.078,84.735c0,.648-2.28,54.38,17.818,67.6l1.606,3.717h.42a9.864,9.864,0,0,0,1.469.642l.144-.642H37.842v3.017h8.938V4.469A4.467,4.467,0,0,0,44.069.362" transform="translate(-0.001 0)" fill="#6ccc8d"/>
          <path id="Path_4046" data-name="Path 4046" d="M12,168.245c-7.1-1.17-12-7.857-12-15.052V0H28.885V154.005A14.46,14.46,0,0,1,12,168.245" transform="translate(17.895 152.336)" fill="#01417f"/>
        </g>
      </g>
      <g id="turkey" transform="translate(1075.114 333.545) rotate(9)">
        <g id="Group_1057" data-name="Group 1057" clip-path="url(#clip-path-16)">
          <path id="Path_4049" data-name="Path 4049" d="M17.047,55.566a4.4,4.4,0,0,1-3.112-1.28L1.289,41.708a4.358,4.358,0,0,1,.031-6.219L15.337,21.822A14.811,14.811,0,0,1,17.987,4.351a15.029,15.029,0,0,1,21.152,0,14.316,14.316,0,0,1,4.125,8.473,14.467,14.467,0,0,1,8.524,4.1,14.833,14.833,0,0,1,0,21.036,15,15,0,0,1-17.579,2.63L20.13,54.315a4.391,4.391,0,0,1-3.083,1.251M34.579,40.23l-.01,0,.01,0" transform="translate(265.805 0)" fill="#6ccc8d"/>
          <path id="Path_4050" data-name="Path 4050" d="M20.017,65.247a5.177,5.177,0,0,1-3.654-1.506L1.514,48.973a5.118,5.118,0,0,1,.036-7.3l16.46-16.048A17.384,17.384,0,0,1,21.121,5.109a17.646,17.646,0,0,1,24.837,0A16.815,16.815,0,0,1,50.8,15.057a16.976,16.976,0,0,1,10.007,4.818,17.419,17.419,0,0,1,0,24.7,17.617,17.617,0,0,1-20.641,3.087L23.637,63.775a5.155,5.155,0,0,1-3.62,1.472M40.6,47.237l-.01,0,.01,0" transform="translate(337.157 24.653)" fill="#6ccc8d"/>
          <path id="Path_4051" data-name="Path 4051" d="M65.944,48.786a5.708,5.708,0,0,1-.6-.032L4.834,42.088a5.395,5.395,0,0,1-1.8-10.216C17.185,24.962,36.9,14.32,50.488,2.86a12.607,12.607,0,0,1,16.89.817L79.672,15.9a12.417,12.417,0,0,1,.8,16.829A124.792,124.792,0,0,0,70.515,46.3a5.442,5.442,0,0,1-4.571,2.489" transform="translate(209.592 27.927)" fill="#ffd4c3"/>
          <path id="Path_4052" data-name="Path 4052" d="M325.441,158.905h-.006L9.587,158.49a4.855,4.855,0,0,1-3.654-1.655C-3.913,145.6.65,133.7,4.317,124.146c1.812-4.724,3.521-9.184,3.521-13.093,0-28.582,24.508-56.787,69.011-79.412C115.231,12.126,162.761,0,200.89,0c29.212,0,57.151,7.166,80.793,20.725a5,5,0,0,1,.831.6l39.207,35.258a4.807,4.807,0,0,1,.747.853c11.243,16.31,17.186,34.852,17.186,53.618,0,14.286-3.46,30.235-9.747,44.914a4.852,4.852,0,0,1-4.466,2.937" transform="translate(19.39 60.778)" fill="#6ccc8d"/>
          <path id="Path_4053" data-name="Path 4053" d="M24,171.58c-3.513,0-6.965-.026-10.326-.056l-2.887-.019A5.163,5.163,0,0,1,5.711,167.1l-4.8-33.125A87.166,87.166,0,0,1,54.026,40.892v0c25.945-10.728,55.044-23.36,71.922-37.521a14.632,14.632,0,0,1,19.586.824l16,15.917a14.277,14.277,0,0,1,.935,19.35c-16.219,18.888-29.751,46.782-41.689,71.392-9.988,20.59-17.878,36.853-25.51,44.288C79.979,170.049,50.417,171.58,24,171.58" transform="translate(199.862 61.587)" fill="#ffd4c3"/>
          <path id="Path_4054" data-name="Path 4054" d="M49.426,44.612c-13.48,0-27.829-1.132-38.234-11.669A39.2,39.2,0,0,1,0,5.162,5.214,5.214,0,0,1,1.422,1.578,5.04,5.04,0,0,1,4.854,0H374.678a4.84,4.84,0,0,1,4.854,4.827v.552c0,9.665-3.157,18.581-8.891,25.1-12.44,14.149-31.734,14.091-48.727,14.05l-261.427,0-5.5.042c-1.825.024-3.685.043-5.556.043" transform="translate(0 210.862)" fill="#01417f"/>
        </g>
      </g>
      <g id="thermometer" transform="translate(1489.727 87.113) rotate(6)">
        <g id="Group_1065" data-name="Group 1065" clip-path="url(#clip-path-17)">
          <path id="Path_4065" data-name="Path 4065" d="M33.114,239.6h0C14.9,239.6,0,225.737,0,208.794V30.806C0,13.863,14.9,0,33.114,0S66.227,13.863,66.227,30.806V208.794c0,16.943-14.9,30.806-33.114,30.806" transform="translate(0.002)" fill="#6ccc8d"/>
          <path id="Path_4066" data-name="Path 4066" d="M0,113.932a7.647,7.647,0,0,0,7.885,7.335,7.647,7.647,0,0,0,7.883-7.335V0H0Z" transform="translate(25.231 138.381)" fill="#01417f"/>
          <path id="Path_4067" data-name="Path 4067" d="M7.885,0A7.647,7.647,0,0,0,0,7.335v105.13H15.768V7.335A7.645,7.645,0,0,0,7.885,0" transform="translate(25.231 25.917)" fill="#ffd4c3"/>
          <rect id="Rectangle_404" data-name="Rectangle 404" width="16.034" height="3.59" transform="translate(0 40.746)" fill="#01417f"/>
          <rect id="Rectangle_405" data-name="Rectangle 405" width="16.034" height="3.59" transform="translate(50.197 40.746)" fill="#01417f"/>
          <rect id="Rectangle_406" data-name="Rectangle 406" width="16.034" height="3.59" transform="translate(0 204.066)" fill="#01417f"/>
          <rect id="Rectangle_407" data-name="Rectangle 407" width="16.034" height="3.59" transform="translate(50.197 204.066)" fill="#01417f"/>
          <rect id="Rectangle_408" data-name="Rectangle 408" width="16.034" height="3.59" transform="translate(50.197 180.735)" fill="#01417f"/>
          <rect id="Rectangle_409" data-name="Rectangle 409" width="16.034" height="3.59" transform="translate(0 180.735)" fill="#01417f"/>
          <rect id="Rectangle_410" data-name="Rectangle 410" width="16.034" height="3.59" transform="translate(0 157.402)" fill="#01417f"/>
          <rect id="Rectangle_411" data-name="Rectangle 411" width="16.034" height="3.59" transform="translate(50.197 157.402)" fill="#01417f"/>
          <rect id="Rectangle_412" data-name="Rectangle 412" width="16.034" height="3.59" transform="translate(0 134.071)" fill="#01417f"/>
          <rect id="Rectangle_413" data-name="Rectangle 413" width="16.034" height="3.59" transform="translate(50.197 134.071)" fill="#01417f"/>
          <rect id="Rectangle_414" data-name="Rectangle 414" width="16.034" height="3.59" transform="translate(50.197 110.741)" fill="#01417f"/>
          <rect id="Rectangle_415" data-name="Rectangle 415" width="16.034" height="3.59" transform="translate(0 110.741)" fill="#01417f"/>
          <rect id="Rectangle_416" data-name="Rectangle 416" width="16.034" height="3.59" transform="translate(50.197 87.41)" fill="#01417f"/>
          <rect id="Rectangle_417" data-name="Rectangle 417" width="16.034" height="3.59" transform="translate(0 87.41)" fill="#01417f"/>
          <rect id="Rectangle_418" data-name="Rectangle 418" width="16.034" height="3.59" transform="translate(0 64.077)" fill="#01417f"/>
          <rect id="Rectangle_419" data-name="Rectangle 419" width="16.034" height="3.59" transform="translate(50.197 64.077)" fill="#01417f"/>
          <path id="Path_4068" data-name="Path 4068" d="M0,113.932a7.647,7.647,0,0,0,7.885,7.335,7.647,7.647,0,0,0,7.883-7.335V0H0Z" transform="translate(25.231 63.314)" fill="#01417f"/>
        </g>
      </g>
    </g>
  </g>
</svg>
