<svg xmlns="http://www.w3.org/2000/svg" xmlns:xlink="http://www.w3.org/1999/xlink" width="442.033" height="286.965" viewBox="0 0 442.033 286.965">
  <defs>
    <clipPath id="clip-path">
      <rect id="Rectangle_423" data-name="Rectangle 423" width="442.033" height="286.965" fill="#fff"/>
    </clipPath>
  </defs>
  <g id="justsafefood-start-training-footer-icon" clip-path="url(#clip-path)">
    <path id="Path_4069" data-name="Path 4069" d="M442.033,44.2A44.333,44.333,0,0,0,397.829,0H44.2A44.333,44.333,0,0,0,0,44.2V203.188H442.033Z" transform="translate(0.033 0.529)" fill="#6ccc8d"/>
    <path id="Path_4070" data-name="Path 4070" d="M44.2,117.172H397.829a44.333,44.333,0,0,0,44.2-44.2V33.038H0v39.93a44.333,44.333,0,0,0,44.2,44.2" transform="translate(0 169.792)" fill="#dbf2e2"/>
    <path id="Path_4071" data-name="Path 4071" d="M117.22,52.713l-77.6-44.8A8.164,8.164,0,0,0,27.37,14.974v89.605a8.163,8.163,0,0,0,12.246,7.07l77.6-44.8a8.163,8.163,0,0,0,0-14.14" transform="translate(158.162 47.212)" fill="#ffd4c3" stroke="#01417f" stroke-width="5"/>
    <g id="Group_1069" data-name="Group 1069" transform="translate(42.976 229.906)">
      <path id="Path_4072" data-name="Path 4072" d="M11.42,67.439h0A4.433,4.433,0,0,1,7,63.018V41.868a4.42,4.42,0,0,1,8.841,0v21.15a4.433,4.433,0,0,1-4.42,4.42" transform="translate(-7 -37.448)" fill="#01417f"/>
      <path id="Path_4073" data-name="Path 4073" d="M14.212,67.439h0a4.433,4.433,0,0,1-4.42-4.42V41.868a4.42,4.42,0,0,1,8.841,0v21.15a4.433,4.433,0,0,1-4.42,4.42" transform="translate(7.348 -37.448)" fill="#01417f"/>
      <path id="Path_4074" data-name="Path 4074" d="M303.9,53.718H24.578a7.527,7.527,0,1,1,0-15.054H303.9a7.527,7.527,0,0,1,0,15.054" transform="translate(44.656 -31.201)" fill="#01417f"/>
      <path id="Path_4075" data-name="Path 4075" d="M61.072,67.439h0a4.433,4.433,0,0,1-4.42-4.42V41.868a4.42,4.42,0,0,1,8.841,0v21.15a4.433,4.433,0,0,1-4.42,4.42" transform="translate(248.178 -37.448)" fill="#01417f"/>
    </g>
  </g>
</svg>
