<svg xmlns="http://www.w3.org/2000/svg" xmlns:xlink="http://www.w3.org/1999/xlink" width="300" height="200" viewBox="0 0 300 200">
  <defs>
    <clipPath id="clip-path">
      <rect id="Rectangle_423" data-name="Rectangle 423" width="300" height="200" fill="#fff"/>
    </clipPath>
  </defs>
  <g id="justsafefood-start-training-footer-icon-L" clip-path="url(#clip-path)">
    <path id="Path_4069" data-name="Path 4069" d="M300,30.807C300,13.863,286.5,0,270,0H30C13.5,0,0,13.863,0,30.807v110.8H300Z" transform="translate(0.022 0.369)" fill="#6ccc8d"/>
    <path id="Path_4070" data-name="Path 4070" d="M30,91.675H270c16.5,0,30-13.863,30-30.807V33.038H0V60.867C0,77.811,13.5,91.675,30,91.675" transform="translate(0 108.324)" fill="#dbf2e2"/>
    <path id="Path_4071" data-name="Path 4071" d="M88.35,37.965,35.681,7.558a5.541,5.541,0,0,0-8.311,4.794V73.166a5.54,5.54,0,0,0,8.311,4.8l52.669-30.4a5.54,5.54,0,0,0,0-9.6" transform="translate(98.548 30.839)" fill="#ffd4c3" stroke="#01417f" stroke-width="5"/>
    <g id="Group_1069" data-name="Group 1069" transform="translate(29.167 160.233)">
      <path id="Path_4072" data-name="Path 4072" d="M10,58.35h0a3.05,3.05,0,0,1-3-3.081V40.529a3,3,0,1,1,6,0v14.74a3.05,3.05,0,0,1-3,3.081" transform="translate(-7 -37.448)" fill="#01417f"/>
      <path id="Path_4073" data-name="Path 4073" d="M12.792,58.35h0a3.05,3.05,0,0,1-3-3.081V40.529a3,3,0,1,1,6,0v14.74a3.05,3.05,0,0,1-3,3.081" transform="translate(1.841 -37.448)" fill="#01417f"/>
      <path id="Path_4074" data-name="Path 4074" d="M211.73,49.156H22.159a5.248,5.248,0,0,1,0-10.492H211.73a5.248,5.248,0,0,1,0,10.492" transform="translate(24.829 -33.462)" fill="#01417f"/>
      <path id="Path_4075" data-name="Path 4075" d="M59.652,58.35h0a3.05,3.05,0,0,1-3-3.081V40.529a3,3,0,1,1,6,0v14.74a3.05,3.05,0,0,1-3,3.081" transform="translate(150.231 -37.448)" fill="#01417f"/>
    </g>
  </g>
</svg>
