<svg xmlns="http://www.w3.org/2000/svg" xmlns:xlink="http://www.w3.org/1999/xlink" width="154" height="100" viewBox="0 0 154 100">
  <defs>
    <clipPath id="clip-path">
      <rect id="Rectangle_423" data-name="Rectangle 423" width="154" height="100" fill="#fff"/>
    </clipPath>
  </defs>
  <g id="icon" clip-path="url(#clip-path)">
    <path id="Path_4069" data-name="Path 4069" d="M154,15.4A15.447,15.447,0,0,0,138.6,0H15.4A15.447,15.447,0,0,0,0,15.4v55.4H154Z" transform="translate(-0.064 -0.006)" fill="#6ccc8d"/>
    <path id="Path_4070" data-name="Path 4070" d="M15.4,62.356H138.6a15.447,15.447,0,0,0,15.4-15.4V33.038H0V46.953a15.447,15.447,0,0,0,15.4,15.4" transform="translate(0 37.643)" fill="#dbf2e2"/>
    <path id="Path_4071" data-name="Path 4071" d="M58.663,22.8,31.635,7.2a2.843,2.843,0,0,0-4.265,2.46V40.865a2.843,2.843,0,0,0,4.265,2.462l27.028-15.6a2.843,2.843,0,0,0,0-4.924" transform="translate(38.984 12.951)" fill="#ffd4c3" stroke="#01417f" stroke-width="4"/>
    <g id="Group_1069" data-name="Group 1069" transform="translate(14.972 80.116)">
      <path id="Path_4072" data-name="Path 4072" d="M8.54,47.9h0A1.545,1.545,0,0,1,7,46.359v-7.37a1.54,1.54,0,1,1,3.08,0v7.37A1.545,1.545,0,0,1,8.54,47.9" transform="translate(-7 -37.448)" fill="#01417f"/>
      <path id="Path_4073" data-name="Path 4073" d="M11.332,47.9h0a1.545,1.545,0,0,1-1.54-1.54v-7.37a1.54,1.54,0,1,1,3.08,0v7.37a1.545,1.545,0,0,1-1.54,1.54" transform="translate(-3.821 -37.448)" fill="#01417f"/>
      <path id="Path_4074" data-name="Path 4074" d="M116.986,43.91H19.673a2.623,2.623,0,0,1,0-5.246h97.313a2.623,2.623,0,0,1,0,5.246" transform="translate(4.447 -36.063)" fill="#01417f"/>
      <path id="Path_4075" data-name="Path 4075" d="M58.192,47.9h0a1.545,1.545,0,0,1-1.54-1.54v-7.37a1.54,1.54,0,1,1,3.08,0v7.37a1.545,1.545,0,0,1-1.54,1.54" transform="translate(49.548 -37.448)" fill="#01417f"/>
    </g>
  </g>
</svg>
