<svg xmlns="http://www.w3.org/2000/svg" xmlns:xlink="http://www.w3.org/1999/xlink" width="241.318" height="45" viewBox="0 0 241.318 45">
  <defs>
    <clipPath id="clip-path">
      <rect id="Rectangle_375" data-name="Rectangle 375" width="241.318" height="45" fill="none"/>
    </clipPath>
  </defs>
  <g id="JustSafeFood-logo" clip-path="url(#clip-path)">
    <path id="Path_3950" data-name="Path 3950" d="M56.349,26.579a4.431,4.431,0,0,1-1.1,3.108,3.623,3.623,0,0,1-2.775,1.122,4.023,4.023,0,0,1-2.888-.967,3.887,3.887,0,0,1-1-2.923v-.368H46.2v.368a5.917,5.917,0,0,0,1.643,4.426,6.394,6.394,0,0,0,4.633,1.595,6.1,6.1,0,0,0,4.568-1.764,6.468,6.468,0,0,0,1.708-4.686V12.385h-2.4Z" transform="translate(1.925 0.516)" fill="#01417f"/>
    <path id="Path_3951" data-name="Path 3951" d="M71.143,28.029c-.578,1.734-1.9,2.578-4.05,2.578-2.04,0-2.99-1.2-2.99-3.781v-9.62H61.77V27.03A6.287,6.287,0,0,0,63.1,31.267a4.867,4.867,0,0,0,3.806,1.472,5.934,5.934,0,0,0,4.279-1.492l.018,1.223H73.49V17.206H71.143Z" transform="translate(2.574 0.717)" fill="#01417f"/>
    <path id="Path_3952" data-name="Path 3952" d="M85.133,24.74a13.94,13.94,0,0,0-3.258-1.095,8.2,8.2,0,0,1-2.778-1.03,1.62,1.62,0,0,1-.651-1.392,1.812,1.812,0,0,1,.809-1.536,4.463,4.463,0,0,1,4.792.132,2.238,2.238,0,0,1,.928,1.834v.368h2.347v-.368a4.229,4.229,0,0,0-1.605-3.421,6.359,6.359,0,0,0-4.133-1.284,6.185,6.185,0,0,0-3.906,1.2,3.825,3.825,0,0,0-1.578,3.13,3.606,3.606,0,0,0,.58,2.058,4.372,4.372,0,0,0,1.725,1.42,13.45,13.45,0,0,0,3.09.97,7.122,7.122,0,0,1,2.748,1.069,1.924,1.924,0,0,1,.815,1.627,1.858,1.858,0,0,1-.88,1.568,4.241,4.241,0,0,1-2.5.67A4.519,4.519,0,0,1,79,29.942a2.422,2.422,0,0,1-1.036-1.921l-.023-.344H75.615v.368a4.148,4.148,0,0,0,1.72,3.4,6.891,6.891,0,0,0,4.342,1.306,6.718,6.718,0,0,0,4.093-1.174,4.1,4.1,0,0,0,1.064-5.355,4.481,4.481,0,0,0-1.7-1.481" transform="translate(3.151 0.706)" fill="#01417f"/>
    <path id="Path_3953" data-name="Path 3953" d="M95.772,30.626a9.73,9.73,0,0,1-1.25.13,1.339,1.339,0,0,1-1.16-.443A2.7,2.7,0,0,1,93,28.731V19.406h3.008V17.355H93v-3.72H90.651v3.72H87.978v2.051h2.673v9.327a4.886,4.886,0,0,0,.829,3.053,3.219,3.219,0,0,0,2.693,1.1,5.561,5.561,0,0,0,1.843-.248l.258-.092-.1-1.983Z" transform="translate(3.666 0.568)" fill="#01417f"/>
    <path id="Path_3954" data-name="Path 3954" d="M100.656,29.587a1.465,1.465,0,0,0-1.114-.444,1.439,1.439,0,0,0-1.11.448,1.5,1.5,0,0,0-.4,1.048,1.4,1.4,0,0,0,.41,1.031,1.492,1.492,0,0,0,1.1.41,1.52,1.52,0,0,0,1.1-.407,1.4,1.4,0,0,0,.42-1.034,1.49,1.49,0,0,0-.409-1.052" transform="translate(4.085 1.214)" fill="#01417f"/>
    <path id="Path_3955" data-name="Path 3955" d="M170.435,32.671h2.387V23.527h9.118V21.394h-9.118V14.516h10.46V12.384H170.435Z" transform="translate(7.101 0.516)" fill="#01417f"/>
    <path id="Path_3956" data-name="Path 3956" d="M190.644,16.947a6.468,6.468,0,0,0-5.992,3.753,8.953,8.953,0,0,0-.848,3.933v.322a8.21,8.21,0,0,0,1.9,5.635,6.358,6.358,0,0,0,4.969,2.158,6.667,6.667,0,0,0,3.564-.968,6.46,6.46,0,0,0,2.427-2.752,9.027,9.027,0,0,0,.849-3.953v-.335a8.226,8.226,0,0,0-1.892-5.635,6.358,6.358,0,0,0-4.975-2.158m4.533,7.686v.308a6.486,6.486,0,0,1-1.268,4.181,4.2,4.2,0,0,1-6.492,0,6.273,6.273,0,0,1-1.268-4.047v-.295a6.493,6.493,0,0,1,1.276-4.181,3.907,3.907,0,0,1,3.218-1.548,4.09,4.09,0,0,1,2.345.695,4.644,4.644,0,0,1,1.6,1.987,7.074,7.074,0,0,1,.585,2.9" transform="translate(7.658 0.706)" fill="#01417f"/>
    <path id="Path_3957" data-name="Path 3957" d="M205.43,16.947a6.469,6.469,0,0,0-5.992,3.753,8.953,8.953,0,0,0-.848,3.933v.322a8.21,8.21,0,0,0,1.9,5.635,6.358,6.358,0,0,0,4.969,2.158,6.669,6.669,0,0,0,3.564-.968,6.46,6.46,0,0,0,2.427-2.752,9.027,9.027,0,0,0,.849-3.953v-.335a8.226,8.226,0,0,0-1.892-5.635,6.358,6.358,0,0,0-4.975-2.158m4.533,7.686v.308a6.486,6.486,0,0,1-1.268,4.181,4.2,4.2,0,0,1-6.492,0,6.273,6.273,0,0,1-1.268-4.047v-.295a6.5,6.5,0,0,1,1.275-4.181,3.909,3.909,0,0,1,3.219-1.548,4.09,4.09,0,0,1,2.345.695,4.644,4.644,0,0,1,1.6,1.987,7.073,7.073,0,0,1,.585,2.9" transform="translate(8.275 0.706)" fill="#01417f"/>
    <path id="Path_3958" data-name="Path 3958" d="M223.706,18.824a5.467,5.467,0,0,0-4.118-1.643,5.232,5.232,0,0,0-4.4,2.154,9.152,9.152,0,0,0-1.584,5.612v.189a9.2,9.2,0,0,0,1.611,5.681,5.219,5.219,0,0,0,4.343,2.166,5.683,5.683,0,0,0,4.2-1.6l.047,1.33h2.226V11.353h-2.333Zm0,3.033v6.659a3.943,3.943,0,0,1-3.849,2.334,3.23,3.23,0,0,1-2.841-1.447,7.254,7.254,0,0,1-1.048-4.174,7.789,7.789,0,0,1,1.06-4.481,3.27,3.27,0,0,1,2.855-1.435,3.907,3.907,0,0,1,3.822,2.544" transform="translate(8.9 0.473)" fill="#01417f"/>
    <path id="Path_3959" data-name="Path 3959" d="M231.378,29.588a1.465,1.465,0,0,0-1.114-.445,1.444,1.444,0,0,0-1.111.449,1.507,1.507,0,0,0-.4,1.047,1.408,1.408,0,0,0,.409,1.032,1.5,1.5,0,0,0,1.1.409,1.52,1.52,0,0,0,1.1-.406,1.4,1.4,0,0,0,.419-1.035,1.485,1.485,0,0,0-.408-1.051" transform="translate(9.531 1.214)" fill="#01417f"/>
    <path id="Path_3960" data-name="Path 3960" d="M117.321,12.92a9.2,9.2,0,0,0-3.887-.793,10.058,10.058,0,0,0-3.895.727,6.2,6.2,0,0,0-2.722,2.065,5.105,5.105,0,0,0-.961,3.041c0,2.169,1.184,3.909,3.523,5.172a20.982,20.982,0,0,0,3.378,1.363,10.318,10.318,0,0,1,2.792,1.232,1.7,1.7,0,0,1,.66,1.459,1.54,1.54,0,0,1-.654,1.333,3.427,3.427,0,0,1-2.027.515c-2.387,0-3.5-.911-3.5-2.869V25.8h-4.776v.368a6.173,6.173,0,0,0,1.036,3.536,6.886,6.886,0,0,0,2.981,2.392,10.381,10.381,0,0,0,4.258.858,8.8,8.8,0,0,0,5.391-1.517,5.076,5.076,0,0,0,2.068-4.276,5.487,5.487,0,0,0-1.682-4.077,12.614,12.614,0,0,0-5.159-2.653,10.549,10.549,0,0,1-2.728-1.163,1.527,1.527,0,0,1-.8-1.292,1.6,1.6,0,0,1,.674-1.353,3.381,3.381,0,0,1,2.073-.549,3.14,3.14,0,0,1,2.134.654,2.266,2.266,0,0,1,.722,1.811v.368h4.764v-.368a6.005,6.005,0,0,0-.967-3.345,6.345,6.345,0,0,0-2.7-2.273" transform="translate(4.385 0.505)" fill="#01417f"/>
    <path id="Path_3961" data-name="Path 3961" d="M134.544,28.756v-6.3a5.093,5.093,0,0,0-1.707-4.073,6.722,6.722,0,0,0-4.5-1.439,8.43,8.43,0,0,0-3.341.642,5.525,5.525,0,0,0-2.355,1.807,4.272,4.272,0,0,0-.849,2.552v.368h4.617v-.368a1.239,1.239,0,0,1,.426-1.008,1.975,1.975,0,0,1,1.3-.383,1.7,1.7,0,0,1,1.352.476,2.022,2.022,0,0,1,.429,1.372v.465h-1.42a8.838,8.838,0,0,0-5.161,1.319,4.471,4.471,0,0,0-1.865,3.843A4.346,4.346,0,0,0,123,31.423a5.542,5.542,0,0,0,3.782,1.326,5.114,5.114,0,0,0,3.445-1.208,3.919,3.919,0,0,0,.283.741l.1.2h4.514v-.688l-.044-.081a6.631,6.631,0,0,1-.533-2.956m-4.63-2.882v2.033a2.161,2.161,0,0,1-.878.8,2.988,2.988,0,0,1-1.413.341,1.618,1.618,0,0,1-1.148-.374,1.178,1.178,0,0,1-.393-.9l.012-.216c.04-.416.157-1.68,2.736-1.68Z" transform="translate(5.061 0.706)" fill="#01417f"/>
    <path id="Path_3962" data-name="Path 3962" d="M143.732,14.947a4.672,4.672,0,0,1,1.093.109l.45.113.051-3.745-.291-.067a9.592,9.592,0,0,0-2.055-.275,5.8,5.8,0,0,0-4.182,1.453,5.386,5.386,0,0,0-1.517,4.058v.868H135.12v3.581h2.161V32.726h4.629V21.042H144.8V17.461h-2.887v-.81c0-1.178.562-1.7,1.822-1.7" transform="translate(5.63 0.462)" fill="#01417f"/>
    <path id="Path_3963" data-name="Path 3963" d="M151.975,16.947a7.122,7.122,0,0,0-3.728.986,6.6,6.6,0,0,0-2.538,2.811,9.179,9.179,0,0,0-.883,4.076V25.2a7.351,7.351,0,0,0,2.118,5.486,7.517,7.517,0,0,0,5.46,2.066,8.156,8.156,0,0,0,3.459-.726,6.2,6.2,0,0,0,2.508-2.048l.169-.239-2.395-2.682-.271.348a3.812,3.812,0,0,1-3.216,1.483,3.044,3.044,0,0,1-2.149-.765,3.088,3.088,0,0,1-.943-1.643h9.181V24.526a8.029,8.029,0,0,0-1.808-5.579,6.411,6.411,0,0,0-4.966-2m-.014,3.865a2.131,2.131,0,0,1,1.64.594,2.511,2.511,0,0,1,.6,1.693h-4.593a3.381,3.381,0,0,1,.753-1.623,2.057,2.057,0,0,1,1.6-.664" transform="translate(6.034 0.706)" fill="#01417f"/>
    <path id="Path_3964" data-name="Path 3964" d="M164.177,28a2.793,2.793,0,0,0-3.642,0,2.317,2.317,0,0,0-.742,1.774,2.286,2.286,0,0,0,.734,1.753,2.832,2.832,0,0,0,3.655,0,2.287,2.287,0,0,0,.736-1.753A2.318,2.318,0,0,0,164.177,28" transform="translate(6.658 1.139)" fill="#01417f"/>
    <path id="Path_3965" data-name="Path 3965" d="M39.109,4.736,38.956,3.5,19.728.023V0L.483,3.48.331,4.717a65.134,65.134,0,0,0,.621,17.67C2.971,33.479,8.11,40.887,15.88,44.027c.472.191,2.172.6,3.07.809v.016l.286.052.279.064v-.014l.262.046v-.014l.824-.147V44.83c.92-.217,2.5-.6,2.958-.784C31.329,40.906,36.47,33.5,38.489,22.405a65.126,65.126,0,0,0,.621-17.669M20.564,41.48v.009c-.269.063-.791.232-.791.232v.011c-.014-.005-.316-.1-.585-.178C2.354,36.9,3.2,12.189,3.639,6.358L19.716,3.35l0,.017L35.8,6.378c.441,5.793,1.271,30.226-15.238,35.1" transform="translate(0 0)" fill="#01417f"/>
    <path id="Path_3966" data-name="Path 3966" d="M19.44,5.388,5.558,7.986c-.3,6.873.049,27.231,13.962,31.119l.171-.052C33.382,35.009,33.717,14.817,33.424,8.006Z" transform="translate(0.229 0.225)" fill="#6dcc8d"/>
    <path id="Path_3967" data-name="Path 3967" d="M21.174,34.614c-.031-.444-.055-.889-.066-1.333a17.856,17.856,0,0,1,0-2.19,7.065,7.065,0,0,1,.8-2.615,6.919,6.919,0,0,1,1.381-1.8,7.514,7.514,0,0,0,1.645-2.294,8.76,8.76,0,0,0,.745-3.424,28.882,28.882,0,0,0-.068-3.329c-.051-.634-.1-1.269-.156-1.9-.079-.9-.179-1.8-.269-2.7q-.142-1.431-.281-2.865a.869.869,0,0,0-1.709-.094,1.893,1.893,0,0,0-.022.42q0,5.056,0,10.113a.912.912,0,0,1-.381.774.579.579,0,0,1-.657.077.9.9,0,0,1-.47-.648,2.31,2.31,0,0,1,0-.449c0-1.9,0-3.8,0-5.7,0-1.468.016-2.934-.017-4.4a.885.885,0,0,0-.565-.8.827.827,0,0,0-.926.253.948.948,0,0,0-.209.653q0,5.141,0,10.281a.85.85,0,0,1-.457.794.545.545,0,0,1-.586-.005.864.864,0,0,1-.464-.793q0-4.775,0-9.55c0-.318.007-.636-.023-.955a.858.858,0,0,0-.858-.736.873.873,0,0,0-.822.881q.011,5.133.005,10.267a1.452,1.452,0,0,1-.029.322.848.848,0,0,1-.647.648.78.78,0,0,1-.768-.459,1.117,1.117,0,0,1-.091-.548V15.467h.005q0-2.6,0-5.2a.88.88,0,0,0-.833-.86.864.864,0,0,0-.89.685c-.035.2-.044.409-.064.614-.109,1.091-.223,2.18-.328,3.27-.091.946-.169,1.893-.261,2.839-.091.919-.131,1.841-.157,2.762a14.413,14.413,0,0,0,.246,3.158,6.762,6.762,0,0,0,1.137,2.725A11.856,11.856,0,0,0,15.28,26.84,6.864,6.864,0,0,1,17.3,31.265a19.825,19.825,0,0,1-.027,2.347c-.029.669-.07,1.337-.131,2-.046.5-.076,1.008-.124,1.511s-.095,1.027-.146,1.541a16,16,0,0,0,2.238.811l.11.031.1-.028.232-.07a15.863,15.863,0,0,0,1.968-.739c-.054-.555-.1-1.111-.158-1.667-.08-.8-.132-1.595-.189-2.394" transform="translate(0.528 0.392)" fill="#fff"/>
  </g>
</svg>
