<?xml version="1.0" encoding="UTF-8"?>
<svg id="Layer_2" data-name="Layer 2" xmlns="http://www.w3.org/2000/svg" viewBox="0 0 434.4 287">
  <defs>
    <style>
      .cls-1 {
        fill: #6ccc8d;
      }

      .cls-1, .cls-2, .cls-3 {
        stroke-width: 0px;
      }

      .cls-2 {
        fill: #ffd4c3;
      }

      .cls-3 {
        fill: #01417f;
      }
    </style>
  </defs>
  <g id="Layer_1-2" data-name="Layer 1">
    <g>
      <g>
        <path class="cls-1" d="m217.2,184.3L7.3,56.3v181.4c0,23.1,18.9,42,42,42h335.9c23.1,0,42-18.9,42-42V56.3l-210,128Z"/>
        <path class="cls-2" d="m385.2,287H49.2c-27.1,0-49.2-22.1-49.2-49.2V43.5l217.2,132.4L434.3,43.5v194.3c0,27.1-22,49.2-49.1,49.2ZM14.4,69.1v168.7c0,19.2,15.6,34.8,34.8,34.8h336c19.2,0,34.8-15.6,34.8-34.8V69.1l-202.8,123.6L14.4,69.1Z"/>
      </g>
      <g>
        <path class="cls-3" d="m427.1,56.3v-7.1c0-23.1-18.9-42-42-42H49.2C26.1,7.2,7.2,26.1,7.2,49.2v7.1l210,128L427.1,56.3Z"/>
        <path class="cls-2" d="m217.2,192.7L.1,60.4v-11.2C.1,22.1,22.1,0,49.2,0h336c27.1,0,49.2,22.1,49.2,49.2v11.2l-217.2,132.3ZM14.4,52.3l202.8,123.6,202.8-123.6v-3.1c0-19.2-15.6-34.8-34.8-34.8H49.2c-19.2,0-34.8,15.6-34.8,34.8v3.1Z"/>
      </g>
    </g>
  </g>
</svg>